{
.appVersion = "1141";
copyright = "Copyright (c) 2018 by Cadson Demak Co.,Ltd.. All rights reserved.";
customParameters = (
{
name = vendorID;
value = CDK;
},
{
name = description;
value = "Copyright (c) 2018, Cadson Demak (info@cadsondemak.com)";
},
{
name = license;

glyphs = (
{
glyphname = A;
lastChange = "2018-07-09 11:20:23 +0000";
layers = (
{
anchors = (
{
name = bottom;
position = "{365, 0}";
},
{
name = ogonek;
position = "{625, 10}";
},
{
name = top;
position = "{365, 700}";
}
);
layerId = "0B1DFD06-3317-40CA-B510-4969A0718C16";
paths = (
{
closed = 1;
nodes = (
"129 -10 OFFCURVE",
"139 1 OFFCURVE",
"139 22 CURVE SMOOTH",
"139 270 LINE",
"591 270 LINE",
"591 22 LINE SMOOTH",
"591 1 OFFCURVE",
"601 -10 OFFCURVE",
"618 -10 CURVE SMOOTH",
"635 -10 OFFCURVE",
"644 1 OFFCURVE",
"644 22 CURVE SMOOTH",
"644 429 LINE SMOOTH",
"644 605 OFFCURVE",
"539 710 OFFCURVE",
"365 710 CURVE SMOOTH",
"190 710 OFFCURVE",
"86 606 OFFCURVE",
"86 429 CURVE SMOOTH",
"86 22 LINE SMOOTH",
"86 1 OFFCURVE",
"95 -10 OFFCURVE",
"112 -10 CURVE SMOOTH"
);
},
{
closed = 1;
nodes = (
"139 432 LINE SMOOTH",
"139 579 OFFCURVE",
"219 661 OFFCURVE",
"365 661 CURVE SMOOTH",
"510 661 OFFCURVE",
"591 578 OFFCURVE",
"591 432 CURVE SMOOTH",
"591 317 LINE",
"139 317 LINE"
);
}
);
width = 730;
},
{
anchors = (
{
name = bottom;
position = "{365, 0}";
},
{
name = ogonek;
position = "{611, 10}";
},
{
name = top;
position = "{365, 700}";
}
);
guideLines = (
{
position = "{798, 710}";
}
);
layerId = "258BB4CE-589F-454F-8E39-237B943AA0B4";
paths = (
{
closed = 1;
nodes = (
"157 -9 OFFCURVE",
"184 15 OFFCURVE",
"184 51 CURVE SMOOTH",
"184 214 LINE",
"546 214 LINE",
"546 51 LINE SMOOTH",
"546 15 OFFCURVE",
"573 -9 OFFCURVE",
"613 -9 CURVE SMOOTH",
"653 -9 OFFCURVE",
"679 14 OFFCURVE",
"679 51 CURVE SMOOTH",
"679 401 LINE SMOOTH",
"679 593 OFFCURVE",
"561 710 OFFCURVE",
"365 710 CURVE SMOOTH",
"168 710 OFFCURVE",
"51 594 OFFCURVE",
"51 401 CURVE SMOOTH",
"51 51 LINE SMOOTH",
"51 14 OFFCURVE",
"77 -9 OFFCURVE",
"117 -9 CURVE SMOOTH"
);
},
{
closed = 1;
nodes = (
"184 404 LINE SMOOTH",
"184 538 OFFCURVE",
"244 605 OFFCURVE",
"365 605 CURVE SMOOTH",
"485 605 OFFCURVE",
"546 537 OFFCURVE",
"546 404 CURVE SMOOTH",
"546 317 LINE",
"184 317 LINE"
);
}
);
width = 730;
},
{
anchors = (
{
name = bottom;
position = "{364, 0}";
},
{
name = ogonek;
position = "{617, 10}";
},
{
name = top;
position = "{364, 700}";
}
);
layerId = "8ED59CAD-D047-43C0-8308-3370007B39AA";
paths = (
{
closed = 1;
nodes = (
"136 -10 OFFCURVE",
"150 5 OFFCURVE",
"150 30 CURVE SMOOTH",
"150 255 LINE",
"577 255 LINE",
"577 30 LINE SMOOTH",
"577 5 OFFCURVE",
"592 -10 OFFCURVE",
"615 -10 CURVE SMOOTH",
"639 -10 OFFCURVE",
"653 5 OFFCURVE",
"653 30 CURVE SMOOTH",
"653 421 LINE SMOOTH",
"653 601 OFFCURVE",
"544 710 OFFCURVE",
"364 710 CURVE SMOOTH",
"183 710 OFFCURVE",
"75 602 OFFCURVE",
"75 421 CURVE SMOOTH",
"75 30 LINE SMOOTH",
"75 5 OFFCURVE",
"89 -10 OFFCURVE",
"112 -10 CURVE SMOOTH"
);
},
{
closed = 1;
nodes = (
"150 424 LINE SMOOTH",
"150 568 OFFCURVE",
"226 646 OFFCURVE",
"364 646 CURVE SMOOTH",
"502 646 OFFCURVE",
"577 566 OFFCURVE",
"577 424 CURVE SMOOTH",
"577 317 LINE",
"150 317 LINE"
);
}
);
width = 728;
},
{
anchors = (
{
name = bottom;
position = "{325, 0}";
},
{
name = ogonek;
position = "{588, 10}";
},
{
name = top;
position = "{448, 700}";
}
);
layerId = "6D0DA379-F071-4911-97B5-1F20F456FBFD";
paths = (
{
closed = 1;
nodes = (
"87 -10 OFFCURVE",
"99 1 OFFCURVE",
"103 22 CURVE SMOOTH",
"147 270 LINE",
"599 270 LINE",
"555 22 LINE SMOOTH",
"551 1 OFFCURVE",
"558 -10 OFFCURVE",
"576 -10 CURVE SMOOTH",
"593 -10 OFFCURVE",
"604 1 OFFCURVE",
"608 22 CURVE SMOOTH",
"680 429 LINE SMOOTH",
"711 602 OFFCURVE",
"621 710 OFFCURVE",
"447 710 CURVE SMOOTH",
"264 710 OFFCURVE",
"155 616 OFFCURVE",
"122 429 CURVE SMOOTH",
"50 22 LINE SMOOTH",
"46 1 OFFCURVE",
"53 -10 OFFCURVE",
"70 -10 CURVE SMOOTH"
);
},
{
closed = 1;
nodes = (
"175 432 LINE SMOOTH",
"202 586 OFFCURVE",
"290 661 OFFCURVE",
"442 661 CURVE SMOOTH",
"592 661 OFFCURVE",
"654 584 OFFCURVE",
"627 432 CURVE SMOOTH",
"607 317 LINE",
"155 317 LINE"
);
}
);
width = 738;
},
{
anchors = (
{
name = bottom;
position = "{325, 0}";
},
{
name = ogonek;
position = "{583, 10}";
},
{
name = top;
position = "{449, 700}";
}
);
layerId = "71BB0B28-5B77-4945-A3C0-334755DB3BD8";
paths = (
{
closed = 1;
nodes = (
"94 -10 OFFCURVE",
"112 3 OFFCURVE",
"117 30 CURVE SMOOTH",
"157 255 LINE",
"584 255 LINE",
"544 30 LINE SMOOTH",
"540 7 OFFCURVE",
"549 -10 OFFCURVE",
"575 -10 CURVE SMOOTH",
"596 -10 OFFCURVE",
"615 2 OFFCURVE",
"620 30 CURVE SMOOTH",
"689 421 LINE SMOOTH",
"720 598 OFFCURVE",
"625 710 OFFCURVE",
"446 710 CURVE SMOOTH",
"262 710 OFFCURVE",
"144 610 OFFCURVE",
"111 421 CURVE SMOOTH",
"42 30 LINE SMOOTH",
"37 2 OFFCURVE",
"51 -10 OFFCURVE",
"72 -10 CURVE SMOOTH"
);
},
{
closed = 1;
nodes = (
"187 424 LINE SMOOTH",
"213 570 OFFCURVE",
"300 646 OFFCURVE",
"440 646 CURVE SMOOTH",
"582 646 OFFCURVE",
"640 572 OFFCURVE",
"614 424 CURVE SMOOTH",
"595 317 LINE",
"168 317 LINE"
);
}
);
width = 737;
},
{
anchors = (
{
name = bottom;
position = "{326, 0}";
},
{
name = ogonek;
position = "{578, 10}";
},
{
name = top;
position = "{450, 700}";
}
);
layerId = "D92B54DD-6BE9-4383-803D-42A15BF32189";
paths = (
{
closed = 1;
nodes = (
"116 -9 OFFCURVE",
"147 15 OFFCURVE",
"154 51 CURVE SMOOTH",
"183 214 LINE",
"545 214 LINE",
"516 51 LINE SMOOTH",
"509 15 OFFCURVE",
"532 -9 OFFCURVE",
"572 -9 CURVE SMOOTH",
"612 -9 OFFCURVE",
"642 14 OFFCURVE",
"649 51 CURVE SMOOTH",
"711 401 LINE SMOOTH",
"743 588 OFFCURVE",
"639 710 OFFCURVE",
"448 710 CURVE SMOOTH",
"248 710 OFFCURVE",
"118 601 OFFCURVE",
"83 401 CURVE SMOOTH",
"21 51 LINE SMOOTH",
"14 14 OFFCURVE",
"36 -9 OFFCURVE",
"76 -9 CURVE SMOOTH"
);
},
{
closed = 1;
nodes = (
"216 404 LINE SMOOTH",
"240 538 OFFCURVE",
"312 605 OFFCURVE",
"433 605 CURVE SMOOTH",
"557 605 OFFCURVE",
"603 541 OFFCURVE",
"578 404 CURVE SMOOTH",
"563 317 LINE",
"201 317 LINE"
);
}
);
width = 739;
}
);
leftKerningGroup = A;
note = A;
rightKerningGroup = A;
unicode = 0041;
},
{
glyphname = B;
lastChange = "2018-07-09 11:12:12 +0000";
layers = (
{
anchors = (
{
name = bottom;
position = "{359, 0}";
},
{
name = top;
position = "{359, 700}";
}
);
layerId = "0B1DFD06-3317-40CA-B510-4969A0718C16";
paths = (
{
closed = 1;
nodes = (
"454 0 LINE SMOOTH",
"579 0 OFFCURVE",
"656 76 OFFCURVE",
"656 201 CURVE SMOOTH",
"656 279 OFFCURVE",
"613 340 OFFCURVE",
"542 365 CURVE",
"542 367 LINE",
"609 395 OFFCURVE",
"644 446 OFFCURVE",
"644 513 CURVE SMOOTH",
"644 632 OFFCURVE",
"571 700 OFFCURVE",
"442 700 CURVE SMOOTH",
"202 700 LINE SMOOTH",
"129 700 OFFCURVE",
"86 659 OFFCURVE",
"86 590 CURVE SMOOTH",
"86 110 LINE SMOOTH",
"86 41 OFFCURVE",
"129 0 OFFCURVE",
"202 0 CURVE SMOOTH"
);
},
{
closed = 1;
nodes = (
"163 47 OFFCURVE",
"139 73 OFFCURVE",
"139 107 CURVE SMOOTH",
"139 341 LINE",
"452 341 LINE SMOOTH",
"544 341 OFFCURVE",
"602 287 OFFCURVE",
"602 201 CURVE SMOOTH",
"602 101 OFFCURVE",
"551 47 OFFCURVE",
"454 47 CURVE SMOOTH",
"196 47 LINE SMOOTH"
);
},
{
closed = 1;
nodes = (
"139 593 LINE SMOOTH",
"139 627 OFFCURVE",
"163 653 OFFCURVE",
"196 653 CURVE SMOOTH",
"442 653 LINE SMOOTH",
"540 653 OFFCURVE",
"590 605 OFFCURVE",
"590 513 CURVE SMOOTH",
"590 438 OFFCURVE",
"535 388 OFFCURVE",
"454 388 CURVE SMOOTH",
"139 388 LINE"
);
}
);
width = 717;
},
{
anchors = (
{
name = bottom;
position = "{367, 0}";
},
{
name = top;
position = "{367, 700}";
}
);
layerId = "258BB4CE-589F-454F-8E39-237B943AA0B4";
paths = (
{
closed = 1;
nodes = (
"452 0 LINE SMOOTH",
"603 0 OFFCURVE",
"694 79 OFFCURVE",
"694 213 CURVE SMOOTH",
"694 277 OFFCURVE",
"649 338 OFFCURVE",
"585 363 CURVE",
"585 364 LINE",
"642 390 OFFCURVE",
"682 447 OFFCURVE",
"682 509 CURVE SMOOTH",
"682 633 OFFCURVE",
"594 700 OFFCURVE",
"440 700 CURVE SMOOTH",
"209 700 LINE SMOOTH",
"113 700 OFFCURVE",
"56 645 OFFCURVE",
"56 552 CURVE SMOOTH",
"56 152 LINE SMOOTH",
"56 56 OFFCURVE",
"115 0 OFFCURVE",
"216 0 CURVE SMOOTH"
);
},
{
closed = 1;
nodes = (
"203 102 OFFCURVE",
"187 120 OFFCURVE",
"187 151 CURVE SMOOTH",
"187 310 LINE",
"440 310 LINE SMOOTH",
"515 310 OFFCURVE",
"560 274 OFFCURVE",
"560 211 CURVE SMOOTH",
"560 137 OFFCURVE",
"520 102 OFFCURVE",
"440 102 CURVE SMOOTH",
"230 102 LINE SMOOTH"
);
},
{
closed = 1;
nodes = (
"187 549 LINE SMOOTH",
"187 580 OFFCURVE",
"203 598 OFFCURVE",
"230 598 CURVE SMOOTH",
"440 598 LINE SMOOTH",
"512 598 OFFCURVE",
"548 570 OFFCURVE",
"548 508 CURVE SMOOTH",
"548 445 OFFCURVE",
"508 411 OFFCURVE",
"440 411 CURVE SMOOTH",
"187 411 LINE"
);
}
);
width = 740;
},
{
anchors = (
{
name = bottom;
position = "{364, 0}";
},
{
name = top;
position = "{364, 700}";
}
);
layerId = "8ED59CAD-D047-43C0-8308-3370007B39AA";
paths = (
{
closed = 1;
nodes = (
"456 0 LINE SMOOTH",
"588 0 OFFCURVE",
"669 78 OFFCURVE",
"669 203 CURVE SMOOTH",
"669 277 OFFCURVE",
"626 333 OFFCURVE",
"556 358 CURVE",
"556 360 LINE",
"617 386 OFFCURVE",
"657 438 OFFCURVE",
"657 509 CURVE SMOOTH",
"657 630 OFFCURVE",
"579 700 OFFCURVE",
"444 700 CURVE SMOOTH",
"207 700 LINE SMOOTH",
"127 700 OFFCURVE",
"80 654 OFFCURVE",
"80 580 CURVE SMOOTH",
"80 122 LINE SMOOTH",
"80 46 OFFCURVE",
"127 0 OFFCURVE",
"209 0 CURVE SMOOTH"
);
},
{
closed = 1;
nodes = (
"177 63 OFFCURVE",
"155 87 OFFCURVE",
"155 120 CURVE SMOOTH",
"155 327 LINE",
"451 327 LINE SMOOTH",
"539 327 OFFCURVE",
"593 281 OFFCURVE",
"593 202 CURVE SMOOTH",
"593 112 OFFCURVE",
"544 63 OFFCURVE",
"452 63 CURVE SMOOTH",
"208 63 LINE SMOOTH"
);
},
{
closed = 1;
nodes = (
"155 580 LINE SMOOTH",
"155 614 OFFCURVE",
"177 638 OFFCURVE",
"208 638 CURVE SMOOTH",
"444 638 LINE SMOOTH",
"533 638 OFFCURVE",
"581 593 OFFCURVE",
"581 509 CURVE SMOOTH",
"581 435 OFFCURVE",
"530 388 OFFCURVE",
"452 388 CURVE SMOOTH",
"155 388 LINE"
);
}
);
width = 724;
},
{
anchors = (
{
name = bottom;
position = "{320, 0}";
},
{
name = top;
position = "{443, 700}";
}
);
layerId = "6D0DA379-F071-4911-97B5-1F20F456FBFD";
paths = (
{
closed = 1;
nodes = (
"418 0 LINE SMOOTH",
"555 0 OFFCURVE",
"655 98 OFFCURVE",
"655 231 CURVE SMOOTH",
"655 290 OFFCURVE",
"624 334 OFFCURVE",
"566 355 CURVE",
"566 356 LINE",
"649 388 OFFCURVE",
"699 462 OFFCURVE",
"699 552 CURVE SMOOTH",
"699 646 OFFCURVE",
"635 700 OFFCURVE",
"526 700 CURVE SMOOTH",
"286 700 LINE SMOOTH",
"211 700 OFFCURVE",
"163 661 OFFCURVE",
"151 590 CURVE SMOOTH",
"66 110 LINE SMOOTH",
"57 39 OFFCURVE",
"92 0 OFFCURVE",
"163 0 CURVE SMOOTH"
);
},
{
closed = 1;
nodes = (
"127 47 OFFCURVE",
"112 66 OFFCURVE",
"119 107 CURVE SMOOTH",
"159 335 LINE",
"472 335 LINE SMOOTH",
"554 335 OFFCURVE",
"601 296 OFFCURVE",
"601 228 CURVE SMOOTH",
"601 121 OFFCURVE",
"528 47 OFFCURVE",
"423 47 CURVE SMOOTH",
"165 47 LINE SMOOTH"
);
},
{
closed = 1;
nodes = (
"205 593 LINE SMOOTH",
"211 627 OFFCURVE",
"239 653 OFFCURVE",
"272 653 CURVE SMOOTH",
"518 653 LINE SMOOTH",
"607 653 OFFCURVE",
"645 623 OFFCURVE",
"645 555 CURVE SMOOTH",
"645 450 OFFCURVE",
"580 382 OFFCURVE",
"482 382 CURVE SMOOTH",
"167 382 LINE"
);
}
);
width = 726;
},
{
anchors = (
{
name = bottom;
position = "{325, 0}";
},
{
name = top;
position = "{448, 700}";
}
);
layerId = "71BB0B28-5B77-4945-A3C0-334755DB3BD8";
paths = (
{
closed = 1;
nodes = (
"421 -3 LINE SMOOTH",
"562 -3 OFFCURVE",
"669 97 OFFCURVE",
"669 230 CURVE SMOOTH",
"669 287 OFFCURVE",
"637 331 OFFCURVE",
"581 354 CURVE",
"581 356 LINE",
"660 386 OFFCURVE",
"712 460 OFFCURVE",
"712 547 CURVE SMOOTH",
"712 643 OFFCURVE",
"643 700 OFFCURVE",
"529 700 CURVE SMOOTH",
"289 700 LINE SMOOTH",
"207 700 OFFCURVE",
"157 654 OFFCURVE",
"144 580 CURVE SMOOTH",
"62 119 LINE SMOOTH",
"49 47 OFFCURVE",
"93 -3 OFFCURVE",
"170 -3 CURVE SMOOTH"
);
},
{
closed = 1;
nodes = (
"149 60 OFFCURVE",
"130 82 OFFCURVE",
"136 117 CURVE SMOOTH",
"174 327 LINE",
"470 327 LINE SMOOTH",
"547 327 OFFCURVE",
"592 290 OFFCURVE",
"592 227 CURVE SMOOTH",
"592 127 OFFCURVE",
"524 60 OFFCURVE",
"424 60 CURVE SMOOTH",
"180 60 LINE SMOOTH"
);
},
{
closed = 1;
nodes = (
"219 580 LINE SMOOTH",
"225 614 OFFCURVE",
"252 638 OFFCURVE",
"282 638 CURVE SMOOTH",
"518 638 LINE SMOOTH",
"596 638 OFFCURVE",
"636 607 OFFCURVE",
"636 544 CURVE SMOOTH",
"636 451 OFFCURVE",
"573 388 OFFCURVE",
"483 388 CURVE SMOOTH",
"185 388 LINE"
);
}
);
width = 732;
},
{
anchors = (
{
name = bottom;
position = "{328, 0}";
},
{
name = top;
position = "{451, 700}";
}
);
layerId = "D92B54DD-6BE9-4383-803D-42A15BF32189";
paths = (
{
closed = 1;
nodes = (
"411 -10 LINE SMOOTH",
"580 -10 OFFCURVE",
"693 85 OFFCURVE",
"693 229 CURVE SMOOTH",
"693 285 OFFCURVE",
"660 335 OFFCURVE",
"609 357 CURVE",
"609 358 LINE",
"683 389 OFFCURVE",
"735 464 OFFCURVE",
"735 541 CURVE SMOOTH",
"735 639 OFFCURVE",
"654 700 OFFCURVE",
"524 700 CURVE SMOOTH",
"293 700 LINE SMOOTH",
"189 700 OFFCURVE",
"132 653 OFFCURVE",
"114 552 CURVE SMOOTH",
"42 142 LINE SMOOTH",
"25 55 OFFCURVE",
"82 -10 OFFCURVE",
"175 -10 CURVE SMOOTH"
);
},
{
closed = 1;
nodes = (
"181 92 OFFCURVE",
"167 111 OFFCURVE",
"173 141 CURVE SMOOTH",
"202 304 LINE",
"455 304 LINE SMOOTH",
"521 304 OFFCURVE",
"559 274 OFFCURVE",
"559 224 CURVE SMOOTH",
"559 144 OFFCURVE",
"503 92 OFFCURVE",
"417 92 CURVE SMOOTH",
"207 92 LINE SMOOTH"
);
},
{
closed = 1;
nodes = (
"245 549 LINE SMOOTH",
"250 580 OFFCURVE",
"269 598 OFFCURVE",
"296 598 CURVE SMOOTH",
"506 598 LINE SMOOTH",
"569 598 OFFCURVE",
"600 574 OFFCURVE",
"600 527 CURVE SMOOTH",
"600 454 OFFCURVE",
"548 405 OFFCURVE",
"472 405 CURVE SMOOTH",
"219 405 LINE"
);
}
);
width = 748;
}
);
leftKerningGroup = B;
note = B;
rightKerningGroup = B;
unicode = 0042;
},
{
glyphname = C;
lastChange = "2018-07-09 11:12:12 +0000";
layers = (
{
anchors = (
{
name = bottom;
position = "{402, 0}";
},
{
name = top;
position = "{402, 700}";
}
);
layerId = "0B1DFD06-3317-40CA-B510-4969A0718C16";
paths = (
{
closed = 1;
nodes = (
"515 -10 OFFCURVE",
"622 31 OFFCURVE",
"675 97 CURVE SMOOTH",
"684 108 OFFCURVE",
"684 123 OFFCURVE",
"673 133 CURVE SMOOTH",
"662 143 OFFCURVE",
"643 140 OFFCURVE",
"634 128 CURVE SMOOTH",
"592 71 OFFCURVE",
"507 39 OFFCURVE",
"400 39 CURVE SMOOTH",
"224 39 OFFCURVE",
"115 157 OFFCURVE",
"115 349 CURVE SMOOTH",
"115 541 OFFCURVE",
"224 661 OFFCURVE",
"400 661 CURVE SMOOTH",
"498 661 OFFCURVE",
"583 628 OFFCURVE",
"624 572 CURVE SMOOTH",
"632 561 OFFCURVE",
"650 558 OFFCURVE",
"663 567 CURVE SMOOTH",
"674 574 OFFCURVE",
"675 591 OFFCURVE",
"665 603 CURVE SMOOTH",
"610 670 OFFCURVE",
"512 710 OFFCURVE",
"400 710 CURVE SMOOTH",
"197 710 OFFCURVE",
"61 565 OFFCURVE",
"61 349 CURVE SMOOTH",
"61 134 OFFCURVE",
"197 -10 OFFCURVE",
"400 -10 CURVE SMOOTH"
);
}
);
width = 743;
},
{
anchors = (
{
name = bottom;
position = "{413, 0}";
},
{
name = top;
position = "{427, 700}";
}
);
layerId = "258BB4CE-589F-454F-8E39-237B943AA0B4";
paths = (
{
closed = 1;
nodes = (
"545 -10 OFFCURVE",
"656 33 OFFCURVE",
"714 107 CURVE SMOOTH",
"735 134 OFFCURVE",
"731 164 OFFCURVE",
"704 186 CURVE SMOOTH",
"678 206 OFFCURVE",
"646 200 OFFCURVE",
"614 169 CURVE SMOOTH",
"563 119 OFFCURVE",
"497 95 OFFCURVE",
"413 95 CURVE SMOOTH",
"267 95 OFFCURVE",
"180 189 OFFCURVE",
"180 349 CURVE SMOOTH",
"180 510 OFFCURVE",
"266 605 OFFCURVE",
"411 605 CURVE SMOOTH",
"498 605 OFFCURVE",
"555 583 OFFCURVE",
"600 531 CURVE SMOOTH",
"622 506 OFFCURVE",
"662 498 OFFCURVE",
"685 515 CURVE SMOOTH",
"714 536 OFFCURVE",
"720 565 OFFCURVE",
"700 593 CURVE SMOOTH",
"649 664 OFFCURVE",
"535 710 OFFCURVE",
"411 710 CURVE SMOOTH",
"185 710 OFFCURVE",
"46 572 OFFCURVE",
"46 349 CURVE SMOOTH",
"46 126 OFFCURVE",
"185 -10 OFFCURVE",
"413 -10 CURVE SMOOTH"
);
}
);
width = 773;
},
{
anchors = (
{
name = bottom;
position = "{403, 0}";
},
{
name = top;
position = "{407, 700}";
}
);
layerId = "8ED59CAD-D047-43C0-8308-3370007B39AA";
paths = (
{
closed = 1;
nodes = (
"522 -10 OFFCURVE",
"630 32 OFFCURVE",
"684 99 CURVE SMOOTH",
"697 116 OFFCURVE",
"695 134 OFFCURVE",
"679 148 CURVE SMOOTH",
"666 159 OFFCURVE",
"644 159 OFFCURVE",
"627 139 CURVE SMOOTH",
"584 87 OFFCURVE",
"507 54 OFFCURVE",
"402 54 CURVE SMOOTH",
"234 54 OFFCURVE",
"131 167 OFFCURVE",
"131 349 CURVE SMOOTH",
"131 533 OFFCURVE",
"234 646 OFFCURVE",
"401 646 CURVE SMOOTH",
"497 646 OFFCURVE",
"573 615 OFFCURVE",
"615 561 CURVE SMOOTH",
"627 546 OFFCURVE",
"651 541 OFFCURVE",
"667 552 CURVE SMOOTH",
"684 564 OFFCURVE",
"686 584 OFFCURVE",
"673 600 CURVE SMOOTH",
"618 670 OFFCURVE",
"515 710 OFFCURVE",
"401 710 CURVE SMOOTH",
"192 710 OFFCURVE",
"55 567 OFFCURVE",
"55 349 CURVE SMOOTH",
"55 132 OFFCURVE",
"192 -10 OFFCURVE",
"402 -10 CURVE SMOOTH"
);
}
);
width = 747;
},
{
anchors = (
{
name = bottom;
position = "{362, 0}";
},
{
name = top;
position = "{485, 700}";
}
);
layerId = "6D0DA379-F071-4911-97B5-1F20F456FBFD";
paths = (
{
closed = 1;
nodes = (
"474 -10 OFFCURVE",
"587 31 OFFCURVE",
"652 97 CURVE SMOOTH",
"659 104 OFFCURVE",
"662 111 OFFCURVE",
"662 118 CURVE SMOOTH",
"662 130 OFFCURVE",
"653 139 OFFCURVE",
"641 139 CURVE SMOOTH",
"632 139 OFFCURVE",
"623 135 OFFCURVE",
"617 128 CURVE SMOOTH",
"562 70 OFFCURVE",
"475 39 OFFCURVE",
"367 39 CURVE SMOOTH",
"214 39 OFFCURVE",
"129 121 OFFCURVE",
"129 267 CURVE SMOOTH",
"129 499 OFFCURVE",
"272 661 OFFCURVE",
"477 661 CURVE SMOOTH",
"586 661 OFFCURVE",
"650 634 OFFCURVE",
"685 572 CURVE SMOOTH",
"689 566 OFFCURVE",
"696 562 OFFCURVE",
"706 562 CURVE SMOOTH",
"723 562 OFFCURVE",
"735 574 OFFCURVE",
"735 589 CURVE SMOOTH",
"735 595 OFFCURVE",
"734 599 OFFCURVE",
"731 603 CURVE SMOOTH",
"689 670 OFFCURVE",
"597 710 OFFCURVE",
"485 710 CURVE SMOOTH",
"248 710 OFFCURVE",
"76 525 OFFCURVE",
"76 271 CURVE SMOOTH",
"76 99 OFFCURVE",
"185 -10 OFFCURVE",
"358 -10 CURVE SMOOTH"
);
}
);
width = 750;
},
{
anchors = (
{
name = bottom;
position = "{364, 0}";
},
{
name = top;
position = "{492, 700}";
}
);
layerId = "71BB0B28-5B77-4945-A3C0-334755DB3BD8";
paths = (
{
closed = 1;
nodes = (
"483 -10 OFFCURVE",
"597 32 OFFCURVE",
"663 100 CURVE SMOOTH",
"671 108 OFFCURVE",
"676 117 OFFCURVE",
"676 127 CURVE SMOOTH",
"676 142 OFFCURVE",
"662 155 OFFCURVE",
"648 155 CURVE SMOOTH",
"636 155 OFFCURVE",
"622 149 OFFCURVE",
"612 139 CURVE SMOOTH",
"557 84 OFFCURVE",
"474 54 OFFCURVE",
"373 54 CURVE SMOOTH",
"226 54 OFFCURVE",
"146 130 OFFCURVE",
"146 269 CURVE SMOOTH",
"146 486 OFFCURVE",
"287 646 OFFCURVE",
"476 646 CURVE SMOOTH",
"579 646 OFFCURVE",
"640 619 OFFCURVE",
"675 561 CURVE SMOOTH",
"681 552 OFFCURVE",
"692 546 OFFCURVE",
"705 546 CURVE SMOOTH",
"725 546 OFFCURVE",
"745 565 OFFCURVE",
"745 583 CURVE SMOOTH",
"745 588 OFFCURVE",
"743 594 OFFCURVE",
"740 600 CURVE",
"698 669 OFFCURVE",
"601 710 OFFCURVE",
"487 710 CURVE SMOOTH",
"245 710 OFFCURVE",
"71 526 OFFCURVE",
"71 271 CURVE SMOOTH",
"71 99 OFFCURVE",
"183 -10 OFFCURVE",
"361 -10 CURVE SMOOTH"
);
}
);
width = 754;
},
{
anchors = (
{
name = bottom;
position = "{373, 0}";
},
{
name = top;
position = "{511, 700}";
}
);
layerId = "D92B54DD-6BE9-4383-803D-42A15BF32189";
paths = (
{
closed = 1;
nodes = (
"512 -10 OFFCURVE",
"619 30 OFFCURVE",
"693 107 CURVE SMOOTH",
"706 120 OFFCURVE",
"713 135 OFFCURVE",
"713 150 CURVE SMOOTH",
"713 176 OFFCURVE",
"692 198 OFFCURVE",
"667 198 CURVE SMOOTH",
"648 198 OFFCURVE",
"627 188 OFFCURVE",
"604 169 CURVE SMOOTH",
"544 119 OFFCURVE",
"475 95 OFFCURVE",
"390 95 CURVE SMOOTH",
"261 95 OFFCURVE",
"194 157 OFFCURVE",
"194 276 CURVE SMOOTH",
"194 472 OFFCURVE",
"309 605 OFFCURVE",
"478 605 CURVE SMOOTH",
"565 605 OFFCURVE",
"617 583 OFFCURVE",
"654 531 CURVE SMOOTH",
"664 516 OFFCURVE",
"684 506 OFFCURVE",
"704 506 CURVE SMOOTH",
"738 506 OFFCURVE",
"771 537 OFFCURVE",
"771 569 CURVE SMOOTH",
"771 577 OFFCURVE",
"769 585 OFFCURVE",
"765 593 CURVE SMOOTH",
"727 662 OFFCURVE",
"614 710 OFFCURVE",
"488 710 CURVE SMOOTH",
"232 710 OFFCURVE",
"61 537 OFFCURVE",
"61 279 CURVE SMOOTH",
"61 104 OFFCURVE",
"186 -10 OFFCURVE",
"378 -10 CURVE SMOOTH"
);
}
);
width = 781;
}
);
leftKerningGroup = C;
note = C;
rightKerningGroup = C;
unicode = 0043;
},
{
glyphname = D;
lastChange = "2018-07-09 11:12:12 +0000";
layers = (
{
anchors = (
{
name = bottom;
position = "{368, 0}";
},
{
name = center;
position = "{368, 350}";
},
{
name = top;
position = "{338, 700}";
}
);
layerId = "0B1DFD06-3317-40CA-B510-4969A0718C16";
paths = (
{
closed = 1;
nodes = (
"343 0 LINE SMOOTH",
"544 0 OFFCURVE",
"675 138 OFFCURVE",
"675 349 CURVE SMOOTH",
"675 561 OFFCURVE",
"543 700 OFFCURVE",
"343 700 CURVE SMOOTH",
"202 700 LINE",
"129 700 OFFCURVE",
"86 659 OFFCURVE",
"86 590 CURVE SMOOTH",
"86 110 LINE SMOOTH",
"86 41 OFFCURVE",
"129 0 OFFCURVE",
"202 0 CURVE SMOOTH"
);
},
{
closed = 1;
nodes = (
"161 47 OFFCURVE",
"139 71 OFFCURVE",
"139 107 CURVE SMOOTH",
"139 593 LINE SMOOTH",
"139 629 OFFCURVE",
"161 653 OFFCURVE",
"196 653 CURVE SMOOTH",
"333 653 LINE SMOOTH",
"512 653 OFFCURVE",
"621 538 OFFCURVE",
"621 349 CURVE SMOOTH",
"621 160 OFFCURVE",
"513 47 OFFCURVE",
"333 47 CURVE SMOOTH",
"196 47 LINE"
);
}
);
width = 736;
},
{
anchors = (
{
name = bottom;
position = "{384, 0}";
},
{
name = center;
position = "{384, 350}";
},
{
name = top;
position = "{364, 700}";
}
);
layerId = "258BB4CE-589F-454F-8E39-237B943AA0B4";
paths = (
{
closed = 1;
nodes = (
"349 0 LINE SMOOTH",
"582 0 OFFCURVE",
"721 130 OFFCURVE",
"721 349 CURVE SMOOTH",
"721 568 OFFCURVE",
"581 700 OFFCURVE",
"349 700 CURVE SMOOTH",
"209 700 LINE SMOOTH",
"113 700 OFFCURVE",
"56 645 OFFCURVE",
"56 552 CURVE SMOOTH",
"56 152 LINE SMOOTH",
"56 56 OFFCURVE",
"115 0 OFFCURVE",
"216 0 CURVE SMOOTH"
);
},
{
closed = 1;
nodes = (
"205 103 OFFCURVE",
"189 121 OFFCURVE",
"189 152 CURVE SMOOTH",
"189 548 LINE SMOOTH",
"189 579 OFFCURVE",
"205 597 OFFCURVE",
"232 597 CURVE SMOOTH",
"339 597 LINE SMOOTH",
"505 597 OFFCURVE",
"586 515 OFFCURVE",
"586 349 CURVE SMOOTH",
"586 183 OFFCURVE",
"506 103 OFFCURVE",
"339 103 CURVE SMOOTH",
"232 103 LINE SMOOTH"
);
}
);
width = 767;
},
{
anchors = (
{
name = bottom;
position = "{375, 0}";
},
{
name = center;
position = "{375, 350}";
},
{
name = top;
position = "{345, 700}";
}
);
layerId = "8ED59CAD-D047-43C0-8308-3370007B39AA";
paths = (
{
closed = 1;
nodes = (
"347 0 LINE SMOOTH",
"557 0 OFFCURVE",
"690 136 OFFCURVE",
"690 349 CURVE SMOOTH",
"690 562 OFFCURVE",
"556 700 OFFCURVE",
"347 700 CURVE SMOOTH",
"207 700 LINE",
"127 700 OFFCURVE",
"80 654 OFFCURVE",
"80 580 CURVE SMOOTH",
"80 122 LINE SMOOTH",
"80 46 OFFCURVE",
"127 0 OFFCURVE",
"209 0 CURVE SMOOTH"
);
},
{
closed = 1;
nodes = (
"176 62 OFFCURVE",
"155 85 OFFCURVE",
"155 120 CURVE SMOOTH",
"155 580 LINE SMOOTH",
"155 615 OFFCURVE",
"176 638 OFFCURVE",
"208 638 CURVE SMOOTH",
"337 638 LINE SMOOTH",
"512 638 OFFCURVE",
"614 532 OFFCURVE",
"614 349 CURVE SMOOTH",
"614 166 OFFCURVE",
"513 62 OFFCURVE",
"337 62 CURVE SMOOTH",
"208 62 LINE"
);
}
);
width = 746;
},
{
anchors = (
{
name = bottom;
position = "{329, 0}";
},
{
name = center;
position = "{391, 350}";
},
{
name = top;
position = "{422, 700}";
}
);
layerId = "6D0DA379-F071-4911-97B5-1F20F456FBFD";
paths = (
{
closed = 1;
nodes = (
"309 0 LINE SMOOTH",
"537 0 OFFCURVE",
"706 183 OFFCURVE",
"706 430 CURVE SMOOTH",
"706 595 OFFCURVE",
"597 700 OFFCURVE",
"425 700 CURVE SMOOTH",
"286 700 LINE SMOOTH",
"210 700 OFFCURVE",
"164 663 OFFCURVE",
"151 590 CURVE SMOOTH",
"66 110 LINE SMOOTH",
"56 41 OFFCURVE",
"93 0 OFFCURVE",
"163 0 CURVE SMOOTH"
);
},
{
closed = 1;
nodes = (
"131 47 OFFCURVE",
"112 72 OFFCURVE",
"119 107 CURVE SMOOTH",
"205 593 LINE SMOOTH",
"211 629 OFFCURVE",
"237 653 OFFCURVE",
"272 653 CURVE SMOOTH",
"409 653 LINE SMOOTH",
"568 653 OFFCURVE",
"651 577 OFFCURVE",
"651 432 CURVE SMOOTH",
"651 198 OFFCURVE",
"514 47 OFFCURVE",
"302 47 CURVE SMOOTH",
"165 47 LINE"
);
}
);
width = 745;
},
{
anchors = (
{
name = bottom;
position = "{338, 0}";
},
{
name = center;
position = "{400, 350}";
},
{
name = top;
position = "{432, 700}";
}
);
layerId = "71BB0B28-5B77-4945-A3C0-334755DB3BD8";
paths = (
{
closed = 1;
nodes = (
"317 0 LINE SMOOTH",
"551 0 OFFCURVE",
"722 180 OFFCURVE",
"722 429 CURVE SMOOTH",
"722 596 OFFCURVE",
"612 700 OFFCURVE",
"432 700 CURVE SMOOTH",
"292 700 LINE",
"213 700 OFFCURVE",
"159 658 OFFCURVE",
"145 580 CURVE SMOOTH",
"64 122 LINE SMOOTH",
"51 47 OFFCURVE",
"91 0 OFFCURVE",
"172 0 CURVE SMOOTH"
);
},
{
closed = 1;
nodes = (
"150 62 OFFCURVE",
"133 86 OFFCURVE",
"139 119 CURVE SMOOTH",
"220 580 LINE SMOOTH",
"226 615 OFFCURVE",
"251 638 OFFCURVE",
"283 638 CURVE SMOOTH",
"412 638 LINE SMOOTH",
"569 638 OFFCURVE",
"646 570 OFFCURVE",
"646 433 CURVE SMOOTH",
"646 207 OFFCURVE",
"514 62 OFFCURVE",
"311 62 CURVE SMOOTH",
"182 62 LINE"
);
}
);
width = 755;
},
{
anchors = (
{
name = bottom;
position = "{345, 0}";
},
{
name = center;
position = "{407, 350}";
},
{
name = top;
position = "{449, 700}";
}
);
layerId = "D92B54DD-6BE9-4383-803D-42A15BF32189";
paths = (
{
closed = 1;
nodes = (
"315 0 LINE SMOOTH",
"581 0 OFFCURVE",
"751 165 OFFCURVE",
"751 422 CURVE SMOOTH",
"751 594 OFFCURVE",
"628 700 OFFCURVE",
"428 700 CURVE SMOOTH",
"293 700 LINE SMOOTH",
"190 700 OFFCURVE",
"132 653 OFFCURVE",
"114 552 CURVE SMOOTH",
"44 152 LINE SMOOTH",
"29 54 OFFCURVE",
"76 0 OFFCURVE",
"177 0 CURVE SMOOTH"
);
},
{
closed = 1;
nodes = (
"185 103 OFFCURVE",
"171 122 OFFCURVE",
"177 152 CURVE SMOOTH",
"247 548 LINE SMOOTH",
"252 579 OFFCURVE",
"271 597 OFFCURVE",
"298 597 CURVE SMOOTH",
"405 597 LINE SMOOTH",
"546 597 OFFCURVE",
"615 538 OFFCURVE",
"615 418 CURVE SMOOTH",
"615 218 OFFCURVE",
"507 103 OFFCURVE",
"318 103 CURVE SMOOTH",
"211 103 LINE SMOOTH"
);
}
);
width = 776;
}
);
note = D;
rightKerningGroup = D;
unicode = 0044;
},
{
glyphname = E;
lastChange = "2018-07-09 11:12:12 +0000";
layers = (
{
anchors = (
{
name = bottom;
position = "{342, 0}";
},
{
name = ogonek;
position = "{501, 10}";
},
{
name = top;
position = "{333, 700}";
},
{
name = topleft;
position = "{31, 700}";
}
);
layerId = "0B1DFD06-3317-40CA-B510-4969A0718C16";
paths = (
{
closed = 1;
nodes = (
"534 0 LINE SMOOTH",
"554 0 OFFCURVE",
"564 8 OFFCURVE",
"564 23 CURVE SMOOTH",
"564 40 OFFCURVE",
"555 47 OFFCURVE",
"534 47 CURVE SMOOTH",
"196 47 LINE SMOOTH",
"161 47 OFFCURVE",
"139 71 OFFCURVE",
"139 107 CURVE SMOOTH",
"139 334 LINE",
"436 334 LINE SMOOTH",
"456 334 OFFCURVE",
"466 342 OFFCURVE",
"466 357 CURVE SMOOTH",
"466 374 OFFCURVE",
"457 381 OFFCURVE",
"436 381 CURVE SMOOTH",
"139 381 LINE",
"139 593 LINE SMOOTH",
"139 629 OFFCURVE",
"161 653 OFFCURVE",
"196 653 CURVE SMOOTH",
"512 653 LINE SMOOTH",
"532 653 OFFCURVE",
"542 661 OFFCURVE",
"542 676 CURVE SMOOTH",
"542 693 OFFCURVE",
"533 700 OFFCURVE",
"512 700 CURVE SMOOTH",
"202 700 LINE SMOOTH",
"129 700 OFFCURVE",
"86 659 OFFCURVE",
"86 590 CURVE SMOOTH",
"86 110 LINE SMOOTH",
"86 41 OFFCURVE",
"129 0 OFFCURVE",
"202 0 CURVE SMOOTH"
);
}
);
width = 625;
},
{
anchors = (
{
name = bottom;
position = "{358, 0}";
},
{
name = ogonek;
position = "{504, 10}";
},
{
name = top;
position = "{343, 700}";
},
{
name = topleft;
position = "{41, 700}";
}
);
layerId = "258BB4CE-589F-454F-8E39-237B943AA0B4";
paths = (
{
closed = 1;
nodes = (
"542 0 LINE SMOOTH",
"581 0 OFFCURVE",
"604 19 OFFCURVE",
"604 51 CURVE SMOOTH",
"604 84 OFFCURVE",
"582 103 OFFCURVE",
"542 103 CURVE SMOOTH",
"232 103 LINE SMOOTH",
"205 103 OFFCURVE",
"189 121 OFFCURVE",
"189 152 CURVE SMOOTH",
"189 306 LINE",
"444 306 LINE SMOOTH",
"483 306 OFFCURVE",
"506 325 OFFCURVE",
"506 357 CURVE SMOOTH",
"506 390 OFFCURVE",
"484 409 OFFCURVE",
"444 409 CURVE SMOOTH",
"189 409 LINE",
"189 548 LINE SMOOTH",
"189 579 OFFCURVE",
"205 597 OFFCURVE",
"232 597 CURVE SMOOTH",
"520 597 LINE SMOOTH",
"559 597 OFFCURVE",
"582 616 OFFCURVE",
"582 648 CURVE SMOOTH",
"582 681 OFFCURVE",
"560 700 OFFCURVE",
"520 700 CURVE SMOOTH",
"209 700 LINE SMOOTH",
"113 700 OFFCURVE",
"56 645 OFFCURVE",
"56 552 CURVE SMOOTH",
"56 152 LINE SMOOTH",
"56 56 OFFCURVE",
"115 0 OFFCURVE",
"216 0 CURVE SMOOTH"
);
}
);
width = 650;
},
{
anchors = (
{
name = bottom;
position = "{341, 0}";
},
{
name = ogonek;
position = "{502, 10}";
},
{
name = top;
position = "{338, 700}";
},
{
name = topleft;
position = "{36, 700}";
}
);
layerId = "8ED59CAD-D047-43C0-8308-3370007B39AA";
paths = (
{
closed = 1;
nodes = (
"539 0 LINE SMOOTH",
"563 0 OFFCURVE",
"578 11 OFFCURVE",
"578 31 CURVE SMOOTH",
"578 52 OFFCURVE",
"564 62 OFFCURVE",
"539 62 CURVE SMOOTH",
"208 62 LINE SMOOTH",
"176 62 OFFCURVE",
"155 85 OFFCURVE",
"155 120 CURVE SMOOTH",
"155 326 LINE",
"441 326 LINE SMOOTH",
"465 326 OFFCURVE",
"480 337 OFFCURVE",
"480 357 CURVE SMOOTH",
"480 378 OFFCURVE",
"467 389 OFFCURVE",
"441 389 CURVE SMOOTH",
"155 389 LINE",
"155 580 LINE SMOOTH",
"155 615 OFFCURVE",
"176 638 OFFCURVE",
"208 638 CURVE SMOOTH",
"517 638 LINE SMOOTH",
"542 638 OFFCURVE",
"556 649 OFFCURVE",
"556 668 CURVE SMOOTH",
"556 689 OFFCURVE",
"543 700 OFFCURVE",
"517 700 CURVE SMOOTH",
"207 700 LINE SMOOTH",
"127 700 OFFCURVE",
"80 654 OFFCURVE",
"80 580 CURVE SMOOTH",
"80 122 LINE SMOOTH",
"80 45 OFFCURVE",
"128 0 OFFCURVE",
"209 0 CURVE SMOOTH"
);
}
);
width = 633;
},
{
anchors = (
{
name = bottom;
position = "{273, 0}";
},
{
name = ogonek;
position = "{477, 10}";
},
{
name = top;
position = "{416, 700}";
},
{
name = topleft;
position = "{114, 700}";
}
);
layerId = "6D0DA379-F071-4911-97B5-1F20F456FBFD";
paths = (
{
closed = 1;
nodes = (
"495 0 LINE SMOOTH",
"515 0 OFFCURVE",
"526 8 OFFCURVE",
"529 23 CURVE SMOOTH",
"533 39 OFFCURVE",
"524 47 OFFCURVE",
"503 47 CURVE SMOOTH",
"165 47 LINE SMOOTH",
"127 47 OFFCURVE",
"112 66 OFFCURVE",
"119 107 CURVE SMOOTH",
"159 334 LINE",
"456 334 LINE SMOOTH",
"476 334 OFFCURVE",
"487 342 OFFCURVE",
"490 357 CURVE SMOOTH",
"494 373 OFFCURVE",
"485 381 OFFCURVE",
"464 381 CURVE SMOOTH",
"167 381 LINE",
"205 593 LINE SMOOTH",
"211 629 OFFCURVE",
"237 653 OFFCURVE",
"272 653 CURVE SMOOTH",
"588 653 LINE SMOOTH",
"608 653 OFFCURVE",
"620 661 OFFCURVE",
"622 676 CURVE SMOOTH",
"624 693 OFFCURVE",
"616 700 OFFCURVE",
"596 700 CURVE SMOOTH",
"281 700 LINE SMOOTH",
"210 700 OFFCURVE",
"164 661 OFFCURVE",
"151 590 CURVE SMOOTH",
"66 110 LINE SMOOTH",
"54 44 OFFCURVE",
"93 0 OFFCURVE",
"163 0 CURVE SMOOTH"
);
}
);
width = 633;
},
{
anchors = (
{
name = bottom;
position = "{280, 0}";
},
{
name = ogonek;
position = "{466, 10}";
},
{
name = top;
position = "{424, 700}";
},
{
name = topleft;
position = "{121, 700}";
}
);
layerId = "71BB0B28-5B77-4945-A3C0-334755DB3BD8";
paths = (
{
closed = 1;
nodes = (
"500 0 LINE SMOOTH",
"526 0 OFFCURVE",
"541 11 OFFCURVE",
"545 31 CURVE SMOOTH",
"549 52 OFFCURVE",
"538 62 OFFCURVE",
"511 62 CURVE SMOOTH",
"181 62 LINE SMOOTH",
"145 62 OFFCURVE",
"132 87 OFFCURVE",
"138 120 CURVE SMOOTH",
"175 326 LINE",
"460 326 LINE SMOOTH",
"485 326 OFFCURVE",
"501 337 OFFCURVE",
"505 358 CURVE SMOOTH",
"509 379 OFFCURVE",
"495 389 OFFCURVE",
"471 389 CURVE SMOOTH",
"186 389 LINE",
"219 580 LINE SMOOTH",
"225 615 OFFCURVE",
"251 638 OFFCURVE",
"282 638 CURVE SMOOTH",
"591 638 LINE SMOOTH",
"615 638 OFFCURVE",
"631 647 OFFCURVE",
"635 668 CURVE SMOOTH",
"639 690 OFFCURVE",
"628 700 OFFCURVE",
"601 700 CURVE SMOOTH",
"283 700 LINE SMOOTH",
"206 700 OFFCURVE",
"158 658 OFFCURVE",
"144 580 CURVE SMOOTH",
"63 122 LINE SMOOTH",
"50 48 OFFCURVE",
"92 0 OFFCURVE",
"171 0 CURVE SMOOTH"
);
}
);
width = 641;
},
{
anchors = (
{
name = bottom;
position = "{284, 0}";
},
{
name = ogonek;
position = "{475, 10}";
},
{
name = top;
position = "{428, 700}";
},
{
name = topleft;
position = "{125, 700}";
}
);
layerId = "D92B54DD-6BE9-4383-803D-42A15BF32189";
paths = (
{
closed = 1;
nodes = (
"503 0 LINE SMOOTH",
"542 0 OFFCURVE",
"568 19 OFFCURVE",
"574 51 CURVE SMOOTH",
"580 84 OFFCURVE",
"561 103 OFFCURVE",
"521 103 CURVE SMOOTH",
"211 103 LINE SMOOTH",
"184 103 OFFCURVE",
"171 121 OFFCURVE",
"177 152 CURVE SMOOTH",
"204 306 LINE",
"459 306 LINE SMOOTH",
"498 306 OFFCURVE",
"524 325 OFFCURVE",
"530 357 CURVE SMOOTH",
"536 390 OFFCURVE",
"517 409 OFFCURVE",
"477 409 CURVE SMOOTH",
"222 409 LINE",
"247 548 LINE SMOOTH",
"252 579 OFFCURVE",
"271 597 OFFCURVE",
"298 597 CURVE SMOOTH",
"586 597 LINE SMOOTH",
"625 597 OFFCURVE",
"651 616 OFFCURVE",
"657 648 CURVE SMOOTH",
"663 681 OFFCURVE",
"644 700 OFFCURVE",
"604 700 CURVE SMOOTH",
"284 700 LINE SMOOTH",
"191 700 OFFCURVE",
"132 648 OFFCURVE",
"114 552 CURVE SMOOTH",
"44 152 LINE SMOOTH",
"27 56 OFFCURVE",
"76 0 OFFCURVE",
"177 0 CURVE SMOOTH"
);
}
);
width = 658;
}
);
note = E;
rightKerningGroup = E;
unicode = 0045;
},
{
glyphname = F;
lastChange = "2018-07-09 11:12:12 +0000";
layers = (
{
anchors = (
{
name = bottom;
position = "{302, 0}";
},
{
name = top;
position = "{302, 700}";
}
);
layerId = "0B1DFD06-3317-40CA-B510-4969A0718C16";
paths = (
{
closed = 1;
nodes = (
"129 -10 OFFCURVE",
"139 1 OFFCURVE",
"139 22 CURVE SMOOTH",
"139 324 LINE",
"436 324 LINE SMOOTH",
"456 324 OFFCURVE",
"466 332 OFFCURVE",
"466 347 CURVE SMOOTH",
"466 364 OFFCURVE",
"457 371 OFFCURVE",
"436 371 CURVE SMOOTH",
"139 371 LINE",
"139 593 LINE SMOOTH",
"139 629 OFFCURVE",
"161 653 OFFCURVE",
"196 653 CURVE SMOOTH",
"512 653 LINE SMOOTH",
"532 653 OFFCURVE",
"542 661 OFFCURVE",
"542 676 CURVE SMOOTH",
"542 693 OFFCURVE",
"533 700 OFFCURVE",
"512 700 CURVE SMOOTH",
"202 700 LINE SMOOTH",
"129 700 OFFCURVE",
"86 659 OFFCURVE",
"86 590 CURVE SMOOTH",
"86 22 LINE SMOOTH",
"86 1 OFFCURVE",
"95 -10 OFFCURVE",
"112 -10 CURVE SMOOTH"
);
}
);
width = 603;
},
{
anchors = (
{
name = bottom;
position = "{302, 0}";
},
{
name = top;
position = "{302, 700}";
}
);
layerId = "258BB4CE-589F-454F-8E39-237B943AA0B4";
paths = (
{
closed = 1;
nodes = (
"162 -10 OFFCURVE",
"189 14 OFFCURVE",
"189 50 CURVE SMOOTH",
"189 296 LINE",
"444 296 LINE SMOOTH",
"483 296 OFFCURVE",
"506 315 OFFCURVE",
"506 347 CURVE SMOOTH",
"506 380 OFFCURVE",
"484 399 OFFCURVE",
"444 399 CURVE SMOOTH",
"189 399 LINE",
"189 548 LINE SMOOTH",
"189 579 OFFCURVE",
"205 597 OFFCURVE",
"232 597 CURVE SMOOTH",
"520 597 LINE SMOOTH",
"559 597 OFFCURVE",
"582 616 OFFCURVE",
"582 648 CURVE SMOOTH",
"582 681 OFFCURVE",
"560 700 OFFCURVE",
"520 700 CURVE SMOOTH",
"209 700 LINE SMOOTH",
"113 700 OFFCURVE",
"56 645 OFFCURVE",
"56 552 CURVE SMOOTH",
"56 50 LINE SMOOTH",
"56 13 OFFCURVE",
"82 -10 OFFCURVE",
"122 -10 CURVE SMOOTH"
);
}
);
width = 618;
},
{
anchors = (
{
name = bottom;
position = "{304, 0}";
},
{
name = top;
position = "{304, 700}";
}
);
layerId = "8ED59CAD-D047-43C0-8308-3370007B39AA";
paths = (
{
closed = 1;
nodes = (
"141 -10 OFFCURVE",
"155 5 OFFCURVE",
"155 30 CURVE SMOOTH",
"155 316 LINE",
"441 316 LINE SMOOTH",
"465 316 OFFCURVE",
"480 327 OFFCURVE",
"480 347 CURVE SMOOTH",
"480 368 OFFCURVE",
"467 379 OFFCURVE",
"441 379 CURVE SMOOTH",
"155 379 LINE",
"155 580 LINE SMOOTH",
"155 615 OFFCURVE",
"176 638 OFFCURVE",
"208 638 CURVE SMOOTH",
"517 638 LINE SMOOTH",
"542 638 OFFCURVE",
"556 649 OFFCURVE",
"556 668 CURVE SMOOTH",
"556 689 OFFCURVE",
"543 700 OFFCURVE",
"517 700 CURVE SMOOTH",
"207 700 LINE SMOOTH",
"127 700 OFFCURVE",
"80 654 OFFCURVE",
"80 580 CURVE SMOOTH",
"80 30 LINE SMOOTH",
"80 5 OFFCURVE",
"94 -10 OFFCURVE",
"117 -10 CURVE SMOOTH"
);
}
);
width = 611;
},
{
anchors = (
{
name = bottom;
position = "{263, 0}";
},
{
name = top;
position = "{386, 700}";
}
);
layerId = "6D0DA379-F071-4911-97B5-1F20F456FBFD";
paths = (
{
closed = 1;
nodes = (
"88 -10 OFFCURVE",
"100 1 OFFCURVE",
"104 22 CURVE SMOOTH",
"157 324 LINE",
"454 324 LINE SMOOTH",
"474 324 OFFCURVE",
"486 332 OFFCURVE",
"488 347 CURVE SMOOTH",
"491 364 OFFCURVE",
"483 371 OFFCURVE",
"462 371 CURVE SMOOTH",
"165 371 LINE",
"205 593 LINE SMOOTH",
"211 629 OFFCURVE",
"237 653 OFFCURVE",
"272 653 CURVE SMOOTH",
"588 653 LINE SMOOTH",
"608 653 OFFCURVE",
"620 661 OFFCURVE",
"622 676 CURVE SMOOTH",
"625 693 OFFCURVE",
"617 700 OFFCURVE",
"596 700 CURVE SMOOTH",
"286 700 LINE SMOOTH",
"211 700 OFFCURVE",
"164 662 OFFCURVE",
"151 590 CURVE SMOOTH",
"51 22 LINE SMOOTH",
"47 1 OFFCURVE",
"54 -10 OFFCURVE",
"71 -10 CURVE SMOOTH"
);
}
);
width = 611;
},
{
anchors = (
{
name = bottom;
position = "{267, 0}";
},
{
name = top;
position = "{390, 700}";
}
);
layerId = "71BB0B28-5B77-4945-A3C0-334755DB3BD8";
paths = (
{
closed = 1;
nodes = (
"102 -10 OFFCURVE",
"119 6 OFFCURVE",
"123 30 CURVE SMOOTH",
"174 316 LINE",
"459 316 LINE SMOOTH",
"483 316 OFFCURVE",
"499 326 OFFCURVE",
"503 346 CURVE SMOOTH",
"508 372 OFFCURVE",
"492 379 OFFCURVE",
"469 379 CURVE SMOOTH",
"184 379 LINE",
"220 581 LINE SMOOTH",
"226 615 OFFCURVE",
"251 638 OFFCURVE",
"283 638 CURVE SMOOTH",
"591 638 LINE SMOOTH",
"617 638 OFFCURVE",
"632 648 OFFCURVE",
"636 669 CURVE SMOOTH",
"640 690 OFFCURVE",
"628 700 OFFCURVE",
"602 700 CURVE SMOOTH",
"285 700 LINE SMOOTH",
"208 700 OFFCURVE",
"159 659 OFFCURVE",
"145 579 CURVE SMOOTH",
"48 30 LINE SMOOTH",
"43 2 OFFCURVE",
"57 -10 OFFCURVE",
"78 -10 CURVE SMOOTH"
);
}
);
width = 619;
},
{
anchors = (
{
name = bottom;
position = "{263, 0}";
},
{
name = top;
position = "{386, 700}";
}
);
layerId = "D92B54DD-6BE9-4383-803D-42A15BF32189";
paths = (
{
closed = 1;
nodes = (
"121 -10 OFFCURVE",
"152 14 OFFCURVE",
"159 50 CURVE SMOOTH",
"202 296 LINE",
"457 296 LINE SMOOTH",
"496 296 OFFCURVE",
"522 315 OFFCURVE",
"528 347 CURVE SMOOTH",
"534 380 OFFCURVE",
"515 399 OFFCURVE",
"475 399 CURVE SMOOTH",
"220 399 LINE",
"247 548 LINE SMOOTH",
"252 579 OFFCURVE",
"271 597 OFFCURVE",
"298 597 CURVE SMOOTH",
"586 597 LINE SMOOTH",
"625 597 OFFCURVE",
"651 616 OFFCURVE",
"657 648 CURVE SMOOTH",
"663 681 OFFCURVE",
"644 700 OFFCURVE",
"604 700 CURVE SMOOTH",
"283 700 LINE SMOOTH",
"190 700 OFFCURVE",
"132 649 OFFCURVE",
"114 552 CURVE SMOOTH",
"26 50 LINE SMOOTH",
"19 13 OFFCURVE",
"41 -10 OFFCURVE",
"81 -10 CURVE SMOOTH"
);
}
);
width = 626;
}
);
note = F;
unicode = 0046;
},
{
glyphname = G;
lastChange = "2018-07-09 11:12:12 +0000";
layers = (
{
anchors = (
{
name = bottom;
position = "{382, 0}";
},
{
name = top;
position = "{382, 700}";
}
);
layerId = "0B1DFD06-3317-40CA-B510-4969A0718C16";
paths = (
{
closed = 1;
nodes = (
"571 -10 OFFCURVE",
"702 93 OFFCURVE",
"702 223 CURVE SMOOTH",
"702 261 LINE SMOOTH",
"702 330 OFFCURVE",
"665 363 OFFCURVE",
"589 363 CURVE SMOOTH",
"435 363 LINE SMOOTH",
"414 363 OFFCURVE",
"405 356 OFFCURVE",
"405 339 CURVE SMOOTH",
"405 324 OFFCURVE",
"415 316 OFFCURVE",
"435 316 CURVE SMOOTH",
"595 316 LINE SMOOTH",
"635 316 OFFCURVE",
"649 302 OFFCURVE",
"649 260 CURVE SMOOTH",
"649 222 LINE SMOOTH",
"649 116 OFFCURVE",
"545 39 OFFCURVE",
"404 39 CURVE SMOOTH",
"224 39 OFFCURVE",
"115 156 OFFCURVE",
"115 349 CURVE SMOOTH",
"115 542 OFFCURVE",
"225 661 OFFCURVE",
"405 661 CURVE SMOOTH",
"503 661 OFFCURVE",
"588 628 OFFCURVE",
"629 572 CURVE SMOOTH",
"637 561 OFFCURVE",
"655 558 OFFCURVE",
"668 567 CURVE SMOOTH",
"679 574 OFFCURVE",
"680 591 OFFCURVE",
"670 603 CURVE SMOOTH",
"615 670 OFFCURVE",
"517 710 OFFCURVE",
"405 710 CURVE SMOOTH",
"198 710 OFFCURVE",
"61 566 OFFCURVE",
"61 349 CURVE SMOOTH",
"61 132 OFFCURVE",
"197 -10 OFFCURVE",
"404 -10 CURVE SMOOTH"
);
}
);
width = 763;
},
{
anchors = (
{
name = bottom;
position = "{412, 0}";
},
{
name = top;
position = "{412, 700}";
}
);
layerId = "258BB4CE-589F-454F-8E39-237B943AA0B4";
paths = (
{
closed = 1;
nodes = (
"607 -10 OFFCURVE",
"740 95 OFFCURVE",
"740 248 CURVE SMOOTH",
"740 287 LINE SMOOTH",
"740 357 OFFCURVE",
"705 389 OFFCURVE",
"628 389 CURVE SMOOTH",
"434 389 LINE SMOOTH",
"396 389 OFFCURVE",
"374 370 OFFCURVE",
"374 337 CURVE SMOOTH",
"374 305 OFFCURVE",
"396 286 OFFCURVE",
"434 286 CURVE SMOOTH",
"565 286 LINE SMOOTH",
"596 286 OFFCURVE",
"607 277 OFFCURVE",
"607 249 CURVE SMOOTH",
"607 227 LINE SMOOTH",
"607 144 OFFCURVE",
"535 95 OFFCURVE",
"413 95 CURVE SMOOTH",
"267 95 OFFCURVE",
"180 189 OFFCURVE",
"180 349 CURVE SMOOTH",
"180 510 OFFCURVE",
"266 605 OFFCURVE",
"411 605 CURVE SMOOTH",
"498 605 OFFCURVE",
"555 583 OFFCURVE",
"600 531 CURVE SMOOTH",
"622 506 OFFCURVE",
"662 498 OFFCURVE",
"685 515 CURVE SMOOTH",
"714 536 OFFCURVE",
"720 565 OFFCURVE",
"700 593 CURVE SMOOTH",
"649 664 OFFCURVE",
"535 710 OFFCURVE",
"411 710 CURVE SMOOTH",
"185 710 OFFCURVE",
"46 572 OFFCURVE",
"46 349 CURVE SMOOTH",
"46 126 OFFCURVE",
"185 -10 OFFCURVE",
"413 -10 CURVE SMOOTH"
);
}
);
width = 786;
},
{
anchors = (
{
name = bottom;
position = "{388, 0}";
},
{
name = top;
position = "{388, 700}";
}
);
layerId = "8ED59CAD-D047-43C0-8308-3370007B39AA";
paths = (
{
closed = 1;
nodes = (
"578 -10 OFFCURVE",
"710 94 OFFCURVE",
"710 230 CURVE SMOOTH",
"710 268 LINE SMOOTH",
"710 337 OFFCURVE",
"673 370 OFFCURVE",
"597 370 CURVE SMOOTH",
"432 370 LINE SMOOTH",
"406 370 OFFCURVE",
"394 359 OFFCURVE",
"394 338 CURVE SMOOTH",
"394 318 OFFCURVE",
"408 308 OFFCURVE",
"432 308 CURVE SMOOTH",
"584 308 LINE SMOOTH",
"625 308 OFFCURVE",
"634 291 OFFCURVE",
"634 257 CURVE SMOOTH",
"634 223 LINE SMOOTH",
"634 124 OFFCURVE",
"539 54 OFFCURVE",
"404 54 CURVE SMOOTH",
"233 54 OFFCURVE",
"130 165 OFFCURVE",
"130 349 CURVE SMOOTH",
"130 533 OFFCURVE",
"235 646 OFFCURVE",
"404 646 CURVE SMOOTH",
"502 646 OFFCURVE",
"577 613 OFFCURVE",
"617 562 CURVE SMOOTH",
"630 546 OFFCURVE",
"654 541 OFFCURVE",
"670 552 CURVE SMOOTH",
"686 563 OFFCURVE",
"688 584 OFFCURVE",
"675 601 CURVE SMOOTH",
"622 669 OFFCURVE",
"517 710 OFFCURVE",
"404 710 CURVE SMOOTH",
"192 710 OFFCURVE",
"54 568 OFFCURVE",
"54 349 CURVE SMOOTH",
"54 131 OFFCURVE",
"191 -10 OFFCURVE",
"404 -10 CURVE SMOOTH"
);
}
);
width = 764;
},
{
anchors = (
{
name = bottom;
position = "{342, 0}";
},
{
name = top;
position = "{465, 700}";
}
);
layerId = "6D0DA379-F071-4911-97B5-1F20F456FBFD";
paths = (
{
closed = 1;
nodes = (
"544 -10 OFFCURVE",
"676 83 OFFCURVE",
"701 223 CURVE SMOOTH",
"708 261 LINE SMOOTH",
"710 280 OFFCURVE",
"710 279 OFFCURVE",
"710 284 CURVE SMOOTH",
"710 335 OFFCURVE",
"675 363 OFFCURVE",
"613 363 CURVE SMOOTH",
"459 363 LINE SMOOTH",
"435 363 OFFCURVE",
"424 354 OFFCURVE",
"424 334 CURVE SMOOTH",
"424 322 OFFCURVE",
"434 316 OFFCURVE",
"451 316 CURVE SMOOTH",
"611 316 LINE SMOOTH",
"652 316 OFFCURVE",
"661 304 OFFCURVE",
"655 260 CURVE SMOOTH",
"648 222 LINE SMOOTH",
"630 115 OFFCURVE",
"519 39 OFFCURVE",
"381 39 CURVE SMOOTH",
"221 39 OFFCURVE",
"129 122 OFFCURVE",
"129 266 CURVE SMOOTH",
"129 496 OFFCURVE",
"276 661 OFFCURVE",
"482 661 CURVE SMOOTH",
"586 661 OFFCURVE",
"656 631 OFFCURVE",
"690 572 CURVE SMOOTH",
"694 566 OFFCURVE",
"701 562 OFFCURVE",
"710 562 CURVE SMOOTH",
"727 562 OFFCURVE",
"740 574 OFFCURVE",
"740 589 CURVE SMOOTH",
"740 595 OFFCURVE",
"739 599 OFFCURVE",
"736 603 CURVE SMOOTH",
"694 670 OFFCURVE",
"602 710 OFFCURVE",
"490 710 CURVE SMOOTH",
"250 710 OFFCURVE",
"76 524 OFFCURVE",
"76 268 CURVE SMOOTH",
"76 99 OFFCURVE",
"192 -10 OFFCURVE",
"372 -10 CURVE SMOOTH"
);
}
);
width = 770;
},
{
anchors = (
{
name = bottom;
position = "{349, 0}";
},
{
name = top;
position = "{473, 700}";
}
);
layerId = "71BB0B28-5B77-4945-A3C0-334755DB3BD8";
paths = (
{
closed = 1;
nodes = (
"545 -10 OFFCURVE",
"684 84 OFFCURVE",
"711 230 CURVE SMOOTH",
"718 268 LINE SMOOTH",
"720 281 OFFCURVE",
"720 287 OFFCURVE",
"720 294 CURVE SMOOTH",
"720 344 OFFCURVE",
"688 370 OFFCURVE",
"624 370 CURVE SMOOTH",
"459 370 LINE SMOOTH",
"429 370 OFFCURVE",
"414 356 OFFCURVE",
"414 331 CURVE SMOOTH",
"414 316 OFFCURVE",
"426 308 OFFCURVE",
"448 308 CURVE SMOOTH",
"599 308 LINE SMOOTH",
"637 308 OFFCURVE",
"647 296 OFFCURVE",
"640 257 CURVE SMOOTH",
"634 223 LINE SMOOTH",
"616 123 OFFCURVE",
"512 54 OFFCURVE",
"378 54 CURVE SMOOTH",
"231 54 OFFCURVE",
"146 134 OFFCURVE",
"146 273 CURVE SMOOTH",
"146 490 OFFCURVE",
"285 646 OFFCURVE",
"479 646 CURVE SMOOTH",
"579 646 OFFCURVE",
"643 618 OFFCURVE",
"678 561 CURVE SMOOTH",
"684 551 OFFCURVE",
"694 546 OFFCURVE",
"707 546 CURVE SMOOTH",
"727 546 OFFCURVE",
"747 564 OFFCURVE",
"747 583 CURVE SMOOTH",
"747 588 OFFCURVE",
"745 596 OFFCURVE",
"742 601 CURVE SMOOTH",
"701 669 OFFCURVE",
"599 710 OFFCURVE",
"486 710 CURVE SMOOTH",
"245 710 OFFCURVE",
"70 526 OFFCURVE",
"70 272 CURVE SMOOTH",
"70 101 OFFCURVE",
"187 -10 OFFCURVE",
"370 -10 CURVE SMOOTH"
);
}
);
width = 772;
},
{
anchors = (
{
name = bottom;
position = "{372, 0}";
},
{
name = top;
position = "{496, 700}";
}
);
layerId = "D92B54DD-6BE9-4383-803D-42A15BF32189";
paths = (
{
closed = 1;
nodes = (
"567 -10 OFFCURVE",
"716 94 OFFCURVE",
"744 248 CURVE SMOOTH",
"751 287 LINE SMOOTH",
"753 297 OFFCURVE",
"754 307 OFFCURVE",
"754 316 CURVE SMOOTH",
"754 366 OFFCURVE",
"723 389 OFFCURVE",
"657 389 CURVE SMOOTH",
"463 389 LINE SMOOTH",
"420 389 OFFCURVE",
"392 365 OFFCURVE",
"392 327 CURVE SMOOTH",
"392 301 OFFCURVE",
"411 286 OFFCURVE",
"444 286 CURVE SMOOTH",
"575 286 LINE SMOOTH",
"606 286 OFFCURVE",
"616 276 OFFCURVE",
"611 249 CURVE SMOOTH",
"607 227 LINE SMOOTH",
"592 144 OFFCURVE",
"512 95 OFFCURVE",
"390 95 CURVE SMOOTH",
"259 95 OFFCURVE",
"194 153 OFFCURVE",
"194 270 CURVE SMOOTH",
"194 468 OFFCURVE",
"310 605 OFFCURVE",
"478 605 CURVE SMOOTH",
"565 605 OFFCURVE",
"617 583 OFFCURVE",
"654 531 CURVE SMOOTH",
"664 516 OFFCURVE",
"684 506 OFFCURVE",
"705 506 CURVE SMOOTH",
"738 506 OFFCURVE",
"771 538 OFFCURVE",
"771 569 CURVE SMOOTH",
"771 577 OFFCURVE",
"769 585 OFFCURVE",
"765 593 CURVE SMOOTH",
"727 663 OFFCURVE",
"617 710 OFFCURVE",
"492 710 CURVE SMOOTH",
"237 710 OFFCURVE",
"61 532 OFFCURVE",
"61 274 CURVE SMOOTH",
"61 101 OFFCURVE",
"183 -10 OFFCURVE",
"374 -10 CURVE SMOOTH"
);
}
);
width = 794;
}
);
leftKerningGroup = C;
note = G;
rightKerningGroup = C;
unicode = 0047;
},
{
glyphname = H;
lastChange = "2018-07-09 11:12:12 +0000";
layers = (
{
anchors = (
{
name = bottom;
position = "{379, 0}";
},
{
name = center;
position = "{379, 350}";
},
{
name = top;
position = "{378, 700}";
},
{
name = topleft;
position = "{31, 700}";
}
);
layerId = "0B1DFD06-3317-40CA-B510-4969A0718C16";
paths = (
{
closed = 1;
nodes = (
"134 -10 OFFCURVE",
"144 1 OFFCURVE",
"144 22 CURVE SMOOTH",
"144 336 LINE",
"613 336 LINE",
"613 22 LINE SMOOTH",
"613 1 OFFCURVE",
"623 -10 OFFCURVE",
"640 -10 CURVE SMOOTH",
"657 -10 OFFCURVE",
"666 1 OFFCURVE",
"666 22 CURVE SMOOTH",
"666 678 LINE SMOOTH",
"666 699 OFFCURVE",
"657 710 OFFCURVE",
"640 710 CURVE SMOOTH",
"623 710 OFFCURVE",
"613 699 OFFCURVE",
"613 678 CURVE SMOOTH",
"613 383 LINE",
"144 383 LINE",
"144 678 LINE SMOOTH",
"144 699 OFFCURVE",
"134 710 OFFCURVE",
"117 710 CURVE SMOOTH",
"100 710 OFFCURVE",
"91 699 OFFCURVE",
"91 678 CURVE SMOOTH",
"91 22 LINE SMOOTH",
"91 1 OFFCURVE",
"100 -10 OFFCURVE",
"117 -10 CURVE SMOOTH"
);
}
);
width = 757;
},
{
anchors = (
{
name = bottom;
position = "{384, 0}";
},
{
name = center;
position = "{384, 350}";
},
{
name = top;
position = "{368, 700}";
},
{
name = topleft;
position = "{36, 700}";
}
);
layerId = "258BB4CE-589F-454F-8E39-237B943AA0B4";
paths = (
{
closed = 1;
nodes = (
"162 -10 OFFCURVE",
"189 14 OFFCURVE",
"189 50 CURVE SMOOTH",
"189 308 LINE",
"548 308 LINE",
"548 50 LINE SMOOTH",
"548 14 OFFCURVE",
"575 -10 OFFCURVE",
"615 -10 CURVE SMOOTH",
"655 -10 OFFCURVE",
"681 13 OFFCURVE",
"681 50 CURVE SMOOTH",
"681 650 LINE SMOOTH",
"681 687 OFFCURVE",
"655 710 OFFCURVE",
"615 710 CURVE SMOOTH",
"575 710 OFFCURVE",
"548 686 OFFCURVE",
"548 650 CURVE SMOOTH",
"548 411 LINE",
"189 411 LINE",
"189 650 LINE SMOOTH",
"189 686 OFFCURVE",
"162 710 OFFCURVE",
"122 710 CURVE SMOOTH",
"82 710 OFFCURVE",
"56 687 OFFCURVE",
"56 650 CURVE SMOOTH",
"56 50 LINE SMOOTH",
"56 13 OFFCURVE",
"82 -10 OFFCURVE",
"122 -10 CURVE SMOOTH"
);
}
);
width = 737;
},
{
anchors = (
{
name = bottom;
position = "{378, 0}";
},
{
name = center;
position = "{378, 350}";
},
{
name = top;
position = "{373, 700}";
},
{
name = topleft;
position = "{30, 700}";
}
);
layerId = "8ED59CAD-D047-43C0-8308-3370007B39AA";
paths = (
{
closed = 1;
nodes = (
"140 -10 OFFCURVE",
"154 5 OFFCURVE",
"154 30 CURVE SMOOTH",
"154 328 LINE",
"593 328 LINE",
"593 30 LINE SMOOTH",
"593 5 OFFCURVE",
"608 -10 OFFCURVE",
"631 -10 CURVE SMOOTH",
"654 -10 OFFCURVE",
"668 5 OFFCURVE",
"668 30 CURVE SMOOTH",
"668 670 LINE SMOOTH",
"668 695 OFFCURVE",
"654 710 OFFCURVE",
"631 710 CURVE SMOOTH",
"608 710 OFFCURVE",
"593 696 OFFCURVE",
"593 670 CURVE SMOOTH",
"593 391 LINE",
"154 391 LINE",
"154 670 LINE SMOOTH",
"154 695 OFFCURVE",
"140 710 OFFCURVE",
"116 710 CURVE SMOOTH",
"93 710 OFFCURVE",
"79 695 OFFCURVE",
"79 670 CURVE SMOOTH",
"79 30 LINE SMOOTH",
"79 5 OFFCURVE",
"93 -10 OFFCURVE",
"116 -10 CURVE SMOOTH"
);
}
);
width = 747;
},
{
anchors = (
{
name = bottom;
position = "{345, 0}";
},
{
name = center;
position = "{401, 350}";
},
{
name = top;
position = "{442, 700}";
},
{
name = topleft;
position = "{114, 700}";
}
);
layerId = "6D0DA379-F071-4911-97B5-1F20F456FBFD";
paths = (
{
closed = 1;
nodes = (
"92 -10 OFFCURVE",
"104 1 OFFCURVE",
"108 22 CURVE SMOOTH",
"163 336 LINE",
"632 336 LINE",
"577 22 LINE SMOOTH",
"573 1 OFFCURVE",
"580 -10 OFFCURVE",
"598 -10 CURVE SMOOTH",
"615 -10 OFFCURVE",
"626 1 OFFCURVE",
"630 22 CURVE SMOOTH",
"746 678 LINE SMOOTH",
"749 699 OFFCURVE",
"742 710 OFFCURVE",
"725 710 CURVE SMOOTH",
"708 710 OFFCURVE",
"696 699 OFFCURVE",
"693 678 CURVE SMOOTH",
"641 383 LINE",
"172 383 LINE",
"224 678 LINE SMOOTH",
"227 699 OFFCURVE",
"219 710 OFFCURVE",
"202 710 CURVE SMOOTH",
"185 710 OFFCURVE",
"174 699 OFFCURVE",
"171 678 CURVE SMOOTH",
"55 22 LINE SMOOTH",
"51 1 OFFCURVE",
"58 -10 OFFCURVE",
"75 -10 CURVE SMOOTH"
);
}
);
width = 765;
},
{
anchors = (
{
name = bottom;
position = "{341, 0}";
},
{
name = center;
position = "{401, 350}";
},
{
name = top;
position = "{443, 700}";
},
{
name = topleft;
position = "{114, 700}";
}
);
layerId = "71BB0B28-5B77-4945-A3C0-334755DB3BD8";
paths = (
{
closed = 1;
nodes = (
"99 -10 OFFCURVE",
"116 6 OFFCURVE",
"120 30 CURVE SMOOTH",
"173 328 LINE",
"611 328 LINE",
"558 30 LINE SMOOTH",
"553 4 OFFCURVE",
"567 -10 OFFCURVE",
"589 -10 CURVE SMOOTH",
"610 -10 OFFCURVE",
"629 2 OFFCURVE",
"634 30 CURVE SMOOTH",
"747 670 LINE SMOOTH",
"752 698 OFFCURVE",
"737 710 OFFCURVE",
"716 710 CURVE SMOOTH",
"694 710 OFFCURVE",
"675 695 OFFCURVE",
"671 670 CURVE SMOOTH",
"622 391 LINE",
"184 391 LINE",
"233 670 LINE SMOOTH",
"238 697 OFFCURVE",
"223 710 OFFCURVE",
"202 710 CURVE SMOOTH",
"181 710 OFFCURVE",
"163 698 OFFCURVE",
"158 670 CURVE SMOOTH",
"45 30 LINE SMOOTH",
"40 2 OFFCURVE",
"54 -10 OFFCURVE",
"75 -10 CURVE SMOOTH"
);
}
);
width = 755;
},
{
anchors = (
{
name = bottom;
position = "{344, 0}";
},
{
name = center;
position = "{406, 350}";
},
{
name = top;
position = "{444, 700}";
},
{
name = topleft;
position = "{119, 700}";
}
);
layerId = "D92B54DD-6BE9-4383-803D-42A15BF32189";
paths = (
{
closed = 1;
nodes = (
"120 -10 OFFCURVE",
"152 14 OFFCURVE",
"158 50 CURVE SMOOTH",
"203 308 LINE",
"562 308 LINE",
"517 50 LINE SMOOTH",
"511 14 OFFCURVE",
"533 -10 OFFCURVE",
"573 -10 CURVE SMOOTH",
"613 -10 OFFCURVE",
"643 13 OFFCURVE",
"650 50 CURVE SMOOTH",
"756 650 LINE SMOOTH",
"763 687 OFFCURVE",
"740 710 OFFCURVE",
"700 710 CURVE SMOOTH",
"660 710 OFFCURVE",
"629 686 OFFCURVE",
"623 650 CURVE SMOOTH",
"580 411 LINE",
"221 411 LINE",
"264 650 LINE SMOOTH",
"270 686 OFFCURVE",
"247 710 OFFCURVE",
"207 710 CURVE SMOOTH",
"166 710 OFFCURVE",
"138 687 OFFCURVE",
"131 650 CURVE SMOOTH",
"25 50 LINE SMOOTH",
"18 13 OFFCURVE",
"40 -10 OFFCURVE",
"80 -10 CURVE SMOOTH"
);
}
);
width = 745;
}
);
leftKerningGroup = H;
note = H;
rightKerningGroup = H;
unicode = 0048;
},
{
glyphname = I;
lastChange = "2018-07-09 11:12:12 +0000";
layers = (
{
anchors = (
{
name = bottom;
position = "{148, 0}";
},
{
name = ogonek;
position = "{155, 10}";
},
{
name = top;
position = "{148, 700}";
},
{
name = topleft;
position = "{61, 700}";
}
);
layerId = "0B1DFD06-3317-40CA-B510-4969A0718C16";
paths = (
{
closed = 1;
nodes = (
"165 -10 OFFCURVE",
"174 2 OFFCURVE",
"174 22 CURVE SMOOTH",
"174 678 LINE SMOOTH",
"174 698 OFFCURVE",
"165 710 OFFCURVE",
"147 710 CURVE SMOOTH",
"129 710 OFFCURVE",
"121 698 OFFCURVE",
"121 678 CURVE SMOOTH",
"121 22 LINE SMOOTH",
"121 2 OFFCURVE",
"129 -10 OFFCURVE",
"147 -10 CURVE SMOOTH"
);
}
);
width = 295;
},
{
anchors = (
{
name = bottom;
position = "{148, 0}";
},
{
name = ogonek;
position = "{155, 10}";
},
{
name = top;
position = "{148, 700}";
},
{
name = topleft;
position = "{61, 700}";
}
);
layerId = "258BB4CE-589F-454F-8E39-237B943AA0B4";
paths = (
{
closed = 1;
nodes = (
"190 -10 OFFCURVE",
"219 12 OFFCURVE",
"219 50 CURVE SMOOTH",
"219 650 LINE SMOOTH",
"219 688 OFFCURVE",
"190 710 OFFCURVE",
"152 710 CURVE SMOOTH",
"113 710 OFFCURVE",
"86 688 OFFCURVE",
"86 650 CURVE SMOOTH",
"86 50 LINE SMOOTH",
"86 12 OFFCURVE",
"113 -10 OFFCURVE",
"152 -10 CURVE SMOOTH"
);
}
);
width = 305;
},
{
anchors = (
{
name = bottom;
position = "{148, 0}";
},
{
name = ogonek;
position = "{149, 10}";
},
{
name = top;
position = "{148, 700}";
},
{
name = topleft;
position = "{61, 700}";
}
);
layerId = "8ED59CAD-D047-43C0-8308-3370007B39AA";
paths = (
{
closed = 1;
nodes = (
"172 -10 OFFCURVE",
"186 6 OFFCURVE",
"186 30 CURVE SMOOTH",
"186 670 LINE SMOOTH",
"186 694 OFFCURVE",
"172 710 OFFCURVE",
"148 710 CURVE SMOOTH",
"125 710 OFFCURVE",
"111 695 OFFCURVE",
"111 670 CURVE SMOOTH",
"111 30 LINE SMOOTH",
"111 5 OFFCURVE",
"125 -10 OFFCURVE",
"148 -10 CURVE SMOOTH"
);
}
);
width = 297;
},
{
anchors = (
{
name = bottom;
position = "{108, 0}";
},
{
name = ogonek;
position = "{124, 10}";
},
{
name = top;
position = "{231, 700}";
},
{
name = topleft;
position = "{144, 700}";
}
);
layerId = "6D0DA379-F071-4911-97B5-1F20F456FBFD";
paths = (
{
closed = 1;
nodes = (
"123 -10 OFFCURVE",
"134 2 OFFCURVE",
"138 22 CURVE SMOOTH",
"254 678 LINE SMOOTH",
"257 698 OFFCURVE",
"250 710 OFFCURVE",
"232 710 CURVE SMOOTH",
"214 710 OFFCURVE",
"204 698 OFFCURVE",
"201 678 CURVE SMOOTH",
"85 22 LINE SMOOTH",
"81 2 OFFCURVE",
"87 -10 OFFCURVE",
"105 -10 CURVE SMOOTH"
);
}
);
width = 303;
},
{
anchors = (
{
name = bottom;
position = "{108, 0}";
},
{
name = ogonek;
position = "{128, 10}";
},
{
name = top;
position = "{232, 700}";
},
{
name = topleft;
position = "{144, 700}";
}
);
layerId = "71BB0B28-5B77-4945-A3C0-334755DB3BD8";
paths = (
{
closed = 1;
nodes = (
"131 -10 OFFCURVE",
"148 6 OFFCURVE",
"152 30 CURVE SMOOTH",
"265 670 LINE SMOOTH",
"270 697 OFFCURVE",
"255 710 OFFCURVE",
"234 710 CURVE SMOOTH",
"211 710 OFFCURVE",
"194 695 OFFCURVE",
"190 670 CURVE SMOOTH",
"77 30 LINE SMOOTH",
"72 2 OFFCURVE",
"86 -10 OFFCURVE",
"107 -10 CURVE SMOOTH"
);
}
);
width = 305;
},
{
anchors = (
{
name = bottom;
position = "{108, 0}";
},
{
name = ogonek;
position = "{134, 10}";
},
{
name = top;
position = "{232, 700}";
},
{
name = topleft;
position = "{144, 700}";
}
);
layerId = "D92B54DD-6BE9-4383-803D-42A15BF32189";
paths = (
{
closed = 1;
nodes = (
"148 -10 OFFCURVE",
"181 12 OFFCURVE",
"188 50 CURVE SMOOTH",
"294 650 LINE SMOOTH",
"300 688 OFFCURVE",
"275 710 OFFCURVE",
"237 710 CURVE SMOOTH",
"198 710 OFFCURVE",
"167 688 OFFCURVE",
"161 650 CURVE SMOOTH",
"55 50 LINE SMOOTH",
"48 12 OFFCURVE",
"71 -10 OFFCURVE",
"110 -10 CURVE SMOOTH"
);
}
);
width = 313;
}
);
note = I;
unicode = 0049;
},
{
glyphname = J;
lastChange = "2018-07-09 11:12:12 +0000";
layers = (
{
anchors = (
{
name = bottom;
position = "{298, 0}";
},
{
name = top;
position = "{483, 700}";
}
);
layerId = "0B1DFD06-3317-40CA-B510-4969A0718C16";
paths = (
{
closed = 1;
nodes = (
"420 -10 OFFCURVE",
"510 84 OFFCURVE",
"510 215 CURVE SMOOTH",
"510 678 LINE SMOOTH",
"510 699 OFFCURVE",
"500 710 OFFCURVE",
"483 710 CURVE SMOOTH",
"466 710 OFFCURVE",
"457 699 OFFCURVE",
"457 678 CURVE SMOOTH",
"457 211 LINE SMOOTH",
"457 103 OFFCURVE",
"396 40 OFFCURVE",
"293 40 CURVE SMOOTH",
"202 40 OFFCURVE",
"149 65 OFFCURVE",
"99 134 CURVE SMOOTH",
"90 147 OFFCURVE",
"72 150 OFFCURVE",
"60 139 CURVE SMOOTH",
"49 129 OFFCURVE",
"48 117 OFFCURVE",
"58 103 CURVE SMOOTH",
"115 26 OFFCURVE",
"189 -10 OFFCURVE",
"293 -10 CURVE SMOOTH"
);
}
);
width = 596;
},
{
anchors = (
{
name = bottom;
position = "{300, 0}";
},
{
name = top;
position = "{485, 700}";
}
);
layerId = "258BB4CE-589F-454F-8E39-237B943AA0B4";
paths = (
{
closed = 1;
nodes = (
"454 -10 OFFCURVE",
"552 87 OFFCURVE",
"552 238 CURVE SMOOTH",
"552 650 LINE SMOOTH",
"552 686 OFFCURVE",
"525 710 OFFCURVE",
"485 710 CURVE SMOOTH",
"445 710 OFFCURVE",
"419 687 OFFCURVE",
"419 650 CURVE SMOOTH",
"419 234 LINE SMOOTH",
"419 140 OFFCURVE",
"381 96 OFFCURVE",
"300 96 CURVE SMOOTH",
"232 96 OFFCURVE",
"172 123 OFFCURVE",
"139 168 CURVE SMOOTH",
"115 201 OFFCURVE",
"78 208 OFFCURVE",
"49 185 CURVE SMOOTH",
"22 163 OFFCURVE",
"18 133 OFFCURVE",
"39 106 CURVE SMOOTH",
"96 33 OFFCURVE",
"193 -10 OFFCURVE",
"300 -10 CURVE SMOOTH"
);
}
);
width = 603;
},
{
anchors = (
{
name = bottom;
position = "{299, 0}";
},
{
name = top;
position = "{484, 700}";
}
);
layerId = "8ED59CAD-D047-43C0-8308-3370007B39AA";
paths = (
{
closed = 1;
nodes = (
"430 -10 OFFCURVE",
"523 84 OFFCURVE",
"523 221 CURVE SMOOTH",
"523 670 LINE SMOOTH",
"523 695 OFFCURVE",
"508 710 OFFCURVE",
"484 710 CURVE SMOOTH",
"460 710 OFFCURVE",
"447 695 OFFCURVE",
"447 670 CURVE SMOOTH",
"447 217 LINE SMOOTH",
"447 114 OFFCURVE",
"392 55 OFFCURVE",
"296 55 CURVE SMOOTH",
"210 55 OFFCURVE",
"156 82 OFFCURVE",
"111 144 CURVE SMOOTH",
"98 162 OFFCURVE",
"74 166 OFFCURVE",
"58 152 CURVE SMOOTH",
"42 139 OFFCURVE",
"40 121 OFFCURVE",
"53 104 CURVE SMOOTH",
"110 28 OFFCURVE",
"191 -10 OFFCURVE",
"296 -10 CURVE SMOOTH"
);
}
);
width = 598;
},
{
anchors = (
{
name = bottom;
position = "{259, 0}";
},
{
name = top;
position = "{567, 700}";
}
);
layerId = "6D0DA379-F071-4911-97B5-1F20F456FBFD";
paths = (
{
closed = 1;
nodes = (
"388 -10 OFFCURVE",
"484 74 OFFCURVE",
"509 215 CURVE SMOOTH",
"591 678 LINE SMOOTH",
"594 699 OFFCURVE",
"586 710 OFFCURVE",
"569 710 CURVE SMOOTH",
"552 710 OFFCURVE",
"541 699 OFFCURVE",
"538 678 CURVE SMOOTH",
"455 211 LINE SMOOTH",
"436 104 OFFCURVE",
"364 40 OFFCURVE",
"261 40 CURVE SMOOTH",
"165 40 OFFCURVE",
"123 62 OFFCURVE",
"84 134 CURVE SMOOTH",
"76 147 OFFCURVE",
"59 150 OFFCURVE",
"46 139 CURVE SMOOTH",
"33 129 OFFCURVE",
"29 116 OFFCURVE",
"37 103 CURVE SMOOTH",
"84 28 OFFCURVE",
"155 -10 OFFCURVE",
"252 -10 CURVE SMOOTH"
);
}
);
width = 605;
},
{
anchors = (
{
name = bottom;
position = "{261, 0}";
},
{
name = top;
position = "{569, 700}";
}
);
layerId = "71BB0B28-5B77-4945-A3C0-334755DB3BD8";
paths = (
{
closed = 1;
nodes = (
"399 -10 OFFCURVE",
"497 77 OFFCURVE",
"523 221 CURVE SMOOTH",
"603 670 LINE SMOOTH",
"607 694 OFFCURVE",
"596 710 OFFCURVE",
"571 710 CURVE SMOOTH",
"550 710 OFFCURVE",
"532 698 OFFCURVE",
"527 670 CURVE SMOOTH",
"447 217 LINE SMOOTH",
"429 114 OFFCURVE",
"365 55 OFFCURVE",
"267 55 CURVE SMOOTH",
"182 55 OFFCURVE",
"132 81 OFFCURVE",
"98 144 CURVE SMOOTH",
"88 162 OFFCURVE",
"65 166 OFFCURVE",
"47 152 CURVE SMOOTH",
"28 138 OFFCURVE",
"24 119 OFFCURVE",
"33 104 CURVE SMOOTH",
"76 31 OFFCURVE",
"161 -10 OFFCURVE",
"259 -10 CURVE SMOOTH"
);
}
);
width = 607;
},
{
anchors = (
{
name = bottom;
position = "{262, 0}";
},
{
name = top;
position = "{570, 700}";
}
);
layerId = "D92B54DD-6BE9-4383-803D-42A15BF32189";
paths = (
{
closed = 1;
nodes = (
"424 -10 OFFCURVE",
"527 77 OFFCURVE",
"556 238 CURVE SMOOTH",
"629 650 LINE SMOOTH",
"635 686 OFFCURVE",
"612 710 OFFCURVE",
"572 710 CURVE SMOOTH",
"531 710 OFFCURVE",
"502 687 OFFCURVE",
"496 650 CURVE SMOOTH",
"422 234 LINE SMOOTH",
"406 140 OFFCURVE",
"360 96 OFFCURVE",
"279 96 CURVE SMOOTH",
"211 96 OFFCURVE",
"156 123 OFFCURVE",
"131 168 CURVE SMOOTH",
"112 201 OFFCURVE",
"76 208 OFFCURVE",
"44 185 CURVE SMOOTH",
"11 162 OFFCURVE",
"2 131 OFFCURVE",
"20 106 CURVE SMOOTH",
"74 30 OFFCURVE",
"157 -10 OFFCURVE",
"260 -10 CURVE SMOOTH"
);
}
);
width = 613;
}
);
leftKerningGroup = J;
note = J;
rightKerningGroup = J;
unicode = 004A;
},
{
glyphname = K;
lastChange = "2018-07-09 11:12:12 +0000";
layers = (
{
anchors = (
{
name = bottom;
position = "{342, 0}";
},
{
name = top;
position = "{342, 700}";
}
);
layerId = "0B1DFD06-3317-40CA-B510-4969A0718C16";
paths = (
{
closed = 1;
nodes = (
"617 -6 OFFCURVE",
"624 7 OFFCURVE",
"621 22 CURVE SMOOTH",
"588 185 OFFCURVE",
"491 311 OFFCURVE",
"318 415 CURVE",
"599 661 LINE SMOOTH",
"610 671 OFFCURVE",
"610 685 OFFCURVE",
"600 696 CURVE SMOOTH",
"590 706 OFFCURVE",
"577 707 OFFCURVE",
"568 699 CURVE SMOOTH",
"144 335 LINE",
"144 678 LINE SMOOTH",
"144 699 OFFCURVE",
"134 710 OFFCURVE",
"117 710 CURVE SMOOTH",
"100 710 OFFCURVE",
"91 699 OFFCURVE",
"91 678 CURVE SMOOTH",
"91 22 LINE SMOOTH",
"91 1 OFFCURVE",
"100 -10 OFFCURVE",
"117 -10 CURVE SMOOTH",
"134 -10 OFFCURVE",
"144 1 OFFCURVE",
"144 22 CURVE SMOOTH",
"144 271 LINE",
"281 385 LINE",
"448 290 OFFCURVE",
"540 169 OFFCURVE",
"574 12 CURVE SMOOTH",
"577 -3 OFFCURVE",
"589 -12 OFFCURVE",
"603 -9 CURVE SMOOTH"
);
}
);
width = 683;
},
{
anchors = (
{
name = bottom;
position = "{347, 0}";
},
{
name = top;
position = "{347, 700}";
}
);
layerId = "258BB4CE-589F-454F-8E39-237B943AA0B4";
paths = (
{
closed = 1;
nodes = (
"628 -10 OFFCURVE",
"653 20 OFFCURVE",
"649 54 CURVE SMOOTH",
"631 203 OFFCURVE",
"535 338 OFFCURVE",
"372 409 CURVE",
"602 609 LINE SMOOTH",
"632 635 OFFCURVE",
"633 662 OFFCURVE",
"607 690 CURVE SMOOTH",
"584 715 OFFCURVE",
"550 716 OFFCURVE",
"523 692 CURVE SMOOTH",
"189 401 LINE",
"189 650 LINE SMOOTH",
"189 686 OFFCURVE",
"162 710 OFFCURVE",
"122 710 CURVE SMOOTH",
"82 710 OFFCURVE",
"56 687 OFFCURVE",
"56 650 CURVE SMOOTH",
"56 50 LINE SMOOTH",
"56 13 OFFCURVE",
"82 -10 OFFCURVE",
"122 -10 CURVE SMOOTH",
"162 -10 OFFCURVE",
"189 14 OFFCURVE",
"189 50 CURVE SMOOTH",
"189 256 LINE",
"288 338 LINE",
"429 265 OFFCURVE",
"498 177 OFFCURVE",
"524 34 CURVE SMOOTH",
"529 5 OFFCURVE",
"554 -10 OFFCURVE",
"595 -10 CURVE SMOOTH"
);
}
);
width = 695;
},
{
anchors = (
{
name = bottom;
position = "{343, 0}";
},
{
name = top;
position = "{343, 700}";
}
);
layerId = "8ED59CAD-D047-43C0-8308-3370007B39AA";
paths = (
{
closed = 1;
nodes = (
"620 -7 OFFCURVE",
"632 10 OFFCURVE",
"628 33 CURVE SMOOTH",
"601 190 OFFCURVE",
"506 312 OFFCURVE",
"333 414 CURVE",
"600 647 LINE SMOOTH",
"616 661 OFFCURVE",
"616 680 OFFCURVE",
"602 695 CURVE SMOOTH",
"592 706 OFFCURVE",
"571 711 OFFCURVE",
"555 697 CURVE SMOOTH",
"156 353 LINE",
"156 670 LINE SMOOTH",
"156 695 OFFCURVE",
"142 710 OFFCURVE",
"118 710 CURVE SMOOTH",
"95 710 OFFCURVE",
"81 695 OFFCURVE",
"81 670 CURVE SMOOTH",
"81 30 LINE SMOOTH",
"81 5 OFFCURVE",
"95 -10 OFFCURVE",
"118 -10 CURVE SMOOTH",
"142 -10 OFFCURVE",
"156 5 OFFCURVE",
"156 30 CURVE SMOOTH",
"156 267 LINE",
"282 370 LINE",
"436 282 OFFCURVE",
"516 180 OFFCURVE",
"559 21 CURVE SMOOTH",
"565 0 OFFCURVE",
"578 -11 OFFCURVE",
"600 -9 CURVE SMOOTH"
);
}
);
width = 683;
},
{
anchors = (
{
name = bottom;
position = "{302, 0}";
},
{
name = top;
position = "{425, 700}";
}
);
layerId = "6D0DA379-F071-4911-97B5-1F20F456FBFD";
paths = (
{
closed = 1;
nodes = (
"575 -11 OFFCURVE",
"585 2 OFFCURVE",
"584 17 CURVE SMOOTH",
"577 189 OFFCURVE",
"516 294 OFFCURVE",
"351 415 CURVE",
"676 661 LINE SMOOTH",
"688 671 OFFCURVE",
"691 685 OFFCURVE",
"683 696 CURVE SMOOTH",
"675 706 OFFCURVE",
"662 707 OFFCURVE",
"651 699 CURVE SMOOTH",
"163 335 LINE",
"224 678 LINE SMOOTH",
"227 699 OFFCURVE",
"219 710 OFFCURVE",
"202 710 CURVE SMOOTH",
"185 710 OFFCURVE",
"174 699 OFFCURVE",
"171 678 CURVE SMOOTH",
"55 22 LINE SMOOTH",
"51 1 OFFCURVE",
"58 -10 OFFCURVE",
"75 -10 CURVE SMOOTH",
"92 -10 OFFCURVE",
"104 1 OFFCURVE",
"108 22 CURVE SMOOTH",
"152 271 LINE",
"307 383 LINE",
"468 280 OFFCURVE",
"524 188 OFFCURVE",
"535 7 CURVE SMOOTH",
"536 -8 OFFCURVE",
"546 -17 OFFCURVE",
"561 -14 CURVE SMOOTH"
);
}
);
width = 690;
},
{
anchors = (
{
name = bottom;
position = "{304, 0}";
},
{
name = top;
position = "{427, 700}";
}
);
layerId = "71BB0B28-5B77-4945-A3C0-334755DB3BD8";
paths = (
{
closed = 1;
nodes = (
"578 -11 OFFCURVE",
"594 6 OFFCURVE",
"594 28 CURVE SMOOTH",
"591 195 OFFCURVE",
"519 308 OFFCURVE",
"367 414 CURVE",
"675 647 LINE SMOOTH",
"693 661 OFFCURVE",
"696 679 OFFCURVE",
"685 694 CURVE SMOOTH",
"675 708 OFFCURVE",
"656 710 OFFCURVE",
"639 697 CURVE SMOOTH",
"180 353 LINE",
"235 670 LINE SMOOTH",
"239 694 OFFCURVE",
"229 710 OFFCURVE",
"204 710 CURVE SMOOTH",
"183 710 OFFCURVE",
"165 698 OFFCURVE",
"160 670 CURVE SMOOTH",
"47 30 LINE SMOOTH",
"42 2 OFFCURVE",
"56 -10 OFFCURVE",
"77 -10 CURVE SMOOTH",
"99 -10 OFFCURVE",
"118 5 OFFCURVE",
"122 30 CURVE SMOOTH",
"164 267 LINE",
"307 370 LINE",
"463 272 OFFCURVE",
"516 182 OFFCURVE",
"523 15 CURVE SMOOTH",
"524 -4 OFFCURVE",
"538 -15 OFFCURVE",
"558 -13 CURVE SMOOTH"
);
}
);
width = 690;
},
{
anchors = (
{
name = bottom;
position = "{307, 0}";
},
{
name = top;
position = "{430, 700}";
}
);
layerId = "D92B54DD-6BE9-4383-803D-42A15BF32189";
paths = (
{
closed = 1;
nodes = (
"586 -10 OFFCURVE",
"617 20 OFFCURVE",
"619 54 CURVE SMOOTH",
"626 180 OFFCURVE",
"553 320 OFFCURVE",
"404 409 CURVE",
"671 610 LINE SMOOTH",
"704 635 OFFCURVE",
"712 662 OFFCURVE",
"690 691 CURVE SMOOTH",
"669 719 OFFCURVE",
"634 714 OFFCURVE",
"606 693 CURVE SMOOTH",
"220 401 LINE",
"264 650 LINE SMOOTH",
"270 688 OFFCURVE",
"245 710 OFFCURVE",
"207 710 CURVE SMOOTH",
"168 710 OFFCURVE",
"137 688 OFFCURVE",
"131 650 CURVE SMOOTH",
"25 50 LINE SMOOTH",
"18 12 OFFCURVE",
"41 -10 OFFCURVE",
"80 -10 CURVE SMOOTH",
"118 -10 OFFCURVE",
"151 12 OFFCURVE",
"158 50 CURVE SMOOTH",
"194 256 LINE",
"308 338 LINE",
"441 262 OFFCURVE",
"489 169 OFFCURVE",
"490 34 CURVE SMOOTH",
"490 2 OFFCURVE",
"517 -10 OFFCURVE",
"553 -10 CURVE SMOOTH"
);
}
);
width = 703;
}
);
note = K;
rightKerningGroup = K;
unicode = 004B;
},
{
glyphname = L;
lastChange = "2018-07-09 11:12:12 +0000";
layers = (
{
anchors = (
{
name = bottom;
position = "{310, 0}";
},
{
name = center;
position = "{310, 350}";
},
{
name = top;
position = "{310, 700}";
},
{
name = topright;
position = "{589, 700}";
}
);
layerId = "0B1DFD06-3317-40CA-B510-4969A0718C16";
paths = (
{
closed = 1;
nodes = (
"539 0 LINE SMOOTH",
"559 0 OFFCURVE",
"569 8 OFFCURVE",
"569 23 CURVE SMOOTH",
"569 40 OFFCURVE",
"560 47 OFFCURVE",
"539 47 CURVE SMOOTH",
"201 47 LINE SMOOTH",
"166 47 OFFCURVE",
"144 71 OFFCURVE",
"144 107 CURVE SMOOTH",
"144 678 LINE SMOOTH",
"144 699 OFFCURVE",
"134 710 OFFCURVE",
"117 710 CURVE SMOOTH",
"100 710 OFFCURVE",
"91 699 OFFCURVE",
"91 678 CURVE SMOOTH",
"91 110 LINE SMOOTH",
"91 41 OFFCURVE",
"134 0 OFFCURVE",
"207 0 CURVE SMOOTH"
);
}
);
width = 620;
},
{
anchors = (
{
name = bottom;
position = "{310, 0}";
},
{
name = center;
position = "{366, 350}";
},
{
name = top;
position = "{310, 700}";
},
{
name = topright;
position = "{589, 700}";
}
);
layerId = "258BB4CE-589F-454F-8E39-237B943AA0B4";
paths = (
{
closed = 1;
nodes = (
"552 0 LINE SMOOTH",
"591 0 OFFCURVE",
"614 19 OFFCURVE",
"614 51 CURVE SMOOTH",
"614 84 OFFCURVE",
"592 103 OFFCURVE",
"552 103 CURVE SMOOTH",
"232 103 LINE SMOOTH",
"205 103 OFFCURVE",
"189 121 OFFCURVE",
"189 152 CURVE SMOOTH",
"189 650 LINE SMOOTH",
"189 686 OFFCURVE",
"162 710 OFFCURVE",
"122 710 CURVE SMOOTH",
"82 710 OFFCURVE",
"56 687 OFFCURVE",
"56 650 CURVE SMOOTH",
"56 152 LINE SMOOTH",
"56 56 OFFCURVE",
"115 0 OFFCURVE",
"216 0 CURVE SMOOTH"
);
}
);
width = 640;
},
{
anchors = (
{
name = bottom;
position = "{311, 0}";
},
{
name = center;
position = "{311, 350}";
},
{
name = top;
position = "{311, 700}";
},
{
name = topright;
position = "{590, 700}";
}
);
layerId = "8ED59CAD-D047-43C0-8308-3370007B39AA";
paths = (
{
closed = 1;
nodes = (
"543 0 LINE SMOOTH",
"568 0 OFFCURVE",
"582 11 OFFCURVE",
"582 31 CURVE SMOOTH",
"582 54 OFFCURVE",
"567 62 OFFCURVE",
"543 62 CURVE SMOOTH",
"210 62 LINE SMOOTH",
"178 62 OFFCURVE",
"157 85 OFFCURVE",
"157 120 CURVE SMOOTH",
"157 670 LINE SMOOTH",
"157 695 OFFCURVE",
"143 710 OFFCURVE",
"119 710 CURVE SMOOTH",
"96 710 OFFCURVE",
"82 695 OFFCURVE",
"82 670 CURVE SMOOTH",
"82 122 LINE SMOOTH",
"82 46 OFFCURVE",
"129 0 OFFCURVE",
"211 0 CURVE SMOOTH"
);
}
);
width = 627;
},
{
anchors = (
{
name = bottom;
position = "{270, 0}";
},
{
name = center;
position = "{332, 350}";
},
{
name = top;
position = "{393, 700}";
},
{
name = topright;
position = "{672, 700}";
}
);
layerId = "6D0DA379-F071-4911-97B5-1F20F456FBFD";
paths = (
{
closed = 1;
nodes = (
"500 0 LINE SMOOTH",
"520 0 OFFCURVE",
"531 8 OFFCURVE",
"534 23 CURVE SMOOTH",
"538 39 OFFCURVE",
"529 47 OFFCURVE",
"508 47 CURVE SMOOTH",
"170 47 LINE SMOOTH",
"136 47 OFFCURVE",
"118 70 OFFCURVE",
"124 107 CURVE SMOOTH",
"225 678 LINE SMOOTH",
"229 698 OFFCURVE",
"221 710 OFFCURVE",
"203 710 CURVE SMOOTH",
"186 710 OFFCURVE",
"176 700 OFFCURVE",
"172 678 CURVE SMOOTH",
"71 110 LINE SMOOTH",
"59 44 OFFCURVE",
"98 0 OFFCURVE",
"168 0 CURVE SMOOTH"
);
}
);
width = 628;
},
{
anchors = (
{
name = bottom;
position = "{272, 0}";
},
{
name = center;
position = "{334, 350}";
},
{
name = top;
position = "{395, 700}";
},
{
name = topright;
position = "{674, 700}";
}
);
layerId = "71BB0B28-5B77-4945-A3C0-334755DB3BD8";
paths = (
{
closed = 1;
nodes = (
"505 0 LINE SMOOTH",
"530 0 OFFCURVE",
"546 11 OFFCURVE",
"550 31 CURVE SMOOTH",
"554 52 OFFCURVE",
"542 62 OFFCURVE",
"516 62 CURVE SMOOTH",
"183 62 LINE SMOOTH",
"151 62 OFFCURVE",
"134 85 OFFCURVE",
"140 120 CURVE SMOOTH",
"238 671 LINE SMOOTH",
"242 695 OFFCURVE",
"230 710 OFFCURVE",
"206 710 CURVE SMOOTH",
"185 710 OFFCURVE",
"167 698 OFFCURVE",
"162 670 CURVE SMOOTH",
"65 122 LINE SMOOTH",
"52 50 OFFCURVE",
"95 0 OFFCURVE",
"173 0 CURVE SMOOTH"
);
}
);
width = 635;
},
{
anchors = (
{
name = bottom;
position = "{270, 0}";
},
{
name = center;
position = "{332, 350}";
},
{
name = top;
position = "{393, 700}";
},
{
name = topright;
position = "{672, 700}";
}
);
layerId = "D92B54DD-6BE9-4383-803D-42A15BF32189";
paths = (
{
closed = 1;
nodes = (
"512 0 LINE SMOOTH",
"551 0 OFFCURVE",
"577 19 OFFCURVE",
"583 51 CURVE SMOOTH",
"589 84 OFFCURVE",
"570 103 OFFCURVE",
"530 103 CURVE SMOOTH",
"210 103 LINE SMOOTH",
"183 103 OFFCURVE",
"170 121 OFFCURVE",
"176 152 CURVE SMOOTH",
"264 650 LINE SMOOTH",
"270 686 OFFCURVE",
"247 710 OFFCURVE",
"207 710 CURVE SMOOTH",
"166 710 OFFCURVE",
"137 687 OFFCURVE",
"131 650 CURVE SMOOTH",
"43 152 LINE SMOOTH",
"26 56 OFFCURVE",
"75 0 OFFCURVE",
"176 0 CURVE SMOOTH"
);
}
);
width = 647;
}
);
note = L;
rightKerningGroup = L;
unicode = 004C;
},
{
glyphname = M;
lastChange = "2018-07-09 11:12:12 +0000";
layers = (
{
anchors = (
{
name = bottom;
position = "{492, 0}";
},
{
name = top;
position = "{492, 700}";
}
);
layerId = "0B1DFD06-3317-40CA-B510-4969A0718C16";
paths = (
{
closed = 1;
nodes = (
"129 -10 OFFCURVE",
"139 1 OFFCURVE",
"139 22 CURVE SMOOTH",
"139 490 LINE SMOOTH",
"139 605 OFFCURVE",
"192 660 OFFCURVE",
"302 660 CURVE SMOOTH",
"401 660 OFFCURVE",
"466 592 OFFCURVE",
"466 490 CURVE SMOOTH",
"466 22 LINE SMOOTH",
"466 1 OFFCURVE",
"475 -10 OFFCURVE",
"491 -10 CURVE SMOOTH",
"508 -10 OFFCURVE",
"517 1 OFFCURVE",
"517 22 CURVE SMOOTH",
"517 490 LINE SMOOTH",
"517 595 OFFCURVE",
"580 660 OFFCURVE",
"681 660 CURVE SMOOTH",
"791 660 OFFCURVE",
"844 605 OFFCURVE",
"844 490 CURVE SMOOTH",
"844 22 LINE SMOOTH",
"844 1 OFFCURVE",
"853 -10 OFFCURVE",
"870 -10 CURVE SMOOTH",
"887 -10 OFFCURVE",
"897 1 OFFCURVE",
"897 22 CURVE SMOOTH",
"897 490 LINE SMOOTH",
"897 627 OFFCURVE",
"816 710 OFFCURVE",
"681 710 CURVE SMOOTH",
"594 710 OFFCURVE",
"520 663 OFFCURVE",
"491 591 CURVE",
"463 662 OFFCURVE",
"386 710 OFFCURVE",
"302 710 CURVE SMOOTH",
"167 710 OFFCURVE",
"86 627 OFFCURVE",
"86 490 CURVE SMOOTH",
"86 22 LINE SMOOTH",
"86 1 OFFCURVE",
"95 -10 OFFCURVE",
"112 -10 CURVE SMOOTH"
);
}
);
width = 983;
},
{
anchors = (
{
name = bottom;
position = "{502, 0}";
},
{
name = top;
position = "{502, 700}";
}
);
layerId = "258BB4CE-589F-454F-8E39-237B943AA0B4";
paths = (
{
closed = 1;
nodes = (
"162 -10 OFFCURVE",
"189 14 OFFCURVE",
"189 50 CURVE SMOOTH",
"189 462 LINE SMOOTH",
"189 564 OFFCURVE",
"224 605 OFFCURVE",
"309 605 CURVE SMOOTH",
"385 605 OFFCURVE",
"430 552 OFFCURVE",
"430 462 CURVE SMOOTH",
"430 50 LINE SMOOTH",
"430 13 OFFCURVE",
"455 -10 OFFCURVE",
"495 -10 CURVE SMOOTH",
"535 -10 OFFCURVE",
"561 13 OFFCURVE",
"561 50 CURVE SMOOTH",
"561 462 LINE SMOOTH",
"561 554 OFFCURVE",
"604 605 OFFCURVE",
"682 605 CURVE SMOOTH",
"767 605 OFFCURVE",
"802 564 OFFCURVE",
"802 462 CURVE SMOOTH",
"802 50 LINE SMOOTH",
"802 13 OFFCURVE",
"828 -10 OFFCURVE",
"868 -10 CURVE SMOOTH",
"908 -10 OFFCURVE",
"935 14 OFFCURVE",
"935 50 CURVE SMOOTH",
"935 462 LINE SMOOTH",
"935 617 OFFCURVE",
"842 710 OFFCURVE",
"687 710 CURVE SMOOTH",
"610 710 OFFCURVE",
"542 673 OFFCURVE",
"495 604 CURVE",
"447 672 OFFCURVE",
"379 710 OFFCURVE",
"304 710 CURVE SMOOTH",
"149 710 OFFCURVE",
"56 617 OFFCURVE",
"56 462 CURVE SMOOTH",
"56 50 LINE SMOOTH",
"56 13 OFFCURVE",
"82 -10 OFFCURVE",
"122 -10 CURVE SMOOTH"
);
}
);
width = 991;
},
{
anchors = (
{
name = bottom;
position = "{492, 0}";
},
{
name = top;
position = "{492, 700}";
}
);
layerId = "8ED59CAD-D047-43C0-8308-3370007B39AA";
paths = (
{
closed = 1;
nodes = (
"136 -10 OFFCURVE",
"150 5 OFFCURVE",
"150 30 CURVE SMOOTH",
"150 482 LINE SMOOTH",
"150 582 OFFCURVE",
"189 645 OFFCURVE",
"302 645 CURVE SMOOTH",
"393 645 OFFCURVE",
"454 581 OFFCURVE",
"454 482 CURVE SMOOTH",
"454 30 LINE SMOOTH",
"454 5 OFFCURVE",
"467 -10 OFFCURVE",
"490 -10 CURVE SMOOTH",
"513 -10 OFFCURVE",
"527 5 OFFCURVE",
"527 30 CURVE SMOOTH",
"527 482 LINE SMOOTH",
"527 584 OFFCURVE",
"584 645 OFFCURVE",
"678 645 CURVE SMOOTH",
"791 645 OFFCURVE",
"830 582 OFFCURVE",
"830 482 CURVE SMOOTH",
"830 30 LINE SMOOTH",
"830 5 OFFCURVE",
"843 -10 OFFCURVE",
"867 -10 CURVE SMOOTH",
"890 -10 OFFCURVE",
"905 5 OFFCURVE",
"905 30 CURVE SMOOTH",
"905 482 LINE SMOOTH",
"905 625 OFFCURVE",
"820 710 OFFCURVE",
"680 710 CURVE SMOOTH",
"596 710 OFFCURVE",
"524 666 OFFCURVE",
"490 595 CURVE",
"456 664 OFFCURVE",
"382 710 OFFCURVE",
"300 710 CURVE SMOOTH",
"160 710 OFFCURVE",
"75 624 OFFCURVE",
"75 482 CURVE SMOOTH",
"75 30 LINE SMOOTH",
"75 5 OFFCURVE",
"89 -10 OFFCURVE",
"112 -10 CURVE SMOOTH"
);
}
);
width = 980;
},
{
anchors = (
{
name = bottom;
position = "{453, 0}";
},
{
name = top;
position = "{576, 700}";
}
);
layerId = "6D0DA379-F071-4911-97B5-1F20F456FBFD";
paths = (
{
closed = 1;
nodes = (
"88 -10 OFFCURVE",
"100 1 OFFCURVE",
"104 22 CURVE SMOOTH",
"186 490 LINE SMOOTH",
"206 602 OFFCURVE",
"272 660 OFFCURVE",
"379 660 CURVE SMOOTH",
"478 660 OFFCURVE",
"531 592 OFFCURVE",
"513 490 CURVE SMOOTH",
"431 22 LINE SMOOTH",
"427 1 OFFCURVE",
"434 -10 OFFCURVE",
"450 -10 CURVE SMOOTH",
"467 -10 OFFCURVE",
"478 1 OFFCURVE",
"482 22 CURVE SMOOTH",
"564 490 LINE SMOOTH",
"583 595 OFFCURVE",
"657 660 OFFCURVE",
"758 660 CURVE SMOOTH",
"868 660 OFFCURVE",
"911 605 OFFCURVE",
"891 490 CURVE SMOOTH",
"809 22 LINE SMOOTH",
"805 1 OFFCURVE",
"812 -10 OFFCURVE",
"829 -10 CURVE SMOOTH",
"846 -10 OFFCURVE",
"858 1 OFFCURVE",
"862 22 CURVE SMOOTH",
"944 490 LINE SMOOTH",
"969 627 OFFCURVE",
"902 710 OFFCURVE",
"767 710 CURVE SMOOTH",
"679 710 OFFCURVE",
"593 662 OFFCURVE",
"552 591 CURVE",
"537 659 OFFCURVE",
"465 710 OFFCURVE",
"384 710 CURVE SMOOTH",
"247 710 OFFCURVE",
"158 632 OFFCURVE",
"133 490 CURVE SMOOTH",
"51 22 LINE SMOOTH",
"47 1 OFFCURVE",
"54 -10 OFFCURVE",
"71 -10 CURVE SMOOTH"
);
}
);
width = 992;
},
{
anchors = (
{
name = bottom;
position = "{454, 0}";
},
{
name = top;
position = "{577, 700}";
}
);
layerId = "71BB0B28-5B77-4945-A3C0-334755DB3BD8";
paths = (
{
closed = 1;
nodes = (
"94 -10 OFFCURVE",
"113 5 OFFCURVE",
"117 30 CURVE SMOOTH",
"197 482 LINE SMOOTH",
"217 593 OFFCURVE",
"274 645 OFFCURVE",
"376 645 CURVE SMOOTH",
"469 645 OFFCURVE",
"517 580 OFFCURVE",
"500 482 CURVE SMOOTH",
"420 30 LINE SMOOTH",
"415 2 OFFCURVE",
"429 -10 OFFCURVE",
"449 -10 CURVE SMOOTH",
"475 -10 OFFCURVE",
"490 7 OFFCURVE",
"494 30 CURVE SMOOTH",
"573 482 LINE SMOOTH",
"591 584 OFFCURVE",
"660 645 OFFCURVE",
"753 645 CURVE SMOOTH",
"866 645 OFFCURVE",
"894 584 OFFCURVE",
"876 482 CURVE SMOOTH",
"796 30 LINE SMOOTH",
"791 3 OFFCURVE",
"805 -10 OFFCURVE",
"826 -10 CURVE SMOOTH",
"849 -10 OFFCURVE",
"868 5 OFFCURVE",
"872 30 CURVE SMOOTH",
"951 482 LINE SMOOTH",
"975 618 OFFCURVE",
"905 710 OFFCURVE",
"763 710 CURVE SMOOTH",
"679 710 OFFCURVE",
"599 666 OFFCURVE",
"551 595 CURVE",
"530 664 OFFCURVE",
"462 710 OFFCURVE",
"382 710 CURVE SMOOTH",
"237 710 OFFCURVE",
"147 631 OFFCURVE",
"121 482 CURVE SMOOTH",
"42 30 LINE SMOOTH",
"38 6 OFFCURVE",
"47 -10 OFFCURVE",
"72 -10 CURVE SMOOTH"
);
}
);
width = 989;
},
{
anchors = (
{
name = bottom;
position = "{463, 0}";
},
{
name = top;
position = "{586, 700}";
}
);
layerId = "D92B54DD-6BE9-4383-803D-42A15BF32189";
paths = (
{
closed = 1;
nodes = (
"121 -10 OFFCURVE",
"152 14 OFFCURVE",
"159 50 CURVE SMOOTH",
"231 462 LINE SMOOTH",
"249 564 OFFCURVE",
"291 605 OFFCURVE",
"377 605 CURVE SMOOTH",
"453 605 OFFCURVE",
"488 551 OFFCURVE",
"472 462 CURVE SMOOTH",
"400 50 LINE SMOOTH",
"393 13 OFFCURVE",
"414 -10 OFFCURVE",
"454 -10 CURVE SMOOTH",
"494 -10 OFFCURVE",
"524 13 OFFCURVE",
"531 50 CURVE SMOOTH",
"603 462 LINE SMOOTH",
"620 554 OFFCURVE",
"672 605 OFFCURVE",
"750 605 CURVE SMOOTH",
"835 605 OFFCURVE",
"862 564 OFFCURVE",
"844 462 CURVE SMOOTH",
"772 50 LINE SMOOTH",
"765 13 OFFCURVE",
"787 -10 OFFCURVE",
"827 -10 CURVE SMOOTH",
"867 -10 OFFCURVE",
"898 14 OFFCURVE",
"905 50 CURVE SMOOTH",
"977 462 LINE SMOOTH",
"1003 612 OFFCURVE",
"921 710 OFFCURVE",
"769 710 CURVE SMOOTH",
"692 710 OFFCURVE",
"617 672 OFFCURVE",
"559 604 CURVE",
"522 673 OFFCURVE",
"461 710 OFFCURVE",
"386 710 CURVE SMOOTH",
"226 710 OFFCURVE",
"127 625 OFFCURVE",
"98 462 CURVE SMOOTH",
"26 50 LINE SMOOTH",
"19 13 OFFCURVE",
"41 -10 OFFCURVE",
"81 -10 CURVE SMOOTH"
);
}
);
width = 1000;
}
);
leftKerningGroup = M;
note = M;
rightKerningGroup = M;
unicode = 004D;
},
{
glyphname = N;
lastChange = "2018-07-09 11:12:12 +0000";
layers = (
{
anchors = (
{
name = bottom;
position = "{367, 0}";
},
{
name = top;
position = "{367, 700}";
}
);
background = {
paths = (
{
closed = 1;
nodes = (
"124 -10 OFFCURVE",
"133 2 OFFCURVE",
"133 22 CURVE SMOOTH",
"133 557 LINE SMOOTH",
"133 622 OFFCURVE",
"163 659 OFFCURVE",
"229 659 CURVE SMOOTH",
"358 659 OFFCURVE",
"412 500 OFFCURVE",
"539 246 CURVE SMOOTH",
"584 156 LINE",
"584 22 LINE SMOOTH",
"584 2 OFFCURVE",
"592 -10 OFFCURVE",
"610 -10 CURVE SMOOTH",
"628 -10 OFFCURVE",
"637 2 OFFCURVE",
"637 22 CURVE SMOOTH",
"637 678 LINE SMOOTH",
"637 698 OFFCURVE",
"628 710 OFFCURVE",
"610 710 CURVE SMOOTH",
"592 710 OFFCURVE",
"584 698 OFFCURVE",
"584 678 CURVE SMOOTH",
"584 269 LINE",
"559 320 LINE SMOOTH",
"454 535 OFFCURVE",
"382 710 OFFCURVE",
"229 710 CURVE SMOOTH",
"152 710 OFFCURVE",
"80 662 OFFCURVE",
"80 557 CURVE SMOOTH",
"80 22 LINE SMOOTH",
"80 2 OFFCURVE",
"88 -10 OFFCURVE",
"106 -10 CURVE SMOOTH"
);
}
);
};
layerId = "0B1DFD06-3317-40CA-B510-4969A0718C16";
paths = (
{
closed = 1;
nodes = (
"129 -10 OFFCURVE",
"139 1 OFFCURVE",
"139 22 CURVE SMOOTH",
"139 444 LINE SMOOTH",
"139 583 OFFCURVE",
"223 661 OFFCURVE",
"371 661 CURVE SMOOTH",
"519 661 OFFCURVE",
"603 583 OFFCURVE",
"603 444 CURVE SMOOTH",
"603 22 LINE SMOOTH",
"603 1 OFFCURVE",
"613 -10 OFFCURVE",
"630 -10 CURVE SMOOTH",
"647 -10 OFFCURVE",
"656 1 OFFCURVE",
"656 22 CURVE SMOOTH",
"656 441 LINE SMOOTH",
"656 610 OFFCURVE",
"550 710 OFFCURVE",
"371 710 CURVE SMOOTH",
"192 710 OFFCURVE",
"86 610 OFFCURVE",
"86 441 CURVE SMOOTH",
"86 22 LINE SMOOTH",
"86 1 OFFCURVE",
"95 -10 OFFCURVE",
"112 -10 CURVE SMOOTH"
);
}
);
width = 742;
},
{
anchors = (
{
name = bottom;
position = "{368, 0}";
},
{
name = top;
position = "{368, 700}";
}
);
layerId = "258BB4CE-589F-454F-8E39-237B943AA0B4";
paths = (
{
closed = 1;
nodes = (
"157 -10 OFFCURVE",
"184 14 OFFCURVE",
"184 50 CURVE SMOOTH",
"184 430 LINE SMOOTH",
"184 544 OFFCURVE",
"247 605 OFFCURVE",
"364 605 CURVE SMOOTH",
"481 605 OFFCURVE",
"544 544 OFFCURVE",
"544 430 CURVE SMOOTH",
"544 50 LINE SMOOTH",
"544 14 OFFCURVE",
"571 -10 OFFCURVE",
"611 -10 CURVE SMOOTH",
"651 -10 OFFCURVE",
"677 13 OFFCURVE",
"677 50 CURVE SMOOTH",
"677 427 LINE SMOOTH",
"677 604 OFFCURVE",
"560 710 OFFCURVE",
"364 710 CURVE SMOOTH",
"168 710 OFFCURVE",
"51 604 OFFCURVE",
"51 427 CURVE SMOOTH",
"51 50 LINE SMOOTH",
"51 13 OFFCURVE",
"77 -10 OFFCURVE",
"117 -10 CURVE SMOOTH"
);
}
);
width = 728;
},
{
anchors = (
{
name = bottom;
position = "{365, 0}";
},
{
name = top;
position = "{365, 700}";
}
);
layerId = "8ED59CAD-D047-43C0-8308-3370007B39AA";
paths = (
{
closed = 1;
nodes = (
"135 -10 OFFCURVE",
"149 5 OFFCURVE",
"149 30 CURVE SMOOTH",
"149 441 LINE SMOOTH",
"149 567 OFFCURVE",
"232 646 OFFCURVE",
"366 646 CURVE SMOOTH",
"502 646 OFFCURVE",
"582 570 OFFCURVE",
"582 441 CURVE SMOOTH",
"582 30 LINE SMOOTH",
"582 5 OFFCURVE",
"597 -10 OFFCURVE",
"620 -10 CURVE SMOOTH",
"644 -10 OFFCURVE",
"657 5 OFFCURVE",
"657 30 CURVE SMOOTH",
"657 438 LINE SMOOTH",
"657 606 OFFCURVE",
"545 710 OFFCURVE",
"366 710 CURVE SMOOTH",
"186 710 OFFCURVE",
"74 606 OFFCURVE",
"74 438 CURVE SMOOTH",
"74 30 LINE SMOOTH",
"74 5 OFFCURVE",
"88 -10 OFFCURVE",
"111 -10 CURVE SMOOTH"
);
}
);
width = 731;
},
{
anchors = (
{
name = bottom;
position = "{338, 0}";
},
{
name = top;
position = "{455, 700}";
}
);
layerId = "6D0DA379-F071-4911-97B5-1F20F456FBFD";
paths = (
{
closed = 1;
nodes = (
"87 -10 OFFCURVE",
"99 1 OFFCURVE",
"103 22 CURVE SMOOTH",
"178 444 LINE SMOOTH",
"203 586 OFFCURVE",
"296 661 OFFCURVE",
"448 661 CURVE SMOOTH",
"603 661 OFFCURVE",
"668 589 OFFCURVE",
"642 444 CURVE SMOOTH",
"567 22 LINE SMOOTH",
"563 1 OFFCURVE",
"570 -10 OFFCURVE",
"588 -10 CURVE SMOOTH",
"605 -10 OFFCURVE",
"616 1 OFFCURVE",
"620 22 CURVE SMOOTH",
"694 441 LINE SMOOTH",
"724 608 OFFCURVE",
"632 710 OFFCURVE",
"451 710 CURVE SMOOTH",
"270 710 OFFCURVE",
"155 615 OFFCURVE",
"124 441 CURVE SMOOTH",
"50 22 LINE SMOOTH",
"46 1 OFFCURVE",
"53 -10 OFFCURVE",
"70 -10 CURVE SMOOTH"
);
}
);
width = 750;
},
{
anchors = (
{
name = bottom;
position = "{335, 0}";
},
{
name = top;
position = "{445, 700}";
}
);
layerId = "71BB0B28-5B77-4945-A3C0-334755DB3BD8";
paths = (
{
closed = 1;
nodes = (
"94 -10 OFFCURVE",
"111 6 OFFCURVE",
"115 30 CURVE SMOOTH",
"188 441 LINE SMOOTH",
"211 569 OFFCURVE",
"306 646 OFFCURVE",
"441 646 CURVE SMOOTH",
"581 646 OFFCURVE",
"643 574 OFFCURVE",
"620 441 CURVE SMOOTH",
"548 30 LINE SMOOTH",
"544 7 OFFCURVE",
"553 -10 OFFCURVE",
"579 -10 CURVE SMOOTH",
"600 -10 OFFCURVE",
"618 2 OFFCURVE",
"623 30 CURVE SMOOTH",
"695 438 LINE SMOOTH",
"724 603 OFFCURVE",
"625 710 OFFCURVE",
"445 710 CURVE SMOOTH",
"265 710 OFFCURVE",
"143 612 OFFCURVE",
"112 438 CURVE SMOOTH",
"40 30 LINE SMOOTH",
"35 2 OFFCURVE",
"49 -10 OFFCURVE",
"70 -10 CURVE SMOOTH"
);
}
);
width = 739;
},
{
anchors = (
{
name = bottom;
position = "{327, 0}";
},
{
name = top;
position = "{441, 700}";
}
);
layerId = "D92B54DD-6BE9-4383-803D-42A15BF32189";
paths = (
{
closed = 1;
nodes = (
"116 -10 OFFCURVE",
"147 14 OFFCURVE",
"154 50 CURVE SMOOTH",
"221 430 LINE SMOOTH",
"241 544 OFFCURVE",
"315 605 OFFCURVE",
"432 605 CURVE SMOOTH",
"551 605 OFFCURVE",
"602 546 OFFCURVE",
"581 430 CURVE SMOOTH",
"514 50 LINE SMOOTH",
"507 14 OFFCURVE",
"530 -10 OFFCURVE",
"570 -10 CURVE SMOOTH",
"610 -10 OFFCURVE",
"640 13 OFFCURVE",
"647 50 CURVE SMOOTH",
"713 427 LINE SMOOTH",
"742 596 OFFCURVE",
"634 710 OFFCURVE",
"444 710 CURVE SMOOTH",
"240 710 OFFCURVE",
"120 615 OFFCURVE",
"87 427 CURVE SMOOTH",
"21 50 LINE SMOOTH",
"14 13 OFFCURVE",
"36 -10 OFFCURVE",
"76 -10 CURVE SMOOTH"
);
}
);
width = 737;
}
);
leftKerningGroup = N;
note = N;
rightKerningGroup = N;
unicode = 004E;
},
{
glyphname = O;
lastChange = "2018-07-09 11:12:12 +0000";
layers = (
{
anchors = (
{
name = bottom;
position = "{410, 0}";
},
{
name = center;
position = "{410, 350}";
},
{
name = ogonek;
position = "{456, 10}";
},
{
name = top;
position = "{410, 700}";
},
{
name = topleft;
position = "{31, 700}";
},
{
name = topright;
position = "{650, 645}";
}
);
layerId = "0B1DFD06-3317-40CA-B510-4969A0718C16";
paths = (
{
closed = 1;
nodes = (
"598 -10 OFFCURVE",
"759 127 OFFCURVE",
"759 350 CURVE SMOOTH",
"759 573 OFFCURVE",
"598 710 OFFCURVE",
"410 710 CURVE SMOOTH",
"222 710 OFFCURVE",
"61 573 OFFCURVE",
"61 350 CURVE SMOOTH",
"61 127 OFFCURVE",
"222 -10 OFFCURVE",
"410 -10 CURVE SMOOTH"
);
},
{
closed = 1;
nodes = (
"247 39 OFFCURVE",
"114 147 OFFCURVE",
"114 350 CURVE SMOOTH",
"114 553 OFFCURVE",
"247 661 OFFCURVE",
"410 661 CURVE SMOOTH",
"573 661 OFFCURVE",
"706 553 OFFCURVE",
"706 350 CURVE SMOOTH",
"706 147 OFFCURVE",
"573 39 OFFCURVE",
"410 39 CURVE SMOOTH"
);
}
);
width = 820;
},
{
anchors = (
{
name = bottom;
position = "{420, 0}";
},
{
name = center;
position = "{435, 350}";
},
{
name = ogonek;
position = "{471, 10}";
},
{
name = top;
position = "{420, 700}";
},
{
name = topleft;
position = "{56, 700}";
},
{
name = topright;
position = "{677, 637}";
}
);
layerId = "258BB4CE-589F-454F-8E39-237B943AA0B4";
paths = (
{
closed = 1;
nodes = (
"658 -10 OFFCURVE",
"794 139 OFFCURVE",
"794 350 CURVE SMOOTH",
"794 561 OFFCURVE",
"658 710 OFFCURVE",
"420 710 CURVE SMOOTH",
"182 710 OFFCURVE",
"46 561 OFFCURVE",
"46 350 CURVE SMOOTH",
"46 139 OFFCURVE",
"182 -10 OFFCURVE",
"420 -10 CURVE SMOOTH"
);
},
{
closed = 1;
nodes = (
"266 95 OFFCURVE",
"180 195 OFFCURVE",
"180 350 CURVE SMOOTH",
"180 505 OFFCURVE",
"266 610 OFFCURVE",
"420 605 CURVE SMOOTH",
"574 600 OFFCURVE",
"660 505 OFFCURVE",
"660 350 CURVE SMOOTH",
"660 195 OFFCURVE",
"574 95 OFFCURVE",
"420 95 CURVE SMOOTH"
);
}
);
width = 840;
},
{
anchors = (
{
name = bottom;
position = "{410, 0}";
},
{
name = center;
position = "{414, 350}";
},
{
name = ogonek;
position = "{459, 10}";
},
{
name = top;
position = "{410, 700}";
},
{
name = topleft;
position = "{35, 700}";
},
{
name = topright;
position = "{655, 643}";
}
);
layerId = "8ED59CAD-D047-43C0-8308-3370007B39AA";
paths = (
{
closed = 1;
nodes = (
"612 -10 OFFCURVE",
"766 131 OFFCURVE",
"766 350 CURVE SMOOTH",
"766 570 OFFCURVE",
"612 710 OFFCURVE",
"410 710 CURVE SMOOTH",
"208 710 OFFCURVE",
"54 570 OFFCURVE",
"54 350 CURVE SMOOTH",
"54 131 OFFCURVE",
"208 -10 OFFCURVE",
"410 -10 CURVE SMOOTH"
);
},
{
closed = 1;
nodes = (
"250 54 OFFCURVE",
"129 160 OFFCURVE",
"129 350 CURVE SMOOTH",
"129 539 OFFCURVE",
"250 647 OFFCURVE",
"410 646 CURVE SMOOTH",
"565 645 OFFCURVE",
"691 543 OFFCURVE",
"691 350 CURVE SMOOTH",
"691 160 OFFCURVE",
"570 54 OFFCURVE",
"410 54 CURVE SMOOTH"
);
}
);
width = 820;
},
{
anchors = (
{
name = bottom;
position = "{370, 0}";
},
{
name = center;
position = "{432, 350}";
},
{
name = ogonek;
position = "{691, 10}";
},
{
name = top;
position = "{493, 700}";
},
{
name = topleft;
position = "{114, 700}";
},
{
name = topright;
position = "{703, 645}";
}
);
layerId = "6D0DA379-F071-4911-97B5-1F20F456FBFD";
paths = (
{
closed = 1;
nodes = (
"605 -10 OFFCURVE",
"788 185 OFFCURVE",
"788 414 CURVE SMOOTH",
"788 598 OFFCURVE",
"669 710 OFFCURVE",
"492 710 CURVE SMOOTH",
"258 710 OFFCURVE",
"76 516 OFFCURVE",
"76 287 CURVE SMOOTH",
"76 101 OFFCURVE",
"195 -10 OFFCURVE",
"371 -10 CURVE SMOOTH"
);
},
{
closed = 1;
nodes = (
"224 39 OFFCURVE",
"129 128 OFFCURVE",
"129 288 CURVE SMOOTH",
"129 492 OFFCURVE",
"284 661 OFFCURVE",
"490 661 CURVE SMOOTH",
"640 661 OFFCURVE",
"735 572 OFFCURVE",
"735 412 CURVE SMOOTH",
"735 208 OFFCURVE",
"580 39 OFFCURVE",
"374 39 CURVE SMOOTH"
);
}
);
width = 828;
},
{
anchors = (
{
name = bottom;
position = "{371, 0}";
},
{
name = center;
position = "{437, 350}";
},
{
name = ogonek;
position = "{696, 10}";
},
{
name = top;
position = "{495, 700}";
},
{
name = topleft;
position = "{119, 700}";
},
{
name = topright;
position = "{702, 643}";
}
);
layerId = "71BB0B28-5B77-4945-A3C0-334755DB3BD8";
paths = (
{
closed = 1;
nodes = (
"609 -10 OFFCURVE",
"795 179 OFFCURVE",
"795 411 CURVE SMOOTH",
"795 594 OFFCURVE",
"675 710 OFFCURVE",
"490 710 CURVE SMOOTH",
"256 710 OFFCURVE",
"70 521 OFFCURVE",
"70 288 CURVE SMOOTH",
"70 105 OFFCURVE",
"190 -10 OFFCURVE",
"376 -10 CURVE SMOOTH"
);
},
{
closed = 1;
nodes = (
"233 54 OFFCURVE",
"146 140 OFFCURVE",
"146 289 CURVE SMOOTH",
"146 488 OFFCURVE",
"293 646 OFFCURVE",
"486 646 CURVE SMOOTH",
"632 646 OFFCURVE",
"720 559 OFFCURVE",
"720 410 CURVE SMOOTH",
"720 211 OFFCURVE",
"572 54 OFFCURVE",
"379 54 CURVE SMOOTH"
);
}
);
width = 828;
},
{
anchors = (
{
name = bottom;
position = "{380, 0}";
},
{
name = center;
position = "{457, 350}";
},
{
name = ogonek;
position = "{716, 10}";
},
{
name = top;
position = "{504, 700}";
},
{
name = topleft;
position = "{139, 700}";
},
{
name = topright;
position = "{750, 637}";
}
);
layerId = "D92B54DD-6BE9-4383-803D-42A15BF32189";
paths = (
{
closed = 1;
nodes = (
"640 -10 OFFCURVE",
"822 164 OFFCURVE",
"822 404 CURVE SMOOTH",
"822 597 OFFCURVE",
"702 710 OFFCURVE",
"496 710 CURVE SMOOTH",
"244 710 OFFCURVE",
"62 537 OFFCURVE",
"62 297 CURVE SMOOTH",
"62 104 OFFCURVE",
"183 -10 OFFCURVE",
"389 -10 CURVE SMOOTH"
);
},
{
closed = 1;
nodes = (
"266 95 OFFCURVE",
"196 165 OFFCURVE",
"196 294 CURVE SMOOTH",
"196 473 OFFCURVE",
"318 605 OFFCURVE",
"485 605 CURVE SMOOTH",
"615 605 OFFCURVE",
"688 532 OFFCURVE",
"688 401 CURVE SMOOTH",
"688 226 OFFCURVE",
"562 95 OFFCURVE",
"393 95 CURVE SMOOTH"
);
}
);
width = 848;
}
);
leftKerningGroup = O;
note = O;
rightKerningGroup = O;
unicode = 004F;
},
{
glyphname = P;
lastChange = "2018-07-09 11:12:12 +0000";
layers = (
{
anchors = (
{
name = bottom;
position = "{355, 0}";
},
{
name = top;
position = "{355, 700}";
}
);
layerId = "0B1DFD06-3317-40CA-B510-4969A0718C16";
paths = (
{
closed = 1;
nodes = (
"129 -10 OFFCURVE",
"139 1 OFFCURVE",
"139 22 CURVE SMOOTH",
"139 245 LINE",
"374 245 LINE SMOOTH",
"549 245 OFFCURVE",
"648 324 OFFCURVE",
"648 464 CURVE SMOOTH",
"648 622 OFFCURVE",
"558 700 OFFCURVE",
"373 700 CURVE SMOOTH",
"202 700 LINE SMOOTH",
"129 700 OFFCURVE",
"86 659 OFFCURVE",
"86 590 CURVE SMOOTH",
"86 22 LINE SMOOTH",
"86 1 OFFCURVE",
"95 -10 OFFCURVE",
"112 -10 CURVE SMOOTH"
);
},
{
closed = 1;
nodes = (
"139 292 LINE",
"139 593 LINE SMOOTH",
"139 629 OFFCURVE",
"161 653 OFFCURVE",
"196 653 CURVE SMOOTH",
"378 653 LINE SMOOTH",
"526 653 OFFCURVE",
"594 594 OFFCURVE",
"594 464 CURVE SMOOTH",
"594 352 OFFCURVE",
"518 292 OFFCURVE",
"376 292 CURVE SMOOTH"
);
}
);
width = 709;
},
{
anchors = (
{
name = bottom;
position = "{365, 0}";
},
{
name = top;
position = "{365, 700}";
}
);
layerId = "258BB4CE-589F-454F-8E39-237B943AA0B4";
paths = (
{
closed = 1;
nodes = (
"162 -10 OFFCURVE",
"189 14 OFFCURVE",
"189 50 CURVE SMOOTH",
"189 204 LINE",
"384 204 LINE SMOOTH",
"584 204 OFFCURVE",
"688 289 OFFCURVE",
"688 452 CURVE SMOOTH",
"688 614 OFFCURVE",
"581 700 OFFCURVE",
"378 700 CURVE SMOOTH",
"209 700 LINE SMOOTH",
"113 700 OFFCURVE",
"56 645 OFFCURVE",
"56 552 CURVE SMOOTH",
"56 50 LINE SMOOTH",
"56 13 OFFCURVE",
"82 -10 OFFCURVE",
"122 -10 CURVE SMOOTH"
);
},
{
closed = 1;
nodes = (
"189 307 LINE",
"189 548 LINE SMOOTH",
"189 579 OFFCURVE",
"205 597 OFFCURVE",
"232 597 CURVE SMOOTH",
"383 597 LINE SMOOTH",
"498 597 OFFCURVE",
"554 549 OFFCURVE",
"554 452 CURVE SMOOTH",
"554 356 OFFCURVE",
"497 307 OFFCURVE",
"383 307 CURVE SMOOTH"
);
}
);
width = 734;
},
{
anchors = (
{
name = bottom;
position = "{360, 0}";
},
{
name = top;
position = "{360, 700}";
}
);
layerId = "8ED59CAD-D047-43C0-8308-3370007B39AA";
paths = (
{
closed = 1;
nodes = (
"141 -10 OFFCURVE",
"155 5 OFFCURVE",
"155 30 CURVE SMOOTH",
"155 232 LINE",
"381 232 LINE SMOOTH",
"562 232 OFFCURVE",
"662 314 OFFCURVE",
"662 461 CURVE SMOOTH",
"662 620 OFFCURVE",
"566 700 OFFCURVE",
"377 700 CURVE SMOOTH",
"207 700 LINE SMOOTH",
"127 700 OFFCURVE",
"80 654 OFFCURVE",
"80 580 CURVE SMOOTH",
"80 30 LINE SMOOTH",
"80 5 OFFCURVE",
"94 -10 OFFCURVE",
"117 -10 CURVE SMOOTH"
);
},
{
closed = 1;
nodes = (
"155 295 LINE",
"155 580 LINE SMOOTH",
"155 615 OFFCURVE",
"176 638 OFFCURVE",
"208 638 CURVE SMOOTH",
"382 638 LINE SMOOTH",
"507 638 OFFCURVE",
"585 592 OFFCURVE",
"585 461 CURVE SMOOTH",
"585 334 OFFCURVE",
"501 295 OFFCURVE",
"381 295 CURVE SMOOTH"
);
}
);
width = 717;
},
{
anchors = (
{
name = bottom;
position = "{275, -10}";
},
{
name = top;
position = "{524, 700}";
}
);
layerId = "6D0DA379-F071-4911-97B5-1F20F456FBFD";
paths = (
{
closed = 1;
nodes = (
"90 -10 OFFCURVE",
"101 1 OFFCURVE",
"104 22 CURVE SMOOTH",
"143 245 LINE",
"390 245 LINE SMOOTH",
"582 245 OFFCURVE",
"696 347 OFFCURVE",
"696 518 CURVE SMOOTH",
"696 637 OFFCURVE",
"613 700 OFFCURVE",
"458 700 CURVE SMOOTH",
"287 700 LINE SMOOTH",
"210 700 OFFCURVE",
"164 663 OFFCURVE",
"151 590 CURVE SMOOTH",
"51 22 LINE SMOOTH",
"48 5 OFFCURVE",
"58 -10 OFFCURVE",
"73 -10 CURVE SMOOTH"
);
},
{
closed = 1;
nodes = (
"152 292 LINE",
"205 593 LINE SMOOTH",
"211 629 OFFCURVE",
"237 653 OFFCURVE",
"272 653 CURVE SMOOTH",
"454 653 LINE SMOOTH",
"583 653 OFFCURVE",
"642 609 OFFCURVE",
"642 514 CURVE SMOOTH",
"642 370 OFFCURVE",
"553 292 OFFCURVE",
"389 292 CURVE SMOOTH"
);
}
);
width = 718;
},
{
anchors = (
{
name = bottom;
position = "{281, -3}";
},
{
name = top;
position = "{528, 700}";
}
);
layerId = "71BB0B28-5B77-4945-A3C0-334755DB3BD8";
paths = (
{
closed = 1;
nodes = (
"100 -10 OFFCURVE",
"117 3 OFFCURVE",
"122 30 CURVE SMOOTH",
"158 232 LINE",
"394 232 LINE SMOOTH",
"592 232 OFFCURVE",
"710 338 OFFCURVE",
"710 515 CURVE SMOOTH",
"710 635 OFFCURVE",
"623 700 OFFCURVE",
"462 700 CURVE SMOOTH",
"291 700 LINE SMOOTH",
"212 700 OFFCURVE",
"158 658 OFFCURVE",
"144 580 CURVE SMOOTH",
"47 30 LINE SMOOTH",
"43 8 OFFCURVE",
"57 -10 OFFCURVE",
"78 -10 CURVE SMOOTH"
);
},
{
closed = 1;
nodes = (
"169 295 LINE",
"219 580 LINE SMOOTH",
"225 615 OFFCURVE",
"250 638 OFFCURVE",
"282 638 CURVE SMOOTH",
"456 638 LINE SMOOTH",
"564 638 OFFCURVE",
"632 604 OFFCURVE",
"632 508 CURVE SMOOTH",
"632 368 OFFCURVE",
"551 295 OFFCURVE",
"395 295 CURVE SMOOTH"
);
}
);
width = 725;
},
{
anchors = (
{
name = bottom;
position = "{285, 0}";
},
{
name = top;
position = "{531, 700}";
}
);
layerId = "D92B54DD-6BE9-4383-803D-42A15BF32189";
paths = (
{
closed = 1;
nodes = (
"124 -11 OFFCURVE",
"152 12 OFFCURVE",
"159 49 CURVE SMOOTH",
"186 204 LINE",
"398 204 LINE SMOOTH",
"598 204 OFFCURVE",
"734 324 OFFCURVE",
"734 502 CURVE SMOOTH",
"734 640 OFFCURVE",
"651 700 OFFCURVE",
"462 700 CURVE SMOOTH",
"293 700 LINE SMOOTH",
"197 700 OFFCURVE",
"131 645 OFFCURVE",
"114 552 CURVE SMOOTH",
"26 49 LINE SMOOTH",
"20 15 OFFCURVE",
"45 -11 OFFCURVE",
"85 -11 CURVE SMOOTH"
);
},
{
closed = 1;
nodes = (
"204 307 LINE",
"247 548 LINE SMOOTH",
"252 579 OFFCURVE",
"271 597 OFFCURVE",
"298 597 CURVE SMOOTH",
"458 597 LINE SMOOTH",
"562 597 OFFCURVE",
"599 570 OFFCURVE",
"599 492 CURVE SMOOTH",
"599 380 OFFCURVE",
"520 307 OFFCURVE",
"398 307 CURVE SMOOTH"
);
}
);
width = 743;
}
);
note = P;
rightKerningGroup = P;
unicode = 0050;
},
{
glyphname = Q;
lastChange = "2018-07-09 11:12:12 +0000";
layers = (
{
anchors = (
{
name = bottom;
position = "{410, 0}";
},
{
name = top;
position = "{410, 700}";
}
);
layerId = "0B1DFD06-3317-40CA-B510-4969A0718C16";
paths = (
{
closed = 1;
nodes = (
"691 -29 OFFCURVE",
"692 -19 OFFCURVE",
"684 -1 CURVE SMOOTH",
"670 30 OFFCURVE",
"659 48 OFFCURVE",
"644 78 CURVE",
"714 140 OFFCURVE",
"759 234 OFFCURVE",
"759 350 CURVE SMOOTH",
"759 573 OFFCURVE",
"598 710 OFFCURVE",
"410 710 CURVE SMOOTH",
"222 710 OFFCURVE",
"61 573 OFFCURVE",
"61 350 CURVE SMOOTH",
"61 127 OFFCURVE",
"222 -10 OFFCURVE",
"410 -10 CURVE SMOOTH",
"484 -10 OFFCURVE",
"547 10 OFFCURVE",
"604 49 CURVE",
"618 24 OFFCURVE",
"636 -9 OFFCURVE",
"646 -29 CURVE SMOOTH",
"652 -41 OFFCURVE",
"667 -43 OFFCURVE",
"679 -36 CURVE SMOOTH"
);
},
{
closed = 1;
nodes = (
"349 39 OFFCURVE",
"291 55 OFFCURVE",
"244 85 CURVE",
"275 139 OFFCURVE",
"332 182 OFFCURVE",
"419 182 CURVE SMOOTH",
"500 182 OFFCURVE",
"547 142 OFFCURVE",
"581 89 CURVE",
"533 57 OFFCURVE",
"475 39 OFFCURVE",
"410 39 CURVE SMOOTH"
);
},
{
closed = 1;
nodes = (
"150 166 OFFCURVE",
"114 246 OFFCURVE",
"114 350 CURVE SMOOTH",
"114 553 OFFCURVE",
"247 661 OFFCURVE",
"410 661 CURVE SMOOTH",
"573 661 OFFCURVE",
"706 553 OFFCURVE",
"706 350 CURVE SMOOTH",
"706 249 OFFCURVE",
"672 171 OFFCURVE",
"619 119 CURVE",
"577 184 OFFCURVE",
"514 231 OFFCURVE",
"417 231 CURVE SMOOTH",
"321 231 OFFCURVE",
"246 180 OFFCURVE",
"205 114 CURVE"
);
}
);
width = 820;
},
{
anchors = (
{
name = bottom;
position = "{420, 0}";
},
{
name = top;
position = "{420, 700}";
}
);
layerId = "258BB4CE-589F-454F-8E39-237B943AA0B4";
paths = (
{
closed = 1;
nodes = (
"731 -14 OFFCURVE",
"735 14 OFFCURVE",
"718 47 CURVE SMOOTH",
"711 61 OFFCURVE",
"702 71 OFFCURVE",
"693 89 CURVE",
"759 152 OFFCURVE",
"794 243 OFFCURVE",
"794 350 CURVE SMOOTH",
"794 561 OFFCURVE",
"658 710 OFFCURVE",
"420 710 CURVE SMOOTH",
"182 710 OFFCURVE",
"46 561 OFFCURVE",
"46 350 CURVE SMOOTH",
"46 139 OFFCURVE",
"182 -13 OFFCURVE",
"420 -10 CURVE SMOOTH",
"489 -9 OFFCURVE",
"550 4 OFFCURVE",
"601 27 CURVE",
"610 11 OFFCURVE",
"618 -2 OFFCURVE",
"624 -14 CURVE SMOOTH",
"637 -40 OFFCURVE",
"672 -48 OFFCURVE",
"698 -33 CURVE SMOOTH"
);
},
{
closed = 1;
nodes = (
"372 95 OFFCURVE",
"331 105 OFFCURVE",
"297 123 CURVE",
"326 159 OFFCURVE",
"371 180 OFFCURVE",
"419 180 CURVE SMOOTH",
"466 180 OFFCURVE",
"510 158 OFFCURVE",
"539 121 CURVE",
"506 104 OFFCURVE",
"466 95 OFFCURVE",
"420 95 CURVE SMOOTH"
);
},
{
closed = 1;
nodes = (
"193 237 OFFCURVE",
"180 289 OFFCURVE",
"180 350 CURVE SMOOTH",
"180 505 OFFCURVE",
"266 610 OFFCURVE",
"420 605 CURVE SMOOTH",
"574 600 OFFCURVE",
"660 505 OFFCURVE",
"660 350 CURVE SMOOTH",
"660 288 OFFCURVE",
"646 235 OFFCURVE",
"620 193 CURVE",
"569 249 OFFCURVE",
"494 281 OFFCURVE",
"417 281 CURVE SMOOTH",
"346 281 OFFCURVE",
"273 249 OFFCURVE",
"218 196 CURVE"
);
}
);
width = 840;
},
{
anchors = (
{
name = bottom;
position = "{407, 0}";
},
{
name = top;
position = "{407, 700}";
}
);
layerId = "8ED59CAD-D047-43C0-8308-3370007B39AA";
paths = (
{
closed = 1;
nodes = (
"699 -25 OFFCURVE",
"702 -10 OFFCURVE",
"691 12 CURVE SMOOTH",
"680 36 OFFCURVE",
"668 54 OFFCURVE",
"655 81 CURVE",
"721 141 OFFCURVE",
"766 233 OFFCURVE",
"766 350 CURVE SMOOTH",
"766 570 OFFCURVE",
"612 710 OFFCURVE",
"410 710 CURVE SMOOTH",
"208 710 OFFCURVE",
"54 570 OFFCURVE",
"54 350 CURVE SMOOTH",
"54 131 OFFCURVE",
"208 -10 OFFCURVE",
"410 -10 CURVE SMOOTH",
"485 -10 OFFCURVE",
"545 9 OFFCURVE",
"601 43 CURVE",
"615 17 OFFCURVE",
"626 -3 OFFCURVE",
"637 -25 CURVE SMOOTH",
"645 -41 OFFCURVE",
"665 -45 OFFCURVE",
"682 -35 CURVE SMOOTH"
);
},
{
closed = 1;
nodes = (
"353 54 OFFCURVE",
"299 69 OFFCURVE",
"256 96 CURVE",
"286 145 OFFCURVE",
"342 181 OFFCURVE",
"416 181 CURVE SMOOTH",
"487 181 OFFCURVE",
"534 146 OFFCURVE",
"566 98 CURVE",
"524 71 OFFCURVE",
"470 54 OFFCURVE",
"410 54 CURVE SMOOTH"
);
},
{
closed = 1;
nodes = (
"159 186 OFFCURVE",
"129 258 OFFCURVE",
"129 350 CURVE SMOOTH",
"129 539 OFFCURVE",
"250 647 OFFCURVE",
"410 646 CURVE SMOOTH",
"565 645 OFFCURVE",
"691 543 OFFCURVE",
"691 350 CURVE SMOOTH",
"691 260 OFFCURVE",
"662 189 OFFCURVE",
"616 140 CURVE",
"572 202 OFFCURVE",
"506 245 OFFCURVE",
"414 245 CURVE SMOOTH",
"326 245 OFFCURVE",
"251 200 OFFCURVE",
"206 137 CURVE"
);
}
);
width = 820;
},
{
anchors = (
{
name = bottom;
position = "{370, 0}";
},
{
name = top;
position = "{493, 700}";
}
);
layerId = "6D0DA379-F071-4911-97B5-1F20F456FBFD";
paths = (
{
closed = 1;
nodes = (
"631 -40 OFFCURVE",
"646 -33 OFFCURVE",
"646 -15 CURVE SMOOTH",
"646 -11 OFFCURVE",
"644 0 OFFCURVE",
"642 5 CURVE SMOOTH",
"633 36 OFFCURVE",
"627 48 OFFCURVE",
"618 78 CURVE",
"723 158 OFFCURVE",
"787 289 OFFCURVE",
"787 422 CURVE SMOOTH",
"787 602 OFFCURVE",
"657 710 OFFCURVE",
"495 710 CURVE SMOOTH",
"257 710 OFFCURVE",
"77 516 OFFCURVE",
"77 280 CURVE SMOOTH",
"77 99 OFFCURVE",
"213 -10 OFFCURVE",
"368 -10 CURVE SMOOTH",
"449 -10 OFFCURVE",
"515 10 OFFCURVE",
"573 49 CURVE",
"582 24 OFFCURVE",
"593 -9 OFFCURVE",
"601 -29 CURVE SMOOTH",
"604 -36 OFFCURVE",
"612 -40 OFFCURVE",
"620 -40 CURVE SMOOTH"
);
},
{
closed = 1;
nodes = (
"316 39 OFFCURVE",
"260 54 OFFCURVE",
"218 84 CURVE",
"259 138 OFFCURVE",
"324 182 OFFCURVE",
"411 182 CURVE SMOOTH",
"494 182 OFFCURVE",
"532 143 OFFCURVE",
"557 89 CURVE",
"503 57 OFFCURVE",
"442 39 OFFCURVE",
"377 39 CURVE SMOOTH"
);
},
{
closed = 1;
nodes = (
"147 155 OFFCURVE",
"128 207 OFFCURVE",
"128 271 CURVE SMOOTH",
"128 482 OFFCURVE",
"272 661 OFFCURVE",
"487 661 CURVE SMOOTH",
"630 661 OFFCURVE",
"735 578 OFFCURVE",
"735 422 CURVE SMOOTH",
"735 311 OFFCURVE",
"688 193 OFFCURVE",
"600 119 CURVE",
"569 186 OFFCURVE",
"503 231 OFFCURVE",
"418 231 CURVE SMOOTH",
"322 231 OFFCURVE",
"237 179 OFFCURVE",
"184 113 CURVE"
);
}
);
width = 828;
},
{
anchors = (
{
name = bottom;
position = "{368, 0}";
},
{
name = top;
position = "{491, 700}";
}
);
layerId = "71BB0B28-5B77-4945-A3C0-334755DB3BD8";
paths = (
{
closed = 1;
nodes = (
"637 -40 OFFCURVE",
"657 -26 OFFCURVE",
"657 -5 CURVE SMOOTH",
"657 0 OFFCURVE",
"655 10 OFFCURVE",
"653 16 CURVE SMOOTH",
"646 37 OFFCURVE",
"639 54 OFFCURVE",
"630 81 CURVE",
"736 164 OFFCURVE",
"796 296 OFFCURVE",
"796 424 CURVE SMOOTH",
"796 600 OFFCURVE",
"672 710 OFFCURVE",
"490 710 CURVE SMOOTH",
"247 710 OFFCURVE",
"71 522 OFFCURVE",
"71 281 CURVE SMOOTH",
"71 102 OFFCURVE",
"207 -10 OFFCURVE",
"373 -10 CURVE SMOOTH",
"448 -10 OFFCURVE",
"509 9 OFFCURVE",
"569 43 CURVE",
"577 23 OFFCURVE",
"588 -9 OFFCURVE",
"594 -25 CURVE SMOOTH",
"598 -36 OFFCURVE",
"606 -40 OFFCURVE",
"618 -40 CURVE SMOOTH"
);
},
{
closed = 1;
nodes = (
"323 54 OFFCURVE",
"272 69 OFFCURVE",
"234 95 CURVE",
"271 142 OFFCURVE",
"331 181 OFFCURVE",
"409 181 CURVE SMOOTH",
"487 181 OFFCURVE",
"520 147 OFFCURVE",
"545 98 CURVE",
"493 69 OFFCURVE",
"438 54 OFFCURVE",
"381 54 CURVE SMOOTH"
);
},
{
closed = 1;
nodes = (
"161 173 OFFCURVE",
"146 223 OFFCURVE",
"146 279 CURVE SMOOTH",
"146 478 OFFCURVE",
"281 646 OFFCURVE",
"485 646 CURVE SMOOTH",
"628 646 OFFCURVE",
"720 566 OFFCURVE",
"720 421 CURVE SMOOTH",
"720 314 OFFCURVE",
"677 208 OFFCURVE",
"602 140 CURVE",
"569 203 OFFCURVE",
"506 245 OFFCURVE",
"418 245 CURVE SMOOTH",
"329 245 OFFCURVE",
"247 199 OFFCURVE",
"191 137 CURVE"
);
}
);
width = 828;
},
{
anchors = (
{
name = bottom;
position = "{370, 0}";
},
{
name = top;
position = "{493, 700}";
}
);
layerId = "D92B54DD-6BE9-4383-803D-42A15BF32189";
paths = (
{
closed = 1;
nodes = (
"665 -41 OFFCURVE",
"691 -10 OFFCURVE",
"691 20 CURVE SMOOTH",
"691 30 OFFCURVE",
"689 38 OFFCURVE",
"686 47 CURVE SMOOTH",
"685 51 OFFCURVE",
"676 76 OFFCURVE",
"669 89 CURVE",
"762 165 OFFCURVE",
"822 294 OFFCURVE",
"822 416 CURVE SMOOTH",
"822 593 OFFCURVE",
"694 710 OFFCURVE",
"490 710 CURVE SMOOTH",
"236 710 OFFCURVE",
"62 529 OFFCURVE",
"62 299 CURVE SMOOTH",
"62 100 OFFCURVE",
"192 -10 OFFCURVE",
"384 -10 CURVE SMOOTH",
"448 -10 OFFCURVE",
"506 2 OFFCURVE",
"566 27 CURVE",
"573 9 OFFCURVE",
"580 -8 OFFCURVE",
"582 -14 CURVE SMOOTH",
"584 -20 OFFCURVE",
"596 -41 OFFCURVE",
"631 -41 CURVE SMOOTH"
);
},
{
closed = 1;
nodes = (
"351 95 OFFCURVE",
"311 104 OFFCURVE",
"279 123 CURVE",
"314 159 OFFCURVE",
"363 180 OFFCURVE",
"411 180 CURVE SMOOTH",
"461 180 OFFCURVE",
"503 159 OFFCURVE",
"525 121 CURVE",
"491 104 OFFCURVE",
"446 95 OFFCURVE",
"397 95 CURVE SMOOTH"
);
},
{
closed = 1;
nodes = (
"202 223 OFFCURVE",
"196 251 OFFCURVE",
"196 291 CURVE SMOOTH",
"196 470 OFFCURVE",
"313 605 OFFCURVE",
"485 605 CURVE SMOOTH",
"609 605 OFFCURVE",
"688 535 OFFCURVE",
"688 411 CURVE SMOOTH",
"688 336 OFFCURVE",
"659 251 OFFCURVE",
"614 193 CURVE",
"573 248 OFFCURVE",
"503 281 OFFCURVE",
"427 281 CURVE SMOOTH",
"357 281 OFFCURVE",
"278 250 OFFCURVE",
"213 196 CURVE"
);
}
);
width = 848;
}
);
leftKerningGroup = O;
note = Q;
rightKerningGroup = O;
unicode = 0051;
},
{
glyphname = R;
lastChange = "2018-07-09 11:12:12 +0000";
layers = (
{
anchors = (
{
name = bottom;
position = "{359, 0}";
},
{
name = top;
position = "{359, 700}";
}
);
layerId = "0B1DFD06-3317-40CA-B510-4969A0718C16";
paths = (
{
closed = 1;
nodes = (
"86 2 OFFCURVE",
"94 -10 OFFCURVE",
"112 -10 CURVE SMOOTH",
"130 -10 OFFCURVE",
"139 2 OFFCURVE",
"139 22 CURVE SMOOTH",
"139 269 LINE",
"300 269 LINE",
"543 6 LINE SMOOTH",
"559 -11 OFFCURVE",
"573 -14 OFFCURVE",
"585 -4 CURVE SMOOTH",
"599 7 OFFCURVE",
"594 22 OFFCURVE",
"582 34 CURVE SMOOTH",
"365 269 LINE",
"555 269 OFFCURVE",
"648 342 OFFCURVE",
"648 478 CURVE SMOOTH",
"648 620 OFFCURVE",
"566 700 OFFCURVE",
"374 700 CURVE SMOOTH",
"202 700 LINE SMOOTH",
"120 700 OFFCURVE",
"86 650 OFFCURVE",
"86 590 CURVE SMOOTH",
"86 22 LINE SMOOTH"
);
},
{
closed = 1;
nodes = (
"139 593 LINE SMOOTH",
"139 629 OFFCURVE",
"161 653 OFFCURVE",
"196 653 CURVE SMOOTH",
"379 653 LINE SMOOTH",
"511 653 OFFCURVE",
"594 612 OFFCURVE",
"594 478 CURVE SMOOTH",
"594 346 OFFCURVE",
"482 316 OFFCURVE",
"377 316 CURVE SMOOTH",
"139 316 LINE"
);
}
);
width = 709;
},
{
anchors = (
{
name = bottom;
position = "{339, 0}";
},
{
name = top;
position = "{347, 700}";
}
);
layerId = "258BB4CE-589F-454F-8E39-237B943AA0B4";
paths = (
{
closed = 1;
nodes = (
"56 11 OFFCURVE",
"83 -11 OFFCURVE",
"122 -11 CURVE SMOOTH",
"160 -11 OFFCURVE",
"189 11 OFFCURVE",
"189 49 CURVE SMOOTH",
"189 238 LINE",
"291 238 LINE",
"507 16 LINE SMOOTH",
"536 -14 OFFCURVE",
"571 -19 OFFCURVE",
"603 7 CURVE SMOOTH",
"631 30 OFFCURVE",
"631 65 OFFCURVE",
"606 90 CURVE SMOOTH",
"454 242 LINE",
"594 242 OFFCURVE",
"688 325 OFFCURVE",
"688 469 CURVE SMOOTH",
"688 622 OFFCURVE",
"585 700 OFFCURVE",
"387 700 CURVE SMOOTH",
"209 700 LINE SMOOTH",
"113 700 OFFCURVE",
"56 645 OFFCURVE",
"56 552 CURVE SMOOTH",
"56 49 LINE SMOOTH"
);
},
{
closed = 1;
nodes = (
"189 548 LINE SMOOTH",
"189 579 OFFCURVE",
"205 597 OFFCURVE",
"232 597 CURVE SMOOTH",
"383 597 LINE SMOOTH",
"497 597 OFFCURVE",
"554 562 OFFCURVE",
"554 469 CURVE SMOOTH",
"554 377 OFFCURVE",
"514 341 OFFCURVE",
"383 341 CURVE SMOOTH",
"189 341 LINE"
);
}
);
width = 734;
},
{
anchors = (
{
name = bottom;
position = "{345, 0}";
},
{
name = top;
position = "{345, 700}";
}
);
layerId = "8ED59CAD-D047-43C0-8308-3370007B39AA";
paths = (
{
closed = 1;
nodes = (
"76 6 OFFCURVE",
"92 -10 OFFCURVE",
"118 -10 CURVE SMOOTH",
"144 -10 OFFCURVE",
"161 6 OFFCURVE",
"161 33 CURVE SMOOTH",
"161 253 LINE",
"296 253 LINE",
"526 11 LINE SMOOTH",
"546 -11 OFFCURVE",
"569 -16 OFFCURVE",
"589 0 CURVE",
"606 13 OFFCURVE",
"609 37 OFFCURVE",
"595 52 CURVE SMOOTH",
"401 253 LINE",
"580 253 OFFCURVE",
"666 330 OFFCURVE",
"666 474 CURVE SMOOTH",
"666 620 OFFCURVE",
"580 700 OFFCURVE",
"394 700 CURVE SMOOTH",
"207 700 LINE SMOOTH",
"119 700 OFFCURVE",
"76 648 OFFCURVE",
"76 575 CURVE SMOOTH",
"76 33 LINE SMOOTH"
);
},
{
closed = 1;
nodes = (
"161 575 LINE SMOOTH",
"161 609 OFFCURVE",
"181 631 OFFCURVE",
"212 631 CURVE SMOOTH",
"399 631 LINE SMOOTH",
"516 631 OFFCURVE",
"580 589 OFFCURVE",
"580 474 CURVE SMOOTH",
"580 360 OFFCURVE",
"516 322 OFFCURVE",
"399 322 CURVE SMOOTH",
"161 322 LINE"
);
}
);
width = 717;
},
{
anchors = (
{
name = bottom;
position = "{320, 0}";
},
{
name = top;
position = "{443, 700}";
}
);
layerId = "6D0DA379-F071-4911-97B5-1F20F456FBFD";
paths = (
{
closed = 1;
nodes = (
"48 4 OFFCURVE",
"52 -10 OFFCURVE",
"71 -10 CURVE SMOOTH",
"89 -10 OFFCURVE",
"100 2 OFFCURVE",
"104 22 CURVE SMOOTH",
"148 269 LINE",
"308 269 LINE",
"504 6 LINE SMOOTH",
"517 -11 OFFCURVE",
"530 -14 OFFCURVE",
"545 -4 CURVE SMOOTH",
"561 7 OFFCURVE",
"559 21 OFFCURVE",
"549 34 CURVE SMOOTH",
"374 269 LINE",
"593 269 OFFCURVE",
"697 363 OFFCURVE",
"697 531 CURVE SMOOTH",
"697 628 OFFCURVE",
"624 700 OFFCURVE",
"459 700 CURVE SMOOTH",
"287 700 LINE SMOOTH",
"195 700 OFFCURVE",
"162 650 OFFCURVE",
"151 590 CURVE SMOOTH",
"51 22 LINE SMOOTH"
);
},
{
closed = 1;
nodes = (
"205 593 LINE SMOOTH",
"211 629 OFFCURVE",
"238 653 OFFCURVE",
"272 653 CURVE SMOOTH",
"455 653 LINE SMOOTH",
"560 653 OFFCURVE",
"643 628 OFFCURVE",
"643 523 CURVE SMOOTH",
"643 390 OFFCURVE",
"555 316 OFFCURVE",
"394 316 CURVE SMOOTH",
"156 316 LINE"
);
}
);
width = 717;
},
{
anchors = (
{
name = bottom;
position = "{292, 0}";
},
{
name = top;
position = "{419, 700}";
}
);
layerId = "71BB0B28-5B77-4945-A3C0-334755DB3BD8";
paths = (
{
closed = 1;
nodes = (
"38 6 OFFCURVE",
"52 -10 OFFCURVE",
"77 -10 CURVE SMOOTH",
"104 -10 OFFCURVE",
"123 6 OFFCURVE",
"128 33 CURVE SMOOTH",
"167 253 LINE",
"300 253 LINE",
"486 10 LINE SMOOTH",
"503 -12 OFFCURVE",
"526 -16 OFFCURVE",
"550 -1 CURVE SMOOTH",
"571 12 OFFCURVE",
"578 35 OFFCURVE",
"565 51 CURVE SMOOTH",
"407 253 LINE",
"615 253 OFFCURVE",
"714 350 OFFCURVE",
"714 523 CURVE SMOOTH",
"714 635 OFFCURVE",
"639 700 OFFCURVE",
"479 700 CURVE SMOOTH",
"292 700 LINE SMOOTH",
"194 700 OFFCURVE",
"152 648 OFFCURVE",
"139 575 CURVE SMOOTH",
"43 33 LINE SMOOTH"
);
},
{
closed = 1;
nodes = (
"224 575 LINE SMOOTH",
"230 609 OFFCURVE",
"254 631 OFFCURVE",
"284 631 CURVE SMOOTH",
"471 631 LINE SMOOTH",
"556 631 OFFCURVE",
"627 610 OFFCURVE",
"627 516 CURVE SMOOTH",
"627 386 OFFCURVE",
"554 322 OFFCURVE",
"417 322 CURVE SMOOTH",
"179 322 LINE"
);
}
);
width = 725;
},
{
anchors = (
{
name = bottom;
position = "{291, 0}";
},
{
name = top;
position = "{418, 700}";
}
);
layerId = "D92B54DD-6BE9-4383-803D-42A15BF32189";
paths = (
{
closed = 1;
nodes = (
"18 11 OFFCURVE",
"41 -11 OFFCURVE",
"80 -11 CURVE SMOOTH",
"118 -11 OFFCURVE",
"151 11 OFFCURVE",
"158 49 CURVE SMOOTH",
"191 238 LINE",
"291 238 LINE",
"468 16 LINE SMOOTH",
"492 -14 OFFCURVE",
"529 -19 OFFCURVE",
"565 7 CURVE SMOOTH",
"597 30 OFFCURVE",
"602 66 OFFCURVE",
"582 90 CURVE SMOOTH",
"457 242 LINE",
"610 242 OFFCURVE",
"735 356 OFFCURVE",
"735 516 CURVE SMOOTH",
"735 636 OFFCURVE",
"633 700 OFFCURVE",
"471 700 CURVE SMOOTH",
"293 700 LINE SMOOTH",
"186 700 OFFCURVE",
"130 645 OFFCURVE",
"114 552 CURVE SMOOTH",
"25 49 LINE SMOOTH"
);
},
{
closed = 1;
nodes = (
"246 548 LINE SMOOTH",
"252 579 OFFCURVE",
"270 597 OFFCURVE",
"298 597 CURVE SMOOTH",
"449 597 LINE SMOOTH",
"532 597 OFFCURVE",
"599 579 OFFCURVE",
"599 501 CURVE SMOOTH",
"599 379 OFFCURVE",
"526 341 OFFCURVE",
"403 341 CURVE SMOOTH",
"209 341 LINE"
);
}
);
width = 742;
}
);
leftKerningGroup = R;
note = R;
rightKerningGroup = R;
unicode = 0052;
},
{
glyphname = S;
lastChange = "2018-07-09 11:12:12 +0000";
layers = (
{
anchors = (
{
name = bottom;
position = "{337, 0}";
},
{
name = top;
position = "{337, 700}";
}
);
layerId = "0B1DFD06-3317-40CA-B510-4969A0718C16";
paths = (
{
closed = 1;
nodes = (
"514 -10 OFFCURVE",
"612 62 OFFCURVE",
"612 179 CURVE SMOOTH",
"612 279 OFFCURVE",
"532 340 OFFCURVE",
"342 384 CURVE SMOOTH",
"182 421 OFFCURVE",
"130 457 OFFCURVE",
"130 532 CURVE SMOOTH",
"130 619 OFFCURVE",
"194 660 OFFCURVE",
"329 660 CURVE SMOOTH",
"434 660 OFFCURVE",
"511 628 OFFCURVE",
"546 569 CURVE SMOOTH",
"555 556 OFFCURVE",
"572 551 OFFCURVE",
"585 557 CURVE",
"598 565 OFFCURVE",
"602 578 OFFCURVE",
"595 591 CURVE SMOOTH",
"557 663 OFFCURVE",
"452 710 OFFCURVE",
"329 710 CURVE SMOOTH",
"171 710 OFFCURVE",
"76 643 OFFCURVE",
"76 532 CURVE SMOOTH",
"76 430 OFFCURVE",
"152 372 OFFCURVE",
"342 330 CURVE SMOOTH",
"499 295 OFFCURVE",
"558 254 OFFCURVE",
"558 179 CURVE SMOOTH",
"558 89 OFFCURVE",
"486 40 OFFCURVE",
"355 40 CURVE SMOOTH",
"247 40 OFFCURVE",
"161 73 OFFCURVE",
"110 135 CURVE SMOOTH",
"98 150 OFFCURVE",
"84 154 OFFCURVE",
"73 147 CURVE SMOOTH",
"60 139 OFFCURVE",
"57 123 OFFCURVE",
"66 111 CURVE SMOOTH",
"116 38 OFFCURVE",
"229 -10 OFFCURVE",
"355 -10 CURVE SMOOTH"
);
}
);
width = 673;
},
{
anchors = (
{
name = bottom;
position = "{391, 0}";
},
{
name = top;
position = "{357, 700}";
}
);
layerId = "258BB4CE-589F-454F-8E39-237B943AA0B4";
paths = (
{
closed = 1;
nodes = (
"560 -10 OFFCURVE",
"668 66 OFFCURVE",
"668 181 CURVE SMOOTH",
"668 299 OFFCURVE",
"585 366 OFFCURVE",
"376 415 CURVE SMOOTH",
"249 445 OFFCURVE",
"204 474 OFFCURVE",
"204 524 CURVE SMOOTH",
"204 575 OFFCURVE",
"260 605 OFFCURVE",
"354 605 CURVE SMOOTH",
"430 605 OFFCURVE",
"498 577 OFFCURVE",
"537 530 CURVE SMOOTH",
"558 505 OFFCURVE",
"594 498 OFFCURVE",
"618 515 CURVE SMOOTH",
"646 535 OFFCURVE",
"650 564 OFFCURVE",
"630 594 CURVE SMOOTH",
"580 667 OFFCURVE",
"478 710 OFFCURVE",
"354 710 CURVE SMOOTH",
"186 710 OFFCURVE",
"70 634 OFFCURVE",
"70 524 CURVE SMOOTH",
"70 410 OFFCURVE",
"157 342 OFFCURVE",
"358 298 CURVE SMOOTH",
"487 270 OFFCURVE",
"534 238 OFFCURVE",
"534 181 CURVE SMOOTH",
"534 127 OFFCURVE",
"482 95 OFFCURVE",
"394 95 CURVE SMOOTH",
"302 95 OFFCURVE",
"212 128 OFFCURVE",
"149 185 CURVE SMOOTH",
"117 213 OFFCURVE",
"91 216 OFFCURVE",
"66 192 CURVE SMOOTH",
"41 168 OFFCURVE",
"39 137 OFFCURVE",
"61 116 CURVE SMOOTH",
"145 35 OFFCURVE",
"264 -10 OFFCURVE",
"394 -10 CURVE SMOOTH"
);
}
);
width = 714;
},
{
anchors = (
{
name = bottom;
position = "{351, 0}";
},
{
name = top;
position = "{342, 700}";
}
);
layerId = "8ED59CAD-D047-43C0-8308-3370007B39AA";
paths = (
{
closed = 1;
nodes = (
"525 -10 OFFCURVE",
"626 63 OFFCURVE",
"626 180 CURVE SMOOTH",
"626 285 OFFCURVE",
"545 347 OFFCURVE",
"348 393 CURVE SMOOTH",
"199 428 OFFCURVE",
"149 462 OFFCURVE",
"149 530 CURVE SMOOTH",
"149 607 OFFCURVE",
"211 645 OFFCURVE",
"334 645 CURVE SMOOTH",
"431 645 OFFCURVE",
"504 614 OFFCURVE",
"542 558 CURVE SMOOTH",
"553 542 OFFCURVE",
"577 536 OFFCURVE",
"592 545 CURVE",
"610 557 OFFCURVE",
"614 574 OFFCURVE",
"603 592 CURVE SMOOTH",
"562 664 OFFCURVE",
"455 710 OFFCURVE",
"334 710 CURVE SMOOTH",
"174 710 OFFCURVE",
"73 641 OFFCURVE",
"73 530 CURVE SMOOTH",
"73 424 OFFCURVE",
"151 364 OFFCURVE",
"345 321 CURVE SMOOTH",
"494 288 OFFCURVE",
"549 249 OFFCURVE",
"549 180 CURVE SMOOTH",
"549 100 OFFCURVE",
"482 55 OFFCURVE",
"365 55 CURVE SMOOTH",
"257 55 OFFCURVE",
"173 90 OFFCURVE",
"119 149 CURVE SMOOTH",
"102 168 OFFCURVE",
"83 171 OFFCURVE",
"70 160 CURVE SMOOTH",
"51 144 OFFCURVE",
"52 126 OFFCURVE",
"63 112 CURVE SMOOTH",
"123 37 OFFCURVE",
"237 -10 OFFCURVE",
"365 -10 CURVE SMOOTH"
);
}
);
width = 681;
},
{
anchors = (
{
name = bottom;
position = "{297, 0}";
},
{
name = top;
position = "{420, 700}";
}
);
layerId = "6D0DA379-F071-4911-97B5-1F20F456FBFD";
paths = (
{
closed = 1;
nodes = (
"488 -10 OFFCURVE",
"607 77 OFFCURVE",
"607 202 CURVE SMOOTH",
"607 292 OFFCURVE",
"555 332 OFFCURVE",
"369 384 CURVE SMOOTH",
"210 428 OFFCURVE",
"182 448 OFFCURVE",
"182 515 CURVE SMOOTH",
"182 604 OFFCURVE",
"263 660 OFFCURVE",
"393 660 CURVE SMOOTH",
"492 660 OFFCURVE",
"576 624 OFFCURVE",
"607 568 CURVE SMOOTH",
"614 555 OFFCURVE",
"628 551 OFFCURVE",
"643 557 CURVE SMOOTH",
"658 563 OFFCURVE",
"663 575 OFFCURVE",
"659 591 CURVE SMOOTH",
"644 655 OFFCURVE",
"524 710 OFFCURVE",
"398 710 CURVE SMOOTH",
"239 710 OFFCURVE",
"127 628 OFFCURVE",
"127 510 CURVE SMOOTH",
"127 420 OFFCURVE",
"183 376 OFFCURVE",
"360 330 CURVE SMOOTH",
"514 291 OFFCURVE",
"552 264 OFFCURVE",
"552 195 CURVE SMOOTH",
"552 99 OFFCURVE",
"460 40 OFFCURVE",
"308 40 CURVE SMOOTH",
"203 40 OFFCURVE",
"136 70 OFFCURVE",
"94 135 CURVE SMOOTH",
"84 152 OFFCURVE",
"74 155 OFFCURVE",
"59 147 CURVE SMOOTH",
"45 139 OFFCURVE",
"40 126 OFFCURVE",
"46 111 CURVE SMOOTH",
"70 45 OFFCURVE",
"193 -10 OFFCURVE",
"316 -10 CURVE SMOOTH"
);
}
);
width = 681;
},
{
anchors = (
{
name = bottom;
position = "{312, 0}";
},
{
name = top;
position = "{427, 700}";
}
);
layerId = "71BB0B28-5B77-4945-A3C0-334755DB3BD8";
paths = (
{
closed = 1;
nodes = (
"500 -10 OFFCURVE",
"622 78 OFFCURVE",
"622 206 CURVE SMOOTH",
"622 302 OFFCURVE",
"563 341 OFFCURVE",
"379 393 CURVE SMOOTH",
"230 435 OFFCURVE",
"202 456 OFFCURVE",
"202 515 CURVE SMOOTH",
"202 595 OFFCURVE",
"279 645 OFFCURVE",
"402 645 CURVE SMOOTH",
"499 645 OFFCURVE",
"573 613 OFFCURVE",
"601 558 CURVE",
"612 541 OFFCURVE",
"632 536 OFFCURVE",
"649 545 CURVE",
"670 557 OFFCURVE",
"675 570 OFFCURVE",
"668 592 CURVE SMOOTH",
"645 662 OFFCURVE",
"536 710 OFFCURVE",
"412 710 CURVE SMOOTH",
"244 710 OFFCURVE",
"124 625 OFFCURVE",
"124 504 CURVE SMOOTH",
"124 413 OFFCURVE",
"182 369 OFFCURVE",
"362 321 CURVE SMOOTH",
"511 281 OFFCURVE",
"544 258 OFFCURVE",
"544 195 CURVE SMOOTH",
"544 109 OFFCURVE",
"460 55 OFFCURVE",
"322 55 CURVE SMOOTH",
"226 55 OFFCURVE",
"168 82 OFFCURVE",
"107 148 CURVE SMOOTH",
"86 170 OFFCURVE",
"77 173 OFFCURVE",
"59 160 CURVE SMOOTH",
"40 147 OFFCURVE",
"35 129 OFFCURVE",
"44 111 CURVE SMOOTH",
"75 47 OFFCURVE",
"199 -10 OFFCURVE",
"326 -10 CURVE SMOOTH"
);
}
);
width = 689;
},
{
anchors = (
{
name = bottom;
position = "{352, 0}";
},
{
name = top;
position = "{446, 700}";
}
);
layerId = "D92B54DD-6BE9-4383-803D-42A15BF32189";
paths = (
{
closed = 1;
nodes = (
"547 -10 OFFCURVE",
"665 79 OFFCURVE",
"665 212 CURVE SMOOTH",
"665 314 OFFCURVE",
"608 359 OFFCURVE",
"410 415 CURVE SMOOTH",
"290 448 OFFCURVE",
"256 469 OFFCURVE",
"256 513 CURVE SMOOTH",
"256 569 OFFCURVE",
"321 605 OFFCURVE",
"421 605 CURVE SMOOTH",
"498 605 OFFCURVE",
"553 581 OFFCURVE",
"591 530 CURVE SMOOTH",
"609 506 OFFCURVE",
"643 499 OFFCURVE",
"670 515 CURVE SMOOTH",
"699 533 OFFCURVE",
"709 561 OFFCURVE",
"696 593 CURVE SMOOTH",
"668 662 OFFCURVE",
"560 710 OFFCURVE",
"431 710 CURVE SMOOTH",
"250 710 OFFCURVE",
"120 620 OFFCURVE",
"120 494 CURVE SMOOTH",
"120 399 OFFCURVE",
"191 344 OFFCURVE",
"372 298 CURVE SMOOTH",
"491 267 OFFCURVE",
"528 243 OFFCURVE",
"528 196 CURVE SMOOTH",
"528 135 OFFCURVE",
"460 95 OFFCURVE",
"355 95 CURVE SMOOTH",
"272 95 OFFCURVE",
"218 118 OFFCURVE",
"143 185 CURVE SMOOTH",
"115 210 OFFCURVE",
"82 212 OFFCURVE",
"57 192 CURVE SMOOTH",
"31 172 OFFCURVE",
"26 145 OFFCURVE",
"42 116 CURVE SMOOTH",
"80 45 OFFCURVE",
"223 -10 OFFCURVE",
"370 -10 CURVE SMOOTH"
);
}
);
width = 723;
}
);
leftKerningGroup = S;
note = S;
rightKerningGroup = S;
unicode = 0053;
},
{
glyphname = T;
lastChange = "2018-07-09 11:12:12 +0000";
layers = (
{
anchors = (
{
name = bottom;
position = "{351, 0}";
},
{
name = center;
position = "{351, 350}";
},
{
name = top;
position = "{351, 700}";
}
);
layerId = "0B1DFD06-3317-40CA-B510-4969A0718C16";
paths = (
{
closed = 1;
nodes = (
"367 -10 OFFCURVE",
"377 1 OFFCURVE",
"377 22 CURVE SMOOTH",
"377 653 LINE",
"620 653 LINE SMOOTH",
"640 653 OFFCURVE",
"650 661 OFFCURVE",
"650 676 CURVE SMOOTH",
"650 693 OFFCURVE",
"641 700 OFFCURVE",
"620 700 CURVE SMOOTH",
"81 700 LINE SMOOTH",
"60 700 OFFCURVE",
"51 693 OFFCURVE",
"51 676 CURVE SMOOTH",
"51 661 OFFCURVE",
"61 654 OFFCURVE",
"81 653 CURVE SMOOTH",
"324 653 LINE",
"324 22 LINE SMOOTH",
"324 1 OFFCURVE",
"333 -10 OFFCURVE",
"350 -10 CURVE SMOOTH"
);
}
);
width = 701;
},
{
anchors = (
{
name = bottom;
position = "{348, 0}";
},
{
name = center;
position = "{348, 350}";
},
{
name = top;
position = "{348, 700}";
}
);
layerId = "258BB4CE-589F-454F-8E39-237B943AA0B4";
paths = (
{
closed = 1;
nodes = (
"387 -10 OFFCURVE",
"414 14 OFFCURVE",
"414 50 CURVE SMOOTH",
"414 597 LINE",
"607 597 LINE SMOOTH",
"646 597 OFFCURVE",
"669 616 OFFCURVE",
"669 648 CURVE SMOOTH",
"669 681 OFFCURVE",
"647 700 OFFCURVE",
"607 700 CURVE SMOOTH",
"88 700 LINE SMOOTH",
"48 700 OFFCURVE",
"26 681 OFFCURVE",
"26 648 CURVE SMOOTH",
"26 616 OFFCURVE",
"49 597 OFFCURVE",
"88 597 CURVE SMOOTH",
"281 597 LINE",
"281 50 LINE SMOOTH",
"281 13 OFFCURVE",
"307 -10 OFFCURVE",
"347 -10 CURVE SMOOTH"
);
}
);
width = 695;
},
{
anchors = (
{
name = bottom;
position = "{350, 0}";
},
{
name = center;
position = "{350, 350}";
},
{
name = top;
position = "{350, 700}";
}
);
layerId = "8ED59CAD-D047-43C0-8308-3370007B39AA";
paths = (
{
closed = 1;
nodes = (
"373 -10 OFFCURVE",
"388 5 OFFCURVE",
"388 30 CURVE SMOOTH",
"388 638 LINE",
"617 638 LINE SMOOTH",
"642 638 OFFCURVE",
"656 649 OFFCURVE",
"656 668 CURVE SMOOTH",
"656 690 OFFCURVE",
"641 700 OFFCURVE",
"617 700 CURVE SMOOTH",
"83 700 LINE SMOOTH",
"58 700 OFFCURVE",
"44 690 OFFCURVE",
"44 668 CURVE SMOOTH",
"44 648 OFFCURVE",
"59 638 OFFCURVE",
"83 638 CURVE SMOOTH",
"312 638 LINE",
"312 30 LINE SMOOTH",
"312 5 OFFCURVE",
"325 -10 OFFCURVE",
"349 -10 CURVE SMOOTH"
);
}
);
width = 699;
},
{
anchors = (
{
name = bottom;
position = "{311, 0}";
},
{
name = center;
position = "{373, 350}";
},
{
name = top;
position = "{434, 700}";
}
);
layerId = "6D0DA379-F071-4911-97B5-1F20F456FBFD";
paths = (
{
closed = 1;
nodes = (
"326 -10 OFFCURVE",
"338 1 OFFCURVE",
"342 22 CURVE SMOOTH",
"453 653 LINE",
"696 653 LINE SMOOTH",
"718 653 OFFCURVE",
"730 663 OFFCURVE",
"730 681 CURVE SMOOTH",
"730 694 OFFCURVE",
"722 700 OFFCURVE",
"704 700 CURVE SMOOTH",
"165 700 LINE SMOOTH",
"142 700 OFFCURVE",
"131 691 OFFCURVE",
"131 672 CURVE SMOOTH",
"131 660 OFFCURVE",
"140 653 OFFCURVE",
"157 653 CURVE SMOOTH",
"400 653 LINE",
"289 22 LINE SMOOTH",
"286 1 OFFCURVE",
"293 -10 OFFCURVE",
"309 -10 CURVE SMOOTH"
);
}
);
width = 709;
},
{
anchors = (
{
name = bottom;
position = "{312, 0}";
},
{
name = center;
position = "{374, 350}";
},
{
name = top;
position = "{436, 700}";
}
);
layerId = "71BB0B28-5B77-4945-A3C0-334755DB3BD8";
paths = (
{
closed = 1;
nodes = (
"331 -10 OFFCURVE",
"350 2 OFFCURVE",
"355 30 CURVE SMOOTH",
"462 638 LINE",
"691 638 LINE SMOOTH",
"720 638 OFFCURVE",
"736 652 OFFCURVE",
"736 674 CURVE SMOOTH",
"736 699 OFFCURVE",
"713 700 OFFCURVE",
"702 700 CURVE SMOOTH",
"168 700 LINE SMOOTH",
"141 700 OFFCURVE",
"123 687 OFFCURVE",
"123 666 CURVE SMOOTH",
"123 649 OFFCURVE",
"135 638 OFFCURVE",
"157 638 CURVE SMOOTH",
"386 638 LINE",
"280 30 LINE SMOOTH",
"276 5 OFFCURVE",
"287 -10 OFFCURVE",
"310 -10 CURVE SMOOTH"
);
}
);
width = 707;
},
{
anchors = (
{
name = bottom;
position = "{308, 0}";
},
{
name = center;
position = "{370, 350}";
},
{
name = top;
position = "{432, 700}";
}
);
layerId = "D92B54DD-6BE9-4383-803D-42A15BF32189";
paths = (
{
closed = 1;
nodes = (
"346 -10 OFFCURVE",
"377 14 OFFCURVE",
"384 50 CURVE SMOOTH",
"480 597 LINE",
"673 597 LINE SMOOTH",
"716 597 OFFCURVE",
"745 621 OFFCURVE",
"745 659 CURVE SMOOTH",
"745 685 OFFCURVE",
"726 700 OFFCURVE",
"691 700 CURVE SMOOTH",
"172 700 LINE SMOOTH",
"130 700 OFFCURVE",
"100 677 OFFCURVE",
"100 637 CURVE SMOOTH",
"100 612 OFFCURVE",
"120 597 OFFCURVE",
"154 597 CURVE SMOOTH",
"347 597 LINE",
"251 50 LINE SMOOTH",
"245 17 OFFCURVE",
"264 -10 OFFCURVE",
"306 -10 CURVE SMOOTH"
);
}
);
width = 703;
}
);
leftKerningGroup = T;
note = T;
rightKerningGroup = T;
unicode = 0054;
},
{
glyphname = U;
lastChange = "2018-07-09 11:12:12 +0000";
layers = (
{
anchors = (
{
name = bottom;
position = "{372, 0}";
},
{
name = ogonek;
position = "{401, 10}";
},
{
name = top;
position = "{372, 700}";
},
{
name = topright;
position = "{641, 666}";
}
);
layerId = "0B1DFD06-3317-40CA-B510-4969A0718C16";
paths = (
{
closed = 1;
nodes = (
"548 -10 OFFCURVE",
"658 101 OFFCURVE",
"658 275 CURVE SMOOTH",
"658 678 LINE SMOOTH",
"658 699 OFFCURVE",
"649 710 OFFCURVE",
"632 710 CURVE SMOOTH",
"615 710 OFFCURVE",
"605 699 OFFCURVE",
"605 678 CURVE SMOOTH",
"605 272 LINE SMOOTH",
"605 126 OFFCURVE",
"519 39 OFFCURVE",
"372 39 CURVE SMOOTH",
"223 39 OFFCURVE",
"139 123 OFFCURVE",
"139 272 CURVE SMOOTH",
"139 678 LINE SMOOTH",
"139 699 OFFCURVE",
"129 710 OFFCURVE",
"112 710 CURVE SMOOTH",
"95 710 OFFCURVE",
"86 699 OFFCURVE",
"86 678 CURVE SMOOTH",
"86 275 LINE SMOOTH",
"86 96 OFFCURVE",
"193 -10 OFFCURVE",
"368 -10 CURVE SMOOTH"
);
}
);
width = 744;
},
{
anchors = (
{
name = bottom;
position = "{366, 0}";
},
{
name = ogonek;
position = "{397, 10}";
},
{
name = top;
position = "{366, 700}";
},
{
name = topright;
position = "{651, 640}";
}
);
layerId = "258BB4CE-589F-454F-8E39-237B943AA0B4";
paths = (
{
closed = 1;
nodes = (
"556 -10 OFFCURVE",
"681 115 OFFCURVE",
"681 303 CURVE SMOOTH",
"681 650 LINE SMOOTH",
"681 687 OFFCURVE",
"655 710 OFFCURVE",
"615 710 CURVE SMOOTH",
"575 710 OFFCURVE",
"548 686 OFFCURVE",
"548 650 CURVE SMOOTH",
"548 300 LINE SMOOTH",
"548 170 OFFCURVE",
"482 95 OFFCURVE",
"366 95 CURVE SMOOTH",
"249 95 OFFCURVE",
"184 168 OFFCURVE",
"184 300 CURVE SMOOTH",
"184 650 LINE SMOOTH",
"184 686 OFFCURVE",
"157 710 OFFCURVE",
"117 710 CURVE SMOOTH",
"77 710 OFFCURVE",
"51 687 OFFCURVE",
"51 650 CURVE SMOOTH",
"51 303 LINE SMOOTH",
"51 110 OFFCURVE",
"173 -10 OFFCURVE",
"363 -10 CURVE SMOOTH"
);
}
);
width = 732;
},
{
anchors = (
{
name = bottom;
position = "{368, 0}";
},
{
name = ogonek;
position = "{397, 10}";
},
{
name = top;
position = "{368, 700}";
},
{
name = topright;
position = "{642, 659}";
}
);
layerId = "8ED59CAD-D047-43C0-8308-3370007B39AA";
paths = (
{
closed = 1;
nodes = (
"548 -10 OFFCURVE",
"662 105 OFFCURVE",
"662 283 CURVE SMOOTH",
"662 670 LINE SMOOTH",
"662 695 OFFCURVE",
"649 710 OFFCURVE",
"625 710 CURVE SMOOTH",
"602 710 OFFCURVE",
"587 695 OFFCURVE",
"587 670 CURVE SMOOTH",
"587 280 LINE SMOOTH",
"587 138 OFFCURVE",
"505 54 OFFCURVE",
"366 54 CURVE SMOOTH",
"229 54 OFFCURVE",
"149 135 OFFCURVE",
"149 280 CURVE SMOOTH",
"149 670 LINE SMOOTH",
"149 695 OFFCURVE",
"135 710 OFFCURVE",
"111 710 CURVE SMOOTH",
"88 710 OFFCURVE",
"74 695 OFFCURVE",
"74 670 CURVE SMOOTH",
"74 283 LINE SMOOTH",
"74 100 OFFCURVE",
"185 -10 OFFCURVE",
"364 -10 CURVE SMOOTH"
);
}
);
width = 737;
},
{
anchors = (
{
name = bottom;
position = "{333, 0}";
},
{
name = ogonek;
position = "{364, 10}";
},
{
name = top;
position = "{456, 700}";
},
{
name = topright;
position = "{719, 666}";
}
);
layerId = "6D0DA379-F071-4911-97B5-1F20F456FBFD";
paths = (
{
closed = 1;
nodes = (
"515 -10 OFFCURVE",
"634 88 OFFCURVE",
"667 275 CURVE SMOOTH",
"739 678 LINE SMOOTH",
"743 699 OFFCURVE",
"735 710 OFFCURVE",
"718 710 CURVE SMOOTH",
"700 710 OFFCURVE",
"690 699 OFFCURVE",
"686 678 CURVE SMOOTH",
"614 272 LINE SMOOTH",
"587 121 OFFCURVE",
"500 39 OFFCURVE",
"338 39 CURVE SMOOTH",
"183 39 OFFCURVE",
"120 115 OFFCURVE",
"148 272 CURVE SMOOTH",
"220 678 LINE SMOOTH",
"224 699 OFFCURVE",
"215 710 OFFCURVE",
"198 710 CURVE SMOOTH",
"181 710 OFFCURVE",
"171 699 OFFCURVE",
"167 678 CURVE SMOOTH",
"95 275 LINE SMOOTH",
"64 100 OFFCURVE",
"151 -10 OFFCURVE",
"338 -10 CURVE SMOOTH"
);
}
);
width = 753;
},
{
anchors = (
{
name = bottom;
position = "{331, 0}";
},
{
name = ogonek;
position = "{362, 10}";
},
{
name = top;
position = "{454, 700}";
},
{
name = topright;
position = "{721, 659}";
}
);
layerId = "71BB0B28-5B77-4945-A3C0-334755DB3BD8";
paths = (
{
closed = 1;
nodes = (
"515 -10 OFFCURVE",
"641 96 OFFCURVE",
"674 283 CURVE SMOOTH",
"743 670 LINE SMOOTH",
"748 696 OFFCURVE",
"735 710 OFFCURVE",
"713 710 CURVE SMOOTH",
"689 710 OFFCURVE",
"672 695 OFFCURVE",
"668 670 CURVE SMOOTH",
"599 280 LINE SMOOTH",
"573 134 OFFCURVE",
"486 54 OFFCURVE",
"338 54 CURVE SMOOTH",
"195 54 OFFCURVE",
"134 130 OFFCURVE",
"161 280 CURVE SMOOTH",
"231 670 LINE SMOOTH",
"236 697 OFFCURVE",
"220 710 OFFCURVE",
"199 710 CURVE SMOOTH",
"178 710 OFFCURVE",
"160 698 OFFCURVE",
"155 670 CURVE SMOOTH",
"86 283 LINE SMOOTH",
"54 105 OFFCURVE",
"151 -10 OFFCURVE",
"337 -10 CURVE SMOOTH"
);
}
);
width = 746;
},
{
anchors = (
{
name = bottom;
position = "{327, 0}";
},
{
name = ogonek;
position = "{360, 10}";
},
{
name = top;
position = "{450, 700}";
},
{
name = topright;
position = "{725, 640}";
}
);
layerId = "D92B54DD-6BE9-4383-803D-42A15BF32189";
paths = (
{
closed = 1;
nodes = (
"540 -10 OFFCURVE",
"660 94 OFFCURVE",
"695 294 CURVE SMOOTH",
"757 650 LINE SMOOTH",
"763 687 OFFCURVE",
"741 710 OFFCURVE",
"701 710 CURVE SMOOTH",
"661 710 OFFCURVE",
"630 686 OFFCURVE",
"624 650 CURVE SMOOTH",
"562 300 LINE SMOOTH",
"539 169 OFFCURVE",
"461 95 OFFCURVE",
"344 95 CURVE SMOOTH",
"222 95 OFFCURVE",
"174 162 OFFCURVE",
"198 300 CURVE SMOOTH",
"260 650 LINE SMOOTH",
"266 686 OFFCURVE",
"243 710 OFFCURVE",
"202 710 CURVE SMOOTH",
"162 710 OFFCURVE",
"134 688 OFFCURVE",
"127 650 CURVE SMOOTH",
"65 303 LINE SMOOTH",
"31 120 OFFCURVE",
"148 -10 OFFCURVE",
"347 -10 CURVE SMOOTH"
);
}
);
width = 741;
}
);
leftKerningGroup = U;
note = U;
rightKerningGroup = U;
unicode = 0055;
},
{
glyphname = V;
lastChange = "2018-07-09 11:12:12 +0000";
layers = (
{
anchors = (
{
name = bottom;
position = "{360, 0}";
},
{
name = top;
position = "{360, 700}";
}
);
layerId = "0B1DFD06-3317-40CA-B510-4969A0718C16";
paths = (
{
closed = 1;
nodes = (
"430 -10 OFFCURVE",
"474 47 OFFCURVE",
"515 188 CURVE SMOOTH",
"657 675 LINE SMOOTH",
"664 699 OFFCURVE",
"656 710 OFFCURVE",
"636 710 CURVE SMOOTH",
"617 710 OFFCURVE",
"612 704 OFFCURVE",
"605 680 CURVE SMOOTH",
"464 194 LINE SMOOTH",
"431 83 OFFCURVE",
"402 38 OFFCURVE",
"360 38 CURVE SMOOTH",
"318 38 OFFCURVE",
"289 83 OFFCURVE",
"256 194 CURVE SMOOTH",
"115 680 LINE SMOOTH",
"108 704 OFFCURVE",
"103 710 OFFCURVE",
"84 710 CURVE SMOOTH",
"64 710 OFFCURVE",
"56 699 OFFCURVE",
"63 675 CURVE SMOOTH",
"205 188 LINE SMOOTH",
"246 47 OFFCURVE",
"290 -10 OFFCURVE",
"360 -10 CURVE SMOOTH"
);
}
);
width = 720;
},
{
anchors = (
{
name = bottom;
position = "{386, 0}";
},
{
name = top;
position = "{386, 700}";
}
);
layerId = "258BB4CE-589F-454F-8E39-237B943AA0B4";
paths = (
{
closed = 1;
nodes = (
"480 -10 OFFCURVE",
"536 50 OFFCURVE",
"583 199 CURVE SMOOTH",
"722 641 LINE SMOOTH",
"736 686 OFFCURVE",
"715 710 OFFCURVE",
"664 710 CURVE SMOOTH",
"623 710 OFFCURVE",
"603 695 OFFCURVE",
"592 659 CURVE SMOOTH",
"454 209 LINE SMOOTH",
"429 127 OFFCURVE",
"409 94 OFFCURVE",
"386 94 CURVE SMOOTH",
"363 94 OFFCURVE",
"343 127 OFFCURVE",
"318 209 CURVE SMOOTH",
"180 659 LINE SMOOTH",
"169 695 OFFCURVE",
"149 710 OFFCURVE",
"108 710 CURVE SMOOTH",
"57 710 OFFCURVE",
"36 686 OFFCURVE",
"50 641 CURVE SMOOTH",
"189 199 LINE SMOOTH",
"236 50 OFFCURVE",
"292 -10 OFFCURVE",
"386 -10 CURVE SMOOTH"
);
}
);
width = 772;
},
{
anchors = (
{
name = bottom;
position = "{367, 0}";
},
{
name = top;
position = "{367, 700}";
}
);
layerId = "8ED59CAD-D047-43C0-8308-3370007B39AA";
paths = (
{
closed = 1;
nodes = (
"443 -10 OFFCURVE",
"486 44 OFFCURVE",
"531 191 CURVE SMOOTH",
"675 665 LINE SMOOTH",
"684 695 OFFCURVE",
"673 710 OFFCURVE",
"643 710 CURVE SMOOTH",
"618 710 OFFCURVE",
"609 701 OFFCURVE",
"601 675 CURVE SMOOTH",
"459 198 LINE SMOOTH",
"427 92 OFFCURVE",
"402 53 OFFCURVE",
"367 53 CURVE SMOOTH",
"331 53 OFFCURVE",
"307 92 OFFCURVE",
"275 198 CURVE SMOOTH",
"133 674 LINE SMOOTH",
"125 702 OFFCURVE",
"115 710 OFFCURVE",
"91 710 CURVE SMOOTH",
"62 710 OFFCURVE",
"50 695 OFFCURVE",
"59 665 CURVE SMOOTH",
"202 191 LINE SMOOTH",
"242 59 OFFCURVE",
"282 -10 OFFCURVE",
"367 -10 CURVE SMOOTH"
);
}
);
width = 733;
},
{
anchors = (
{
name = bottom;
position = "{320, 0}";
},
{
name = top;
position = "{443, 700}";
}
);
layerId = "6D0DA379-F071-4911-97B5-1F20F456FBFD";
paths = (
{
closed = 1;
nodes = (
"392 -10 OFFCURVE",
"442 47 OFFCURVE",
"508 188 CURVE SMOOTH",
"736 675 LINE SMOOTH",
"747 698 OFFCURVE",
"741 710 OFFCURVE",
"721 710 CURVE SMOOTH",
"702 710 OFFCURVE",
"697 705 OFFCURVE",
"685 680 CURVE SMOOTH",
"458 194 LINE SMOOTH",
"406 83 OFFCURVE",
"368 38 OFFCURVE",
"325 38 CURVE SMOOTH",
"284 38 OFFCURVE",
"262 83 OFFCURVE",
"250 194 CURVE SMOOTH",
"195 680 LINE SMOOTH",
"192 704 OFFCURVE",
"189 710 OFFCURVE",
"169 710 CURVE SMOOTH",
"149 710 OFFCURVE",
"139 699 OFFCURVE",
"142 675 CURVE SMOOTH",
"198 188 LINE SMOOTH",
"214 47 OFFCURVE",
"253 -10 OFFCURVE",
"323 -10 CURVE SMOOTH"
);
}
);
width = 727;
},
{
anchors = (
{
name = bottom;
position = "{327, 0}";
},
{
name = top;
position = "{450, 700}";
}
);
layerId = "71BB0B28-5B77-4945-A3C0-334755DB3BD8";
paths = (
{
closed = 1;
nodes = (
"421 -10 OFFCURVE",
"469 61 OFFCURVE",
"530 191 CURVE SMOOTH",
"753 665 LINE SMOOTH",
"767 694 OFFCURVE",
"757 710 OFFCURVE",
"729 710 CURVE SMOOTH",
"701 710 OFFCURVE",
"691 698 OFFCURVE",
"680 674 CURVE SMOOTH",
"458 198 LINE SMOOTH",
"413 101 OFFCURVE",
"380 53 OFFCURVE",
"336 53 CURVE SMOOTH",
"297 53 OFFCURVE",
"278 91 OFFCURVE",
"266 198 CURVE SMOOTH",
"212 674 LINE SMOOTH",
"209 701 OFFCURVE",
"201 710 OFFCURVE",
"176 710 CURVE SMOOTH",
"145 710 OFFCURVE",
"134 693 OFFCURVE",
"137 665 CURVE SMOOTH",
"192 191 LINE SMOOTH",
"209 44 OFFCURVE",
"251 -10 OFFCURVE",
"335 -10 CURVE SMOOTH"
);
}
);
width = 740;
},
{
anchors = (
{
name = bottom;
position = "{346, 0}";
},
{
name = top;
position = "{469, 700}";
}
);
layerId = "D92B54DD-6BE9-4383-803D-42A15BF32189";
paths = (
{
closed = 1;
nodes = (
"456 -10 OFFCURVE",
"505 44 OFFCURVE",
"580 199 CURVE SMOOTH",
"795 641 LINE SMOOTH",
"817 686 OFFCURVE",
"800 710 OFFCURVE",
"749 710 CURVE SMOOTH",
"709 710 OFFCURVE",
"685 695 OFFCURVE",
"668 659 CURVE SMOOTH",
"453 209 LINE SMOOTH",
"412 124 OFFCURVE",
"389 94 OFFCURVE",
"363 94 CURVE SMOOTH",
"336 94 OFFCURVE",
"324 124 OFFCURVE",
"313 209 CURVE SMOOTH",
"256 659 LINE SMOOTH",
"251 695 OFFCURVE",
"234 710 OFFCURVE",
"193 710 CURVE SMOOTH",
"143 710 OFFCURVE",
"117 686 OFFCURVE",
"123 641 CURVE SMOOTH",
"181 206 LINE SMOOTH",
"202 51 OFFCURVE",
"256 -10 OFFCURVE",
"360 -10 CURVE SMOOTH"
);
}
);
width = 779;
}
);
note = V;
unicode = 0056;
},
{
glyphname = W;
lastChange = "2018-07-09 11:12:12 +0000";
layers = (
{
anchors = (
{
name = bottom;
position = "{473, 0}";
},
{
name = top;
position = "{473, 700}";
}
);
layerId = "0B1DFD06-3317-40CA-B510-4969A0718C16";
paths = (
{
closed = 1;
nodes = (
"320 -10 OFFCURVE",
"349 24 OFFCURVE",
"360 94 CURVE SMOOTH",
"446 622 LINE SMOOTH",
"451 651 OFFCURVE",
"459 662 OFFCURVE",
"473 662 CURVE SMOOTH",
"487 662 OFFCURVE",
"495 651 OFFCURVE",
"500 622 CURVE SMOOTH",
"586 94 LINE SMOOTH",
"597 24 OFFCURVE",
"626 -10 OFFCURVE",
"676 -10 CURVE SMOOTH",
"726 -10 OFFCURVE",
"757 24 OFFCURVE",
"771 94 CURVE SMOOTH",
"883 675 LINE SMOOTH",
"888 699 OFFCURVE",
"881 710 OFFCURVE",
"862 710 CURVE SMOOTH",
"842 710 OFFCURVE",
"835 704 OFFCURVE",
"831 680 CURVE SMOOTH",
"720 95 LINE SMOOTH",
"712 53 OFFCURVE",
"701 38 OFFCURVE",
"676 38 CURVE SMOOTH",
"650 38 OFFCURVE",
"638 54 OFFCURVE",
"632 95 CURVE SMOOTH",
"547 623 LINE SMOOTH",
"537 682 OFFCURVE",
"513 710 OFFCURVE",
"473 710 CURVE SMOOTH",
"433 710 OFFCURVE",
"409 682 OFFCURVE",
"399 623 CURVE SMOOTH",
"314 95 LINE SMOOTH",
"308 54 OFFCURVE",
"296 38 OFFCURVE",
"270 38 CURVE SMOOTH",
"245 38 OFFCURVE",
"234 53 OFFCURVE",
"226 95 CURVE SMOOTH",
"115 680 LINE SMOOTH",
"111 704 OFFCURVE",
"104 710 OFFCURVE",
"84 710 CURVE SMOOTH",
"65 710 OFFCURVE",
"58 699 OFFCURVE",
"63 675 CURVE SMOOTH",
"175 94 LINE SMOOTH",
"189 24 OFFCURVE",
"220 -10 OFFCURVE",
"270 -10 CURVE SMOOTH"
);
}
);
width = 946;
},
{
anchors = (
{
name = bottom;
position = "{485, 0}";
},
{
name = top;
position = "{485, 700}";
}
);
layerId = "258BB4CE-589F-454F-8E39-237B943AA0B4";
paths = (
{
closed = 1;
nodes = (
"359 -10 OFFCURVE",
"399 34 OFFCURVE",
"412 130 CURVE SMOOTH",
"471 578 LINE SMOOTH",
"474 598 OFFCURVE",
"477 605 OFFCURVE",
"485 605 CURVE SMOOTH",
"493 605 OFFCURVE",
"496 598 OFFCURVE",
"499 578 CURVE SMOOTH",
"558 130 LINE SMOOTH",
"571 34 OFFCURVE",
"611 -10 OFFCURVE",
"686 -10 CURVE SMOOTH",
"761 -10 OFFCURVE",
"804 35 OFFCURVE",
"823 133 CURVE SMOOTH",
"922 642 LINE SMOOTH",
"931 685 OFFCURVE",
"908 710 OFFCURVE",
"862 710 CURVE SMOOTH",
"822 710 OFFCURVE",
"799 693 OFFCURVE",
"792 657 CURVE SMOOTH",
"697 122 LINE SMOOTH",
"692 100 OFFCURVE",
"689 95 OFFCURVE",
"682 95 CURVE SMOOTH",
"674 95 OFFCURVE",
"669 103 OFFCURVE",
"667 121 CURVE SMOOTH",
"604 600 LINE SMOOTH",
"595 669 OFFCURVE",
"551 710 OFFCURVE",
"485 710 CURVE SMOOTH",
"419 710 OFFCURVE",
"375 669 OFFCURVE",
"366 600 CURVE SMOOTH",
"303 121 LINE SMOOTH",
"301 103 OFFCURVE",
"296 95 OFFCURVE",
"288 95 CURVE SMOOTH",
"281 95 OFFCURVE",
"278 100 OFFCURVE",
"273 122 CURVE SMOOTH",
"178 657 LINE SMOOTH",
"171 693 OFFCURVE",
"148 710 OFFCURVE",
"108 710 CURVE SMOOTH",
"62 710 OFFCURVE",
"39 685 OFFCURVE",
"48 642 CURVE SMOOTH",
"147 133 LINE SMOOTH",
"166 35 OFFCURVE",
"209 -10 OFFCURVE",
"284 -10 CURVE SMOOTH"
);
}
);
width = 970;
},
{
anchors = (
{
name = bottom;
position = "{474, 0}";
},
{
name = top;
position = "{474, 700}";
}
);
layerId = "8ED59CAD-D047-43C0-8308-3370007B39AA";
paths = (
{
closed = 1;
nodes = (
"328 -10 OFFCURVE",
"360 27 OFFCURVE",
"372 104 CURVE SMOOTH",
"450 609 LINE SMOOTH",
"454 636 OFFCURVE",
"461 646 OFFCURVE",
"474 646 CURVE SMOOTH",
"486 646 OFFCURVE",
"493 636 OFFCURVE",
"497 609 CURVE SMOOTH",
"575 104 LINE SMOOTH",
"587 27 OFFCURVE",
"619 -10 OFFCURVE",
"676 -10 CURVE SMOOTH",
"740 -10 OFFCURVE",
"768 35 OFFCURVE",
"782 105 CURVE SMOOTH",
"891 666 LINE SMOOTH",
"897 695 OFFCURVE",
"885 710 OFFCURVE",
"859 710 CURVE SMOOTH",
"832 710 OFFCURVE",
"821 698 OFFCURVE",
"817 674 CURVE SMOOTH",
"711 103 LINE SMOOTH",
"704 66 OFFCURVE",
"694 54 OFFCURVE",
"675 54 CURVE SMOOTH",
"654 54 OFFCURVE",
"644 68 OFFCURVE",
"639 102 CURVE SMOOTH",
"560 617 LINE SMOOTH",
"551 675 OFFCURVE",
"524 710 OFFCURVE",
"474 710 CURVE SMOOTH",
"427 710 OFFCURVE",
"396 678 OFFCURVE",
"387 617 CURVE SMOOTH",
"308 102 LINE SMOOTH",
"303 70 OFFCURVE",
"294 54 OFFCURVE",
"272 54 CURVE SMOOTH",
"251 54 OFFCURVE",
"243 67 OFFCURVE",
"236 103 CURVE SMOOTH",
"130 674 LINE SMOOTH",
"126 695 OFFCURVE",
"119 710 OFFCURVE",
"88 710 CURVE SMOOTH",
"62 710 OFFCURVE",
"50 695 OFFCURVE",
"56 666 CURVE SMOOTH",
"165 105 LINE SMOOTH",
"180 26 OFFCURVE",
"214 -10 OFFCURVE",
"271 -10 CURVE SMOOTH"
);
}
);
width = 947;
},
{
anchors = (
{
name = bottom;
position = "{433, 0}";
},
{
name = top;
position = "{556, 700}";
}
);
layerId = "6D0DA379-F071-4911-97B5-1F20F456FBFD";
paths = (
{
closed = 1;
nodes = (
"278 -10 OFFCURVE",
"315 24 OFFCURVE",
"339 94 CURVE SMOOTH",
"518 622 LINE SMOOTH",
"528 651 OFFCURVE",
"538 662 OFFCURVE",
"552 662 CURVE SMOOTH",
"567 662 OFFCURVE",
"572 651 OFFCURVE",
"572 622 CURVE SMOOTH",
"565 94 LINE SMOOTH",
"564 28 OFFCURVE",
"589 -10 OFFCURVE",
"634 -10 CURVE SMOOTH",
"684 -10 OFFCURVE",
"721 24 OFFCURVE",
"748 94 CURVE SMOOTH",
"962 675 LINE SMOOTH",
"971 699 OFFCURVE",
"966 710 OFFCURVE",
"947 710 CURVE SMOOTH",
"927 710 OFFCURVE",
"920 704 OFFCURVE",
"911 680 CURVE SMOOTH",
"697 95 LINE SMOOTH",
"682 53 OFFCURVE",
"668 38 OFFCURVE",
"643 38 CURVE SMOOTH",
"617 38 OFFCURVE",
"608 54 OFFCURVE",
"609 95 CURVE SMOOTH",
"617 623 LINE SMOOTH",
"618 682 OFFCURVE",
"599 710 OFFCURVE",
"558 710 CURVE SMOOTH",
"518 710 OFFCURVE",
"489 682 OFFCURVE",
"469 623 CURVE SMOOTH",
"291 95 LINE SMOOTH",
"277 54 OFFCURVE",
"262 38 OFFCURVE",
"237 38 CURVE SMOOTH",
"212 38 OFFCURVE",
"203 53 OFFCURVE",
"203 95 CURVE SMOOTH",
"195 680 LINE SMOOTH",
"195 703 OFFCURVE",
"189 710 OFFCURVE",
"169 710 CURVE SMOOTH",
"150 710 OFFCURVE",
"142 700 OFFCURVE",
"142 675 CURVE SMOOTH",
"152 94 LINE SMOOTH",
"153 29 OFFCURVE",
"181 -10 OFFCURVE",
"228 -10 CURVE SMOOTH"
);
}
);
width = 953;
},
{
anchors = (
{
name = bottom;
position = "{435, 0}";
},
{
name = top;
position = "{559, 700}";
}
);
layerId = "71BB0B28-5B77-4945-A3C0-334755DB3BD8";
paths = (
{
closed = 1;
nodes = (
"291 -10 OFFCURVE",
"329 28 OFFCURVE",
"354 104 CURVE SMOOTH",
"522 609 LINE SMOOTH",
"531 636 OFFCURVE",
"539 646 OFFCURVE",
"552 646 CURVE SMOOTH",
"564 646 OFFCURVE",
"570 637 OFFCURVE",
"569 609 CURVE SMOOTH",
"558 104 LINE SMOOTH",
"556 27 OFFCURVE",
"584 -10 OFFCURVE",
"638 -10 CURVE SMOOTH",
"696 -10 OFFCURVE",
"734 29 OFFCURVE",
"762 105 CURVE SMOOTH",
"970 666 LINE SMOOTH",
"981 695 OFFCURVE",
"971 710 OFFCURVE",
"946 710 CURVE SMOOTH",
"918 710 OFFCURVE",
"907 698 OFFCURVE",
"898 673 CURVE SMOOTH",
"690 103 LINE SMOOTH",
"679 73 OFFCURVE",
"669 54 OFFCURVE",
"646 54 CURVE SMOOTH",
"626 54 OFFCURVE",
"617 69 OFFCURVE",
"618 102 CURVE SMOOTH",
"630 617 LINE SMOOTH",
"631 678 OFFCURVE",
"609 710 OFFCURVE",
"560 710 CURVE SMOOTH",
"512 710 OFFCURVE",
"478 680 OFFCURVE",
"457 617 CURVE SMOOTH",
"288 102 LINE SMOOTH",
"278 72 OFFCURVE",
"267 54 OFFCURVE",
"243 54 CURVE SMOOTH",
"224 54 OFFCURVE",
"216 66 OFFCURVE",
"216 102 CURVE SMOOTH",
"210 674 LINE SMOOTH",
"210 700 OFFCURVE",
"200 710 OFFCURVE",
"175 710 CURVE SMOOTH",
"147 710 OFFCURVE",
"134 694 OFFCURVE",
"135 666 CURVE SMOOTH",
"145 105 LINE SMOOTH",
"146 29 OFFCURVE",
"177 -10 OFFCURVE",
"233 -10 CURVE SMOOTH"
);
}
);
width = 955;
},
{
anchors = (
{
name = bottom;
position = "{445, 0}";
},
{
name = top;
position = "{569, 700}";
}
);
layerId = "D92B54DD-6BE9-4383-803D-42A15BF32189";
paths = (
{
closed = 1;
nodes = (
"323 -10 OFFCURVE",
"372 34 OFFCURVE",
"401 130 CURVE SMOOTH",
"539 578 LINE SMOOTH",
"544 597 OFFCURVE",
"550 605 OFFCURVE",
"558 605 CURVE SMOOTH",
"566 605 OFFCURVE",
"568 597 OFFCURVE",
"567 578 CURVE SMOOTH",
"547 130 LINE SMOOTH",
"543 34 OFFCURVE",
"575 -10 OFFCURVE",
"650 -10 CURVE SMOOTH",
"724 -10 OFFCURVE",
"770 32 OFFCURVE",
"807 133 CURVE SMOOTH",
"996 642 LINE SMOOTH",
"1012 685 OFFCURVE",
"994 710 OFFCURVE",
"948 710 CURVE SMOOTH",
"907 710 OFFCURVE",
"882 693 OFFCURVE",
"869 657 CURVE SMOOTH",
"680 122 LINE SMOOTH",
"673 102 OFFCURVE",
"668 95 OFFCURVE",
"660 95 CURVE SMOOTH",
"652 95 OFFCURVE",
"648 104 OFFCURVE",
"649 121 CURVE SMOOTH",
"671 600 LINE SMOOTH",
"674 669 OFFCURVE",
"637 710 OFFCURVE",
"571 710 CURVE SMOOTH",
"501 710 OFFCURVE",
"456 674 OFFCURVE",
"433 600 CURVE SMOOTH",
"285 121 LINE SMOOTH",
"279 102 OFFCURVE",
"274 95 OFFCURVE",
"266 95 CURVE SMOOTH",
"258 95 OFFCURVE",
"256 102 OFFCURVE",
"256 122 CURVE SMOOTH",
"255 657 LINE SMOOTH",
"255 692 OFFCURVE",
"235 710 OFFCURVE",
"194 710 CURVE SMOOTH",
"148 710 OFFCURVE",
"121 685 OFFCURVE",
"122 642 CURVE SMOOTH",
"131 133 LINE SMOOTH",
"133 37 OFFCURVE",
"171 -10 OFFCURVE",
"248 -10 CURVE SMOOTH"
);
}
);
width = 978;
}
);
leftKerningGroup = W;
note = W;
rightKerningGroup = W;
unicode = 0057;
},
{
glyphname = X;
lastChange = "2018-07-09 11:12:12 +0000";
layers = (
{
anchors = (
{
name = bottom;
position = "{356, 0}";
},
{
name = top;
position = "{356, 700}";
}
);
background = {
paths = (
{
closed = 1;
nodes = (
"88 -12 OFFCURVE",
"102 -6 OFFCURVE",
"108 9 CURVE",
"220 234 LINE SMOOTH",
"262 313 OFFCURVE",
"303 333 OFFCURVE",
"351 333 CURVE SMOOTH",
"397 333 OFFCURVE",
"439 313 OFFCURVE",
"480 234 CURVE SMOOTH",
"593 9 LINE",
"598 -6 OFFCURVE",
"611 -12 OFFCURVE",
"627 -4 CURVE",
"638 3 OFFCURVE",
"644 20 OFFCURVE",
"638 33 CURVE",
"524 260 LINE",
"494 313 OFFCURVE",
"463 341 OFFCURVE",
"433 358 CURVE",
"463 377 OFFCURVE",
"495 407 OFFCURVE",
"524 454 CURVE",
"638 660 LINE",
"645 674 OFFCURVE",
"640 692 OFFCURVE",
"627 699 CURVE",
"613 705 OFFCURVE",
"598 699 OFFCURVE",
"593 686 CURVE",
"480 476 LINE SMOOTH",
"442 406 OFFCURVE",
"397 385 OFFCURVE",
"351 385 CURVE SMOOTH",
"303 385 OFFCURVE",
"265 393 OFFCURVE",
"220 476 CURVE SMOOTH",
"108 686 LINE",
"102 699 OFFCURVE",
"88 705 OFFCURVE",
"74 699 CURVE",
"61 692 OFFCURVE",
"55 674 OFFCURVE",
"63 660 CURVE",
"176 456 LINE SMOOTH",
"204 406 OFFCURVE",
"237 377 OFFCURVE",
"267 358 CURVE",
"220 331 OFFCURVE",
"209 309 OFFCURVE",
"180 263 CURVE",
"63 33 LINE SMOOTH",
"57 20 OFFCURVE",
"63 3 OFFCURVE",
"74 -4 CURVE"
);
}
);
};
layerId = "0B1DFD06-3317-40CA-B510-4969A0718C16";
paths = (
{
closed = 1;
nodes = (
"653 4 OFFCURVE",
"654 19 OFFCURVE",
"644 32 CURVE SMOOTH",
"120 694 LINE SMOOTH",
"107 710 OFFCURVE",
"93 714 OFFCURVE",
"80 704 CURVE SMOOTH",
"70 696 OFFCURVE",
"69 681 OFFCURVE",
"79 668 CURVE SMOOTH",
"603 5 LINE SMOOTH",
"616 -11 OFFCURVE",
"630 -14 OFFCURVE",
"643 -4 CURVE SMOOTH"
);
},
{
closed = 1;
nodes = (
"82 -14 OFFCURVE",
"96 -10 OFFCURVE",
"109 6 CURVE SMOOTH",
"633 668 LINE SMOOTH",
"643 681 OFFCURVE",
"642 696 OFFCURVE",
"632 704 CURVE SMOOTH",
"619 714 OFFCURVE",
"605 710 OFFCURVE",
"592 694 CURVE SMOOTH",
"68 32 LINE SMOOTH",
"58 19 OFFCURVE",
"59 4 OFFCURVE",
"69 -4 CURVE SMOOTH"
);
}
);
width = 712;
},
{
anchors = (
{
name = bottom;
position = "{367, 0}";
},
{
name = top;
position = "{367, 700}";
}
);
layerId = "258BB4CE-589F-454F-8E39-237B943AA0B4";
paths = (
{
closed = 1;
nodes = (
"668 16 OFFCURVE",
"677 59 OFFCURVE",
"657 84 CURVE SMOOTH",
"165 680 LINE SMOOTH",
"140 711 OFFCURVE",
"111 717 OFFCURVE",
"79 698 CURVE SMOOTH",
"50 681 OFFCURVE",
"44 636 OFFCURVE",
"69 606 CURVE SMOOTH",
"557 20 LINE SMOOTH",
"583 -11 OFFCURVE",
"609 -18 OFFCURVE",
"639 -1 CURVE SMOOTH"
);
},
{
closed = 1;
nodes = (
"105 -18 OFFCURVE",
"131 -11 OFFCURVE",
"157 20 CURVE SMOOTH",
"645 606 LINE SMOOTH",
"670 636 OFFCURVE",
"664 680 OFFCURVE",
"635 698 CURVE SMOOTH",
"603 718 OFFCURVE",
"574 711 OFFCURVE",
"549 680 CURVE SMOOTH",
"57 84 LINE SMOOTH",
"37 59 OFFCURVE",
"46 16 OFFCURVE",
"75 -1 CURVE SMOOTH"
);
}
);
width = 714;
},
{
anchors = (
{
name = bottom;
position = "{358, 0}";
},
{
name = top;
position = "{358, 700}";
}
);
layerId = "8ED59CAD-D047-43C0-8308-3370007B39AA";
paths = (
{
closed = 1;
nodes = (
"660 6 OFFCURVE",
"663 29 OFFCURVE",
"649 46 CURVE SMOOTH",
"132 690 LINE SMOOTH",
"119 706 OFFCURVE",
"104 717 OFFCURVE",
"83 704 CURVE SMOOTH",
"66 694 OFFCURVE",
"65 669 OFFCURVE",
"77 653 CURVE SMOOTH",
"592 10 LINE SMOOTH",
"608 -10 OFFCURVE",
"624 -15 OFFCURVE",
"643 -4 CURVE SMOOTH"
);
},
{
closed = 1;
nodes = (
"87 -15 OFFCURVE",
"103 -10 OFFCURVE",
"119 10 CURVE SMOOTH",
"635 653 LINE SMOOTH",
"649 671 OFFCURVE",
"645 694 OFFCURVE",
"628 704 CURVE SMOOTH",
"611 715 OFFCURVE",
"595 710 OFFCURVE",
"579 690 CURVE SMOOTH",
"63 46 LINE SMOOTH",
"49 29 OFFCURVE",
"52 6 OFFCURVE",
"69 -4 CURVE SMOOTH"
);
}
);
width = 712;
},
{
anchors = (
{
name = bottom;
position = "{275, -10}";
},
{
name = top;
position = "{524, 700}";
}
);
layerId = "6D0DA379-F071-4911-97B5-1F20F456FBFD";
paths = (
{
closed = 1;
nodes = (
"619 3 OFFCURVE",
"622 18 OFFCURVE",
"615 31 CURVE SMOOTH",
"208 694 LINE SMOOTH",
"198 711 OFFCURVE",
"186 715 OFFCURVE",
"172 704 CURVE SMOOTH",
"161 695 OFFCURVE",
"158 681 OFFCURVE",
"165 668 CURVE SMOOTH",
"572 5 LINE SMOOTH",
"582 -12 OFFCURVE",
"593 -15 OFFCURVE",
"607 -5 CURVE SMOOTH"
);
},
{
closed = 1;
nodes = (
"41 -16 OFFCURVE",
"61 -11 OFFCURVE",
"77 5 CURVE SMOOTH",
"716 668 LINE SMOOTH",
"727 680 OFFCURVE",
"728 695 OFFCURVE",
"718 704 CURVE SMOOTH",
"707 714 OFFCURVE",
"689 710 OFFCURVE",
"674 694 CURVE SMOOTH",
"33 31 LINE SMOOTH",
"22 19 OFFCURVE",
"21 4 OFFCURVE",
"30 -5 CURVE SMOOTH"
);
}
);
width = 725;
},
{
anchors = (
{
name = bottom;
position = "{275, -3}";
},
{
name = top;
position = "{522, 700}";
}
);
layerId = "71BB0B28-5B77-4945-A3C0-334755DB3BD8";
paths = (
{
closed = 1;
nodes = (
"622 6 OFFCURVE",
"629 29 OFFCURVE",
"618 46 CURVE SMOOTH",
"216 690 LINE SMOOTH",
"203 710 OFFCURVE",
"190 715 OFFCURVE",
"170 704 CURVE SMOOTH",
"150 692 OFFCURVE",
"146 669 OFFCURVE",
"156 653 CURVE SMOOTH",
"558 10 LINE SMOOTH",
"571 -11 OFFCURVE",
"584 -15 OFFCURVE",
"604 -4 CURVE SMOOTH"
);
},
{
closed = 1;
nodes = (
"45 -15 OFFCURVE",
"67 -9 OFFCURVE",
"86 10 CURVE SMOOTH",
"714 653 LINE SMOOTH",
"730 670 OFFCURVE",
"728 694 OFFCURVE",
"714 704 CURVE SMOOTH",
"698 715 OFFCURVE",
"680 709 OFFCURVE",
"661 690 CURVE SMOOTH",
"31 46 LINE SMOOTH",
"14 29 OFFCURVE",
"14 6 OFFCURVE",
"30 -5 CURVE SMOOTH"
);
}
);
width = 719;
},
{
anchors = (
{
name = bottom;
position = "{288, 0}";
},
{
name = top;
position = "{534, 700}";
}
);
layerId = "D92B54DD-6BE9-4383-803D-42A15BF32189";
paths = (
{
closed = 1;
nodes = (
"631 13 OFFCURVE",
"647 56 OFFCURVE",
"631 81 CURVE SMOOTH",
"245 680 LINE SMOOTH",
"225 711 OFFCURVE",
"199 717 OFFCURVE",
"164 698 CURVE SMOOTH",
"132 680 OFFCURVE",
"121 636 OFFCURVE",
"140 606 CURVE SMOOTH",
"524 17 LINE SMOOTH",
"544 -14 OFFCURVE",
"568 -20 OFFCURVE",
"600 -4 CURVE SMOOTH"
);
},
{
closed = 1;
nodes = (
"63 -21 OFFCURVE",
"94 -13 OFFCURVE",
"124 17 CURVE SMOOTH",
"716 606 LINE SMOOTH",
"745 635 OFFCURVE",
"747 680 OFFCURVE",
"720 698 CURVE SMOOTH",
"692 717 OFFCURVE",
"659 711 OFFCURVE",
"629 680 CURVE SMOOTH",
"31 81 LINE SMOOTH",
"7 57 OFFCURVE",
"9 13 OFFCURVE",
"36 -4 CURVE SMOOTH"
);
}
);
width = 722;
}
);
note = X;
unicode = 0058;
},
{
glyphname = Y;
lastChange = "2018-07-09 11:12:12 +0000";
layers = (
{
anchors = (
{
name = bottom;
position = "{342, 0}";
},
{
name = top;
position = "{342, 700}";
},
{
name = topleft;
position = "{31, 700}";
}
);
layerId = "0B1DFD06-3317-40CA-B510-4969A0718C16";
paths = (
{
closed = 1;
nodes = (
"504 230 OFFCURVE",
"623 363 OFFCURVE",
"623 545 CURVE SMOOTH",
"623 678 LINE SMOOTH",
"623 699 OFFCURVE",
"614 710 OFFCURVE",
"597 710 CURVE SMOOTH",
"580 710 OFFCURVE",
"570 699 OFFCURVE",
"570 678 CURVE SMOOTH",
"570 542 LINE SMOOTH",
"570 380 OFFCURVE",
"483 279 OFFCURVE",
"342 279 CURVE SMOOTH",
"199 279 OFFCURVE",
"114 377 OFFCURVE",
"114 542 CURVE SMOOTH",
"114 678 LINE SMOOTH",
"114 699 OFFCURVE",
"104 710 OFFCURVE",
"87 710 CURVE SMOOTH",
"70 710 OFFCURVE",
"61 699 OFFCURVE",
"61 678 CURVE SMOOTH",
"61 545 LINE SMOOTH",
"61 355 OFFCURVE",
"172 230 OFFCURVE",
"342 230 CURVE SMOOTH"
);
},
{
closed = 1;
nodes = (
"359 -10 OFFCURVE",
"369 1 OFFCURVE",
"369 22 CURVE SMOOTH",
"369 241 LINE",
"316 241 LINE",
"316 22 LINE SMOOTH",
"316 1 OFFCURVE",
"325 -10 OFFCURVE",
"342 -10 CURVE SMOOTH"
);
}
);
width = 684;
},
{
anchors = (
{
name = bottom;
position = "{367, 0}";
},
{
name = top;
position = "{367, 700}";
},
{
name = topleft;
position = "{56, 700}";
}
);
layerId = "258BB4CE-589F-454F-8E39-237B943AA0B4";
paths = (
{
closed = 1;
nodes = (
"567 222 OFFCURVE",
"688 343 OFFCURVE",
"688 545 CURVE SMOOTH",
"688 650 LINE SMOOTH",
"688 687 OFFCURVE",
"662 710 OFFCURVE",
"622 710 CURVE SMOOTH",
"582 710 OFFCURVE",
"555 686 OFFCURVE",
"555 650 CURVE SMOOTH",
"555 542 LINE SMOOTH",
"555 404 OFFCURVE",
"488 327 OFFCURVE",
"367 327 CURVE SMOOTH",
"246 327 OFFCURVE",
"179 404 OFFCURVE",
"179 542 CURVE SMOOTH",
"179 650 LINE SMOOTH",
"179 686 OFFCURVE",
"152 710 OFFCURVE",
"112 710 CURVE SMOOTH",
"72 710 OFFCURVE",
"46 687 OFFCURVE",
"46 650 CURVE SMOOTH",
"46 545 LINE SMOOTH",
"46 343 OFFCURVE",
"167 222 OFFCURVE",
"367 222 CURVE SMOOTH"
);
},
{
closed = 1;
nodes = (
"407 -10 OFFCURVE",
"434 14 OFFCURVE",
"434 50 CURVE SMOOTH",
"434 289 LINE",
"301 289 LINE",
"301 50 LINE SMOOTH",
"301 13 OFFCURVE",
"327 -10 OFFCURVE",
"367 -10 CURVE SMOOTH"
);
}
);
width = 734;
},
{
anchors = (
{
name = bottom;
position = "{348, 0}";
},
{
name = top;
position = "{348, 700}";
},
{
name = topleft;
position = "{37, 700}";
}
);
layerId = "8ED59CAD-D047-43C0-8308-3370007B39AA";
paths = (
{
closed = 1;
nodes = (
"521 228 OFFCURVE",
"640 358 OFFCURVE",
"640 545 CURVE SMOOTH",
"640 670 LINE SMOOTH",
"640 696 OFFCURVE",
"626 710 OFFCURVE",
"603 710 CURVE SMOOTH",
"580 710 OFFCURVE",
"565 695 OFFCURVE",
"565 670 CURVE SMOOTH",
"565 542 LINE SMOOTH",
"565 386 OFFCURVE",
"483 292 OFFCURVE",
"348 292 CURVE SMOOTH",
"212 292 OFFCURVE",
"131 384 OFFCURVE",
"131 542 CURVE SMOOTH",
"131 670 LINE SMOOTH",
"131 695 OFFCURVE",
"117 710 OFFCURVE",
"93 710 CURVE SMOOTH",
"70 710 OFFCURVE",
"56 695 OFFCURVE",
"56 670 CURVE SMOOTH",
"56 545 LINE SMOOTH",
"56 352 OFFCURVE",
"170 228 OFFCURVE",
"348 228 CURVE SMOOTH"
);
},
{
closed = 1;
nodes = (
"372 -10 OFFCURVE",
"386 5 OFFCURVE",
"386 30 CURVE SMOOTH",
"386 254 LINE",
"311 254 LINE",
"311 30 LINE SMOOTH",
"311 5 OFFCURVE",
"325 -10 OFFCURVE",
"348 -10 CURVE SMOOTH"
);
}
);
width = 696;
},
{
anchors = (
{
name = bottom;
position = "{303, 0}";
},
{
name = top;
position = "{426, 700}";
},
{
name = topleft;
position = "{115, 700}";
}
);
layerId = "6D0DA379-F071-4911-97B5-1F20F456FBFD";
paths = (
{
closed = 1;
nodes = (
"518 230 OFFCURVE",
"644 348 OFFCURVE",
"680 545 CURVE SMOOTH",
"704 678 LINE SMOOTH",
"707 699 OFFCURVE",
"700 710 OFFCURVE",
"683 710 CURVE SMOOTH",
"666 710 OFFCURVE",
"654 699 OFFCURVE",
"651 678 CURVE SMOOTH",
"627 542 LINE SMOOTH",
"598 377 OFFCURVE",
"495 279 OFFCURVE",
"352 279 CURVE SMOOTH",
"204 279 OFFCURVE",
"140 371 OFFCURVE",
"171 542 CURVE SMOOTH",
"195 678 LINE SMOOTH",
"198 699 OFFCURVE",
"190 710 OFFCURVE",
"173 710 CURVE SMOOTH",
"156 710 OFFCURVE",
"145 699 OFFCURVE",
"142 678 CURVE SMOOTH",
"118 545 LINE SMOOTH",
"86 360 OFFCURVE",
"179 230 OFFCURVE",
"344 230 CURVE SMOOTH"
);
},
{
closed = 1;
nodes = (
"318 -10 OFFCURVE",
"330 1 OFFCURVE",
"334 22 CURVE SMOOTH",
"372 241 LINE",
"319 241 LINE",
"281 22 LINE SMOOTH",
"277 1 OFFCURVE",
"284 -10 OFFCURVE",
"301 -10 CURVE SMOOTH"
);
}
);
width = 693;
},
{
anchors = (
{
name = bottom;
position = "{310, 0}";
},
{
name = top;
position = "{434, 700}";
},
{
name = topleft;
position = "{122, 700}";
}
);
layerId = "71BB0B28-5B77-4945-A3C0-334755DB3BD8";
paths = (
{
closed = 1;
nodes = (
"530 228 OFFCURVE",
"662 350 OFFCURVE",
"698 545 CURVE SMOOTH",
"721 670 LINE SMOOTH",
"726 698 OFFCURVE",
"711 710 OFFCURVE",
"690 710 CURVE SMOOTH",
"667 710 OFFCURVE",
"649 695 OFFCURVE",
"645 670 CURVE SMOOTH",
"623 542 LINE SMOOTH",
"595 379 OFFCURVE",
"498 292 OFFCURVE",
"362 292 CURVE SMOOTH",
"215 292 OFFCURVE",
"160 381 OFFCURVE",
"189 542 CURVE SMOOTH",
"212 670 LINE SMOOTH",
"216 694 OFFCURVE",
"205 710 OFFCURVE",
"180 710 CURVE SMOOTH",
"156 710 OFFCURVE",
"140 694 OFFCURVE",
"136 670 CURVE SMOOTH",
"114 545 LINE SMOOTH",
"81 358 OFFCURVE",
"178 228 OFFCURVE",
"351 228 CURVE SMOOTH"
);
},
{
closed = 1;
nodes = (
"331 -10 OFFCURVE",
"350 5 OFFCURVE",
"354 30 CURVE SMOOTH",
"393 254 LINE",
"318 254 LINE",
"278 30 LINE SMOOTH",
"273 4 OFFCURVE",
"286 -10 OFFCURVE",
"308 -10 CURVE SMOOTH"
);
}
);
width = 705;
},
{
anchors = (
{
name = bottom;
position = "{328, 0}";
},
{
name = top;
position = "{452, 700}";
},
{
name = topleft;
position = "{140, 700}";
}
);
layerId = "D92B54DD-6BE9-4383-803D-42A15BF32189";
paths = (
{
closed = 1;
nodes = (
"581 222 OFFCURVE",
"707 333 OFFCURVE",
"745 545 CURVE SMOOTH",
"764 650 LINE SMOOTH",
"770 687 OFFCURVE",
"748 710 OFFCURVE",
"708 710 CURVE SMOOTH",
"668 710 OFFCURVE",
"637 686 OFFCURVE",
"631 650 CURVE SMOOTH",
"612 542 LINE SMOOTH",
"587 404 OFFCURVE",
"507 327 OFFCURVE",
"386 327 CURVE SMOOTH",
"256 327 OFFCURVE",
"209 394 OFFCURVE",
"236 542 CURVE SMOOTH",
"255 650 LINE SMOOTH",
"261 686 OFFCURVE",
"238 710 OFFCURVE",
"198 710 CURVE SMOOTH",
"157 710 OFFCURVE",
"128 687 OFFCURVE",
"122 650 CURVE SMOOTH",
"103 545 LINE SMOOTH",
"68 346 OFFCURVE",
"173 222 OFFCURVE",
"377 222 CURVE SMOOTH"
);
},
{
closed = 1;
nodes = (
"366 -10 OFFCURVE",
"397 14 OFFCURVE",
"404 50 CURVE SMOOTH",
"446 289 LINE",
"313 289 LINE",
"271 50 LINE SMOOTH",
"264 13 OFFCURVE",
"286 -10 OFFCURVE",
"326 -10 CURVE SMOOTH"
);
}
);
width = 743;
}
);
leftKerningGroup = Y;
note = Y;
rightKerningGroup = Y;
unicode = 0059;
},
{
glyphname = Z;
lastChange = "2018-07-09 11:12:12 +0000";
layers = (
{
anchors = (
{
name = bottom;
position = "{352, 0}";
},
{
name = top;
position = "{352, 700}";
}
);
layerId = "0B1DFD06-3317-40CA-B510-4969A0718C16";
paths = (
{
closed = 1;
nodes = (
"612 0 LINE SMOOTH",
"631 0 OFFCURVE",
"642 6 OFFCURVE",
"642 24 CURVE SMOOTH",
"642 39 OFFCURVE",
"632 47 OFFCURVE",
"612 47 CURVE SMOOTH",
"160 47 LINE SMOOTH",
"127 47 OFFCURVE",
"116 62 OFFCURVE",
"116 85 CURVE SMOOTH",
"116 114 OFFCURVE",
"125 133 OFFCURVE",
"154 157 CURVE SMOOTH",
"575 509 LINE SMOOTH",
"617 544 OFFCURVE",
"635 566 OFFCURVE",
"635 615 CURVE SMOOTH",
"635 677 OFFCURVE",
"596 700 OFFCURVE",
"538 700 CURVE SMOOTH",
"111 700 LINE SMOOTH",
"92 700 OFFCURVE",
"81 694 OFFCURVE",
"81 676 CURVE SMOOTH",
"81 661 OFFCURVE",
"91 653 OFFCURVE",
"111 653 CURVE SMOOTH",
"536 653 LINE SMOOTH",
"571 653 OFFCURVE",
"580 637 OFFCURVE",
"580 615 CURVE SMOOTH",
"580 586 OFFCURVE",
"571 567 OFFCURVE",
"542 543 CURVE SMOOTH",
"121 192 LINE SMOOTH",
"79 157 OFFCURVE",
"61 134 OFFCURVE",
"61 85 CURVE SMOOTH",
"61 23 OFFCURVE",
"100 0 OFFCURVE",
"158 0 CURVE SMOOTH"
);
}
);
width = 703;
},
{
anchors = (
{
name = bottom;
position = "{376, 0}";
},
{
name = top;
position = "{376, 700}";
}
);
layerId = "258BB4CE-589F-454F-8E39-237B943AA0B4";
paths = (
{
closed = 1;
nodes = (
"608 0 LINE SMOOTH",
"646 0 OFFCURVE",
"678 17 OFFCURVE",
"678 52 CURVE SMOOTH",
"678 86 OFFCURVE",
"644 103 OFFCURVE",
"608 103 CURVE SMOOTH",
"227 103 LINE SMOOTH",
"193 103 OFFCURVE",
"180 111 OFFCURVE",
"180 124 CURVE SMOOTH",
"180 141 OFFCURVE",
"188 151 OFFCURVE",
"204 163 CURVE SMOOTH",
"597 460 LINE SMOOTH",
"656 504 OFFCURVE",
"670 534 OFFCURVE",
"670 587 CURVE SMOOTH",
"670 659 OFFCURVE",
"618 700 OFFCURVE",
"532 700 CURVE SMOOTH",
"135 700 LINE SMOOTH",
"97 700 OFFCURVE",
"65 683 OFFCURVE",
"65 648 CURVE SMOOTH",
"65 614 OFFCURVE",
"99 597 OFFCURVE",
"135 597 CURVE SMOOTH",
"501 597 LINE SMOOTH",
"529 597 OFFCURVE",
"536 586 OFFCURVE",
"536 574 CURVE SMOOTH",
"536 558 OFFCURVE",
"528 549 OFFCURVE",
"512 537 CURVE SMOOTH",
"119 240 LINE SMOOTH",
"59 195 OFFCURVE",
"46 160 OFFCURVE",
"46 113 CURVE SMOOTH",
"46 46 OFFCURVE",
"98 0 OFFCURVE",
"184 0 CURVE SMOOTH"
);
}
);
width = 724;
},
{
anchors = (
{
name = bottom;
position = "{356, 0}";
},
{
name = top;
position = "{356, 700}";
}
);
layerId = "8ED59CAD-D047-43C0-8308-3370007B39AA";
paths = (
{
closed = 1;
nodes = (
"608 0 LINE SMOOTH",
"631 0 OFFCURVE",
"649 9 OFFCURVE",
"649 32 CURVE SMOOTH",
"649 52 OFFCURVE",
"632 62 OFFCURVE",
"608 62 CURVE SMOOTH",
"175 62 LINE SMOOTH",
"145 62 OFFCURVE",
"130 73 OFFCURVE",
"130 96 CURVE SMOOTH",
"130 122 OFFCURVE",
"139 138 OFFCURVE",
"164 158 CURVE SMOOTH",
"578 495 LINE SMOOTH",
"625 533 OFFCURVE",
"641 557 OFFCURVE",
"641 607 CURVE SMOOTH",
"641 672 OFFCURVE",
"598 700 OFFCURVE",
"532 700 CURVE SMOOTH",
"115 700 LINE SMOOTH",
"90 700 OFFCURVE",
"73 691 OFFCURVE",
"73 668 CURVE SMOOTH",
"73 648 OFFCURVE",
"90 638 OFFCURVE",
"115 638 CURVE SMOOTH",
"523 638 LINE SMOOTH",
"553 638 OFFCURVE",
"565 626 OFFCURVE",
"565 604 CURVE SMOOTH",
"565 578 OFFCURVE",
"556 563 OFFCURVE",
"530 542 CURVE SMOOTH",
"117 206 LINE SMOOTH",
"70 168 OFFCURVE",
"54 141 OFFCURVE",
"54 93 CURVE SMOOTH",
"54 30 OFFCURVE",
"97 0 OFFCURVE",
"163 0 CURVE SMOOTH"
);
}
);
width = 703;
},
{
anchors = (
{
name = bottom;
position = "{312, 0}";
},
{
name = top;
position = "{435, 700}";
}
);
layerId = "6D0DA379-F071-4911-97B5-1F20F456FBFD";
paths = (
{
closed = 1;
nodes = (
"572 0 LINE SMOOTH",
"596 0 OFFCURVE",
"607 9 OFFCURVE",
"607 29 CURVE SMOOTH",
"607 41 OFFCURVE",
"598 47 OFFCURVE",
"580 47 CURVE SMOOTH",
"128 47 LINE SMOOTH",
"102 47 OFFCURVE",
"88 62 OFFCURVE",
"88 81 CURVE SMOOTH",
"88 114 OFFCURVE",
"106 131 OFFCURVE",
"142 157 CURVE SMOOTH",
"625 509 LINE SMOOTH",
"682 550 OFFCURVE",
"703 580 OFFCURVE",
"703 626 CURVE SMOOTH",
"703 671 OFFCURVE",
"671 700 OFFCURVE",
"619 700 CURVE SMOOTH",
"194 700 LINE SMOOTH",
"171 700 OFFCURVE",
"160 690 OFFCURVE",
"160 675 CURVE SMOOTH",
"160 662 OFFCURVE",
"168 653 OFFCURVE",
"186 653 CURVE SMOOTH",
"611 653 LINE SMOOTH",
"636 653 OFFCURVE",
"648 640 OFFCURVE",
"648 622 CURVE SMOOTH",
"648 591 OFFCURVE",
"633 568 OFFCURVE",
"598 543 CURVE SMOOTH",
"115 192 LINE SMOOTH",
"57 150 OFFCURVE",
"36 124 OFFCURVE",
"36 75 CURVE SMOOTH",
"36 32 OFFCURVE",
"68 0 OFFCURVE",
"120 0 CURVE SMOOTH"
);
}
);
width = 710;
},
{
anchors = (
{
name = bottom;
position = "{318, 0}";
},
{
name = top;
position = "{442, 700}";
}
);
layerId = "71BB0B28-5B77-4945-A3C0-334755DB3BD8";
paths = (
{
closed = 1;
nodes = (
"570 0 LINE SMOOTH",
"600 0 OFFCURVE",
"618 15 OFFCURVE",
"618 37 CURVE SMOOTH",
"618 53 OFFCURVE",
"603 62 OFFCURVE",
"581 62 CURVE SMOOTH",
"149 62 LINE SMOOTH",
"121 62 OFFCURVE",
"108 73 OFFCURVE",
"108 90 CURVE SMOOTH",
"108 118 OFFCURVE",
"125 136 OFFCURVE",
"155 158 CURVE SMOOTH",
"628 495 LINE SMOOTH",
"687 537 OFFCURVE",
"711 572 OFFCURVE",
"711 617 CURVE SMOOTH",
"711 670 OFFCURVE",
"674 700 OFFCURVE",
"613 700 CURVE SMOOTH",
"200 700 LINE SMOOTH",
"171 700 OFFCURVE",
"153 687 OFFCURVE",
"153 667 CURVE SMOOTH",
"153 650 OFFCURVE",
"166 638 OFFCURVE",
"189 638 CURVE SMOOTH",
"597 638 LINE SMOOTH",
"622 638 OFFCURVE",
"634 626 OFFCURVE",
"634 606 CURVE SMOOTH",
"634 584 OFFCURVE",
"620 564 OFFCURVE",
"588 541 CURVE SMOOTH",
"116 205 LINE SMOOTH",
"60 165 OFFCURVE",
"32 125 OFFCURVE",
"32 76 CURVE SMOOTH",
"32 31 OFFCURVE",
"70 0 OFFCURVE",
"126 0 CURVE SMOOTH"
);
}
);
width = 711;
},
{
anchors = (
{
name = bottom;
position = "{336, 0}";
},
{
name = top;
position = "{460, 700}";
}
);
layerId = "D92B54DD-6BE9-4383-803D-42A15BF32189";
paths = (
{
closed = 1;
nodes = (
"568 0 LINE SMOOTH",
"615 0 OFFCURVE",
"648 24 OFFCURVE",
"648 59 CURVE SMOOTH",
"648 85 OFFCURVE",
"623 103 OFFCURVE",
"586 103 CURVE SMOOTH",
"205 103 LINE SMOOTH",
"175 103 OFFCURVE",
"161 110 OFFCURVE",
"161 125 CURVE SMOOTH",
"161 138 OFFCURVE",
"168 146 OFFCURVE",
"193 163 CURVE SMOOTH",
"638 460 LINE SMOOTH",
"707 506 OFFCURVE",
"736 550 OFFCURVE",
"736 609 CURVE SMOOTH",
"736 667 OFFCURVE",
"693 700 OFFCURVE",
"615 700 CURVE SMOOTH",
"218 700 LINE SMOOTH",
"171 700 OFFCURVE",
"138 676 OFFCURVE",
"138 641 CURVE SMOOTH",
"138 615 OFFCURVE",
"163 597 OFFCURVE",
"200 597 CURVE SMOOTH",
"566 597 LINE SMOOTH",
"588 597 OFFCURVE",
"598 591 OFFCURVE",
"598 576 CURVE SMOOTH",
"598 563 OFFCURVE",
"589 552 OFFCURVE",
"567 537 CURVE SMOOTH",
"121 240 LINE SMOOTH",
"54 196 OFFCURVE",
"24 150 OFFCURVE",
"24 92 CURVE SMOOTH",
"24 35 OFFCURVE",
"69 0 OFFCURVE",
"144 0 CURVE SMOOTH"
);
}
);
width = 731;
}
);
leftKerningGroup = Z;
note = Z;
rightKerningGroup = Z;
unicode = 005A;
},
{
glyphname = a;
lastChange = "2018-07-09 11:12:12 +0000";
layers = (
{
anchors = (
{
name = bottom;
position = "{299, 0}";
},
{
name = ogonek;
position = "{485, 10}";
},
{
name = top;
position = "{299, 490}";
}
);
layerId = "0B1DFD06-3317-40CA-B510-4969A0718C16";
paths = (
{
closed = 1;
nodes = (
"343 -10 OFFCURVE",
"411 17 OFFCURVE",
"453 67 CURVE",
"453 22 LINE SMOOTH",
"453 1 OFFCURVE",
"462 -10 OFFCURVE",
"478 -10 CURVE SMOOTH",
"495 -10 OFFCURVE",
"503 0 OFFCURVE",
"503 22 CURVE SMOOTH",
"503 323 LINE SMOOTH",
"503 436 OFFCURVE",
"426 500 OFFCURVE",
"290 500 CURVE SMOOTH",
"213 500 OFFCURVE",
"136 477 OFFCURVE",
"86 438 CURVE SMOOTH",
"76 430 OFFCURVE",
"77 409 OFFCURVE",
"88 402 CURVE SMOOTH",
"99 395 OFFCURVE",
"107 396 OFFCURVE",
"122 405 CURVE SMOOTH",
"174 437 OFFCURVE",
"228 452 OFFCURVE",
"292 452 CURVE SMOOTH",
"397 452 OFFCURVE",
"452 409 OFFCURVE",
"452 327 CURVE SMOOTH",
"452 254 LINE",
"420 294 OFFCURVE",
"349 318 OFFCURVE",
"266 318 CURVE SMOOTH",
"131 318 OFFCURVE",
"51 256 OFFCURVE",
"51 153 CURVE SMOOTH",
"51 50 OFFCURVE",
"128 -10 OFFCURVE",
"261 -10 CURVE SMOOTH"
);
},
{
closed = 1;
nodes = (
"156 38 OFFCURVE",
"103 77 OFFCURVE",
"103 153 CURVE SMOOTH",
"103 229 OFFCURVE",
"159 270 OFFCURVE",
"263 270 CURVE SMOOTH",
"383 270 OFFCURVE",
"453 230 OFFCURVE",
"453 160 CURVE SMOOTH",
"453 87 OFFCURVE",
"377 38 OFFCURVE",
"261 38 CURVE SMOOTH"
);
}
);
width = 579;
},
{
anchors = (
{
name = bottom;
position = "{307, 0}";
},
{
name = ogonek;
position = "{483, 10}";
},
{
name = top;
position = "{307, 490}";
}
);
layerId = "258BB4CE-589F-454F-8E39-237B943AA0B4";
paths = (
{
closed = 1;
nodes = (
"320 -10 OFFCURVE",
"377 12 OFFCURVE",
"415 55 CURVE",
"415 44 LINE SMOOTH",
"415 10 OFFCURVE",
"439 -10 OFFCURVE",
"480 -10 CURVE SMOOTH",
"520 -10 OFFCURVE",
"545 11 OFFCURVE",
"545 46 CURVE SMOOTH",
"545 303 LINE SMOOTH",
"545 426 OFFCURVE",
"451 500 OFFCURVE",
"296 500 CURVE SMOOTH",
"214 500 OFFCURVE",
"137 479 OFFCURVE",
"89 444 CURVE SMOOTH",
"59 422 OFFCURVE",
"57 392 OFFCURVE",
"74 371 CURVE SMOOTH",
"94 347 OFFCURVE",
"121 345 OFFCURVE",
"156 365 CURVE SMOOTH",
"195 388 OFFCURVE",
"241 400 OFFCURVE",
"297 400 CURVE SMOOTH",
"370 400 OFFCURVE",
"410 366 OFFCURVE",
"410 303 CURVE SMOOTH",
"410 279 LINE",
"373 305 OFFCURVE",
"325 318 OFFCURVE",
"264 318 CURVE SMOOTH",
"124 318 OFFCURVE",
"36 255 OFFCURVE",
"36 156 CURVE SMOOTH",
"36 57 OFFCURVE",
"121 -10 OFFCURVE",
"246 -10 CURVE SMOOTH"
);
},
{
closed = 1;
nodes = (
"206 82 OFFCURVE",
"166 109 OFFCURVE",
"166 156 CURVE SMOOTH",
"166 202 OFFCURVE",
"207 229 OFFCURVE",
"279 229 CURVE SMOOTH",
"359 229 OFFCURVE",
"411 200 OFFCURVE",
"411 156 CURVE SMOOTH",
"411 109 OFFCURVE",
"361 82 OFFCURVE",
"277 82 CURVE SMOOTH"
);
}
);
width = 586;
},
{
anchors = (
{
name = bottom;
position = "{296, 0}";
},
{
name = ogonek;
position = "{477, 10}";
},
{
name = top;
position = "{296, 490}";
}
);
layerId = "8ED59CAD-D047-43C0-8308-3370007B39AA";
paths = (
{
closed = 1;
nodes = (
"335 -10 OFFCURVE",
"398 15 OFFCURVE",
"439 64 CURVE",
"439 28 LINE SMOOTH",
"439 5 OFFCURVE",
"453 -10 OFFCURVE",
"475 -10 CURVE SMOOTH",
"499 -10 OFFCURVE",
"511 4 OFFCURVE",
"511 29 CURVE SMOOTH",
"511 317 LINE SMOOTH",
"511 433 OFFCURVE",
"429 500 OFFCURVE",
"288 500 CURVE SMOOTH",
"210 500 OFFCURVE",
"131 476 OFFCURVE",
"83 439 CURVE SMOOTH",
"67 427 OFFCURVE",
"66 404 OFFCURVE",
"81 391 CURVE SMOOTH",
"94 380 OFFCURVE",
"110 381 OFFCURVE",
"129 393 CURVE SMOOTH",
"174 422 OFFCURVE",
"224 437 OFFCURVE",
"290 437 CURVE SMOOTH",
"387 437 OFFCURVE",
"437 396 OFFCURVE",
"437 320 CURVE SMOOTH",
"437 256 LINE",
"405 291 OFFCURVE",
"342 315 OFFCURVE",
"262 315 CURVE SMOOTH",
"127 315 OFFCURVE",
"44 252 OFFCURVE",
"44 152 CURVE SMOOTH",
"44 51 OFFCURVE",
"123 -10 OFFCURVE",
"253 -10 CURVE SMOOTH"
);
},
{
closed = 1;
nodes = (
"169 51 OFFCURVE",
"118 86 OFFCURVE",
"118 152 CURVE SMOOTH",
"118 218 OFFCURVE",
"170 255 OFFCURVE",
"264 255 CURVE SMOOTH",
"374 255 OFFCURVE",
"438 220 OFFCURVE",
"438 157 CURVE SMOOTH",
"438 94 OFFCURVE",
"366 51 OFFCURVE",
"262 51 CURVE SMOOTH"
);
}
);
width = 576;
},
{
anchors = (
{
name = bottom;
position = "{216, 0}";
},
{
name = ogonek;
position = "{452, 10}";
},
{
name = top;
position = "{356, 490}";
}
);
layerId = "6D0DA379-F071-4911-97B5-1F20F456FBFD";
paths = (
{
closed = 1;
nodes = (
"305 -10 OFFCURVE",
"372 15 OFFCURVE",
"426 67 CURVE",
"418 22 LINE SMOOTH",
"415 2 OFFCURVE",
"423 -10 OFFCURVE",
"439 -10 CURVE SMOOTH",
"455 -10 OFFCURVE",
"463 -1 OFFCURVE",
"468 22 CURVE SMOOTH",
"521 323 LINE SMOOTH",
"538 436 OFFCURVE",
"473 500 OFFCURVE",
"339 500 CURVE SMOOTH",
"260 500 OFFCURVE",
"175 475 OFFCURVE",
"124 438 CURVE SMOOTH",
"118 434 OFFCURVE",
"114 425 OFFCURVE",
"114 416 CURVE SMOOTH",
"114 404 OFFCURVE",
"121 397 OFFCURVE",
"133 397 CURVE SMOOTH",
"139 397 OFFCURVE",
"145 400 OFFCURVE",
"154 405 CURVE SMOOTH",
"213 437 OFFCURVE",
"269 452 OFFCURVE",
"333 452 CURVE SMOOTH",
"444 452 OFFCURVE",
"486 414 OFFCURVE",
"471 327 CURVE SMOOTH",
"458 254 LINE",
"433 291 OFFCURVE",
"360 318 OFFCURVE",
"281 318 CURVE SMOOTH",
"131 318 OFFCURVE",
"36 245 OFFCURVE",
"36 128 CURVE SMOOTH",
"36 44 OFFCURVE",
"109 -10 OFFCURVE",
"220 -10 CURVE SMOOTH"
);
},
{
closed = 1;
nodes = (
"136 38 OFFCURVE",
"89 69 OFFCURVE",
"89 129 CURVE SMOOTH",
"89 217 OFFCURVE",
"157 270 OFFCURVE",
"272 270 CURVE SMOOTH",
"382 270 OFFCURVE",
"444 237 OFFCURVE",
"444 177 CURVE SMOOTH",
"444 96 OFFCURVE",
"354 38 OFFCURVE",
"229 38 CURVE SMOOTH"
);
}
);
width = 588;
},
{
anchors = (
{
name = bottom;
position = "{226, 0}";
},
{
name = ogonek;
position = "{449, 10}";
},
{
name = top;
position = "{341, 490}";
}
);
layerId = "71BB0B28-5B77-4945-A3C0-334755DB3BD8";
paths = (
{
closed = 1;
nodes = (
"292 -10 OFFCURVE",
"360 14 OFFCURVE",
"411 64 CURVE",
"404 28 LINE SMOOTH",
"399 3 OFFCURVE",
"411 -10 OFFCURVE",
"433 -10 CURVE SMOOTH",
"455 -10 OFFCURVE",
"472 1 OFFCURVE",
"477 29 CURVE SMOOTH",
"527 318 LINE SMOOTH",
"546 430 OFFCURVE",
"474 500 OFFCURVE",
"336 500 CURVE SMOOTH",
"256 500 OFFCURVE",
"175 477 OFFCURVE",
"120 439 CURVE SMOOTH",
"110 432 OFFCURVE",
"103 420 OFFCURVE",
"103 408 CURVE SMOOTH",
"103 394 OFFCURVE",
"115 383 OFFCURVE",
"130 383 CURVE SMOOTH",
"139 383 OFFCURVE",
"147 387 OFFCURVE",
"158 393 CURVE SMOOTH",
"208 422 OFFCURVE",
"261 437 OFFCURVE",
"327 437 CURVE SMOOTH",
"428 437 OFFCURVE",
"470 399 OFFCURVE",
"455 320 CURVE SMOOTH",
"443 256 LINE",
"414 292 OFFCURVE",
"349 315 OFFCURVE",
"275 315 CURVE SMOOTH",
"127 315 OFFCURVE",
"29 239 OFFCURVE",
"29 126 CURVE SMOOTH",
"29 44 OFFCURVE",
"102 -10 OFFCURVE",
"211 -10 CURVE SMOOTH"
);
},
{
closed = 1;
nodes = (
"147 51 OFFCURVE",
"103 79 OFFCURVE",
"103 132 CURVE SMOOTH",
"103 208 OFFCURVE",
"167 255 OFFCURVE",
"269 255 CURVE SMOOTH",
"370 255 OFFCURVE",
"427 225 OFFCURVE",
"427 171 CURVE SMOOTH",
"427 101 OFFCURVE",
"345 51 OFFCURVE",
"231 51 CURVE SMOOTH"
);
}
);
width = 584;
},
{
anchors = (
{
name = bottom;
position = "{242, 0}";
},
{
name = ogonek;
position = "{464, 10}";
},
{
name = top;
position = "{358, 490}";
}
);
layerId = "D92B54DD-6BE9-4383-803D-42A15BF32189";
paths = (
{
closed = 1;
nodes = (
"278 -10 OFFCURVE",
"339 12 OFFCURVE",
"385 55 CURVE",
"383 44 LINE SMOOTH",
"377 11 OFFCURVE",
"398 -10 OFFCURVE",
"438 -10 CURVE SMOOTH",
"479 -10 OFFCURVE",
"507 11 OFFCURVE",
"513 46 CURVE SMOOTH",
"558 303 LINE SMOOTH",
"578 420 OFFCURVE",
"491 500 OFFCURVE",
"344 500 CURVE SMOOTH",
"262 500 OFFCURVE",
"182 479 OFFCURVE",
"127 444 CURVE SMOOTH",
"104 429 OFFCURVE",
"92 412 OFFCURVE",
"92 394 CURVE SMOOTH",
"92 371 OFFCURVE",
"112 351 OFFCURVE",
"135 351 CURVE SMOOTH",
"147 351 OFFCURVE",
"162 356 OFFCURVE",
"180 365 CURVE SMOOTH",
"223 388 OFFCURVE",
"272 400 OFFCURVE",
"328 400 CURVE SMOOTH",
"407 400 OFFCURVE",
"434 372 OFFCURVE",
"423 303 CURVE SMOOTH",
"419 279 LINE",
"389 304 OFFCURVE",
"337 318 OFFCURVE",
"278 318 CURVE SMOOTH",
"126 318 OFFCURVE",
"21 241 OFFCURVE",
"21 129 CURVE SMOOTH",
"21 47 OFFCURVE",
"96 -10 OFFCURVE",
"204 -10 CURVE SMOOTH"
);
},
{
closed = 1;
nodes = (
"188 82 OFFCURVE",
"153 103 OFFCURVE",
"153 142 CURVE SMOOTH",
"153 197 OFFCURVE",
"200 229 OFFCURVE",
"279 229 CURVE SMOOTH",
"353 229 OFFCURVE",
"400 204 OFFCURVE",
"400 165 CURVE SMOOTH",
"400 115 OFFCURVE",
"341 82 OFFCURVE",
"251 82 CURVE SMOOTH"
);
}
);
width = 593;
}
);
leftKerningGroup = a;
note = a;
rightKerningGroup = a;
unicode = 0061;
},
{
glyphname = b;
lastChange = "2018-07-09 11:12:12 +0000";
layers = (
{
anchors = (
{
name = bottom;
position = "{338, 0}";
},
{
name = top;
position = "{338, 749}";
}
);
layerId = "0B1DFD06-3317-40CA-B510-4969A0718C16";
paths = (
{
closed = 1;
nodes = (
"123 -10 OFFCURVE",
"132 1 OFFCURVE",
"132 22 CURVE SMOOTH",
"132 103 LINE",
"179 29 OFFCURVE",
"258 -10 OFFCURVE",
"358 -10 CURVE SMOOTH",
"529 -10 OFFCURVE",
"625 82 OFFCURVE",
"625 245 CURVE SMOOTH",
"625 401 OFFCURVE",
"521 500 OFFCURVE",
"358 500 CURVE SMOOTH",
"265 500 OFFCURVE",
"191 464 OFFCURVE",
"133 389 CURVE",
"132 727 LINE",
"132 748 OFFCURVE",
"123 759 OFFCURVE",
"106 759 CURVE SMOOTH",
"89 759 OFFCURVE",
"81 749 OFFCURVE",
"81 727 CURVE SMOOTH",
"81 22 LINE SMOOTH",
"81 0 OFFCURVE",
"89 -10 OFFCURVE",
"106 -10 CURVE SMOOTH"
);
},
{
closed = 1;
nodes = (
"218 38 OFFCURVE",
"132 116 OFFCURVE",
"132 245 CURVE SMOOTH",
"132 364 OFFCURVE",
"228 452 OFFCURVE",
"358 452 CURVE SMOOTH",
"492 452 OFFCURVE",
"573 374 OFFCURVE",
"573 245 CURVE SMOOTH",
"573 105 OFFCURVE",
"503 38 OFFCURVE",
"358 38 CURVE SMOOTH"
);
}
);
width = 676;
},
{
anchors = (
{
name = bottom;
position = "{343, 0}";
},
{
name = top;
position = "{343, 749}";
}
);
layerId = "258BB4CE-589F-454F-8E39-237B943AA0B4";
paths = (
{
closed = 1;
nodes = (
"151 -10 OFFCURVE",
"177 13 OFFCURVE",
"177 50 CURVE SMOOTH",
"177 70 LINE",
"234 13 OFFCURVE",
"287 -10 OFFCURVE",
"363 -10 CURVE SMOOTH",
"531 -10 OFFCURVE",
"630 85 OFFCURVE",
"630 245 CURVE SMOOTH",
"630 405 OFFCURVE",
"532 500 OFFCURVE",
"366 500 CURVE SMOOTH",
"292 500 OFFCURVE",
"225 472 OFFCURVE",
"178 422 CURVE",
"177 699 LINE SMOOTH",
"177 736 OFFCURVE",
"151 759 OFFCURVE",
"111 759 CURVE SMOOTH",
"70 759 OFFCURVE",
"46 737 OFFCURVE",
"46 699 CURVE SMOOTH",
"46 50 LINE SMOOTH",
"46 13 OFFCURVE",
"70 -10 OFFCURVE",
"111 -10 CURVE SMOOTH"
);
},
{
closed = 1;
nodes = (
"239 94 OFFCURVE",
"177 150 OFFCURVE",
"177 245 CURVE SMOOTH",
"177 340 OFFCURVE",
"239 396 OFFCURVE",
"343 396 CURVE SMOOTH",
"440 396 OFFCURVE",
"498 340 OFFCURVE",
"498 245 CURVE SMOOTH",
"498 150 OFFCURVE",
"440 94 OFFCURVE",
"343 94 CURVE SMOOTH"
);
}
);
width = 666;
},
{
anchors = (
{
name = bottom;
position = "{337, 0}";
},
{
name = top;
position = "{337, 749}";
}
);
layerId = "8ED59CAD-D047-43C0-8308-3370007B39AA";
paths = (
{
closed = 1;
nodes = (
"129 -10 OFFCURVE",
"142 6 OFFCURVE",
"142 30 CURVE SMOOTH",
"142 94 LINE",
"192 24 OFFCURVE",
"265 -10 OFFCURVE",
"357 -10 CURVE SMOOTH",
"527 -10 OFFCURVE",
"624 83 OFFCURVE",
"624 245 CURVE SMOOTH",
"624 402 OFFCURVE",
"522 500 OFFCURVE",
"358 500 CURVE SMOOTH",
"269 500 OFFCURVE",
"199 466 OFFCURVE",
"143 398 CURVE",
"142 719 LINE",
"142 745 OFFCURVE",
"128 759 OFFCURVE",
"105 759 CURVE SMOOTH",
"82 759 OFFCURVE",
"69 744 OFFCURVE",
"69 719 CURVE SMOOTH",
"69 30 LINE SMOOTH",
"69 5 OFFCURVE",
"82 -10 OFFCURVE",
"105 -10 CURVE SMOOTH"
);
},
{
closed = 1;
nodes = (
"222 53 OFFCURVE",
"142 126 OFFCURVE",
"142 245 CURVE SMOOTH",
"142 357 OFFCURVE",
"230 437 OFFCURVE",
"352 437 CURVE SMOOTH",
"474 437 OFFCURVE",
"550 365 OFFCURVE",
"550 245 CURVE SMOOTH",
"550 118 OFFCURVE",
"483 53 OFFCURVE",
"352 53 CURVE SMOOTH"
);
}
);
width = 667;
},
{
anchors = (
{
name = bottom;
position = "{298, 0}";
},
{
name = top;
position = "{430, 749}";
}
);
layerId = "6D0DA379-F071-4911-97B5-1F20F456FBFD";
paths = (
{
closed = 1;
nodes = (
"82 -10 OFFCURVE",
"94 1 OFFCURVE",
"97 22 CURVE SMOOTH",
"111 103 LINE",
"146 32 OFFCURVE",
"223 -10 OFFCURVE",
"317 -10 CURVE SMOOTH",
"503 -10 OFFCURVE",
"634 116 OFFCURVE",
"634 297 CURVE SMOOTH",
"634 423 OFFCURVE",
"547 500 OFFCURVE",
"407 500 CURVE SMOOTH",
"311 500 OFFCURVE",
"231 464 OFFCURVE",
"163 389 CURVE",
"221 727 LINE SMOOTH",
"224 747 OFFCURVE",
"216 759 OFFCURVE",
"201 759 CURVE SMOOTH",
"184 759 OFFCURVE",
"174 749 OFFCURVE",
"170 727 CURVE SMOOTH",
"46 22 LINE SMOOTH",
"43 1 OFFCURVE",
"49 -10 OFFCURVE",
"65 -10 CURVE SMOOTH"
);
},
{
closed = 1;
nodes = (
"203 38 OFFCURVE",
"132 98 OFFCURVE",
"132 201 CURVE SMOOTH",
"132 341 OFFCURVE",
"250 452 OFFCURVE",
"399 452 CURVE SMOOTH",
"517 452 OFFCURVE",
"582 396 OFFCURVE",
"582 295 CURVE SMOOTH",
"582 143 OFFCURVE",
"478 38 OFFCURVE",
"326 38 CURVE SMOOTH"
);
}
);
width = 684;
},
{
anchors = (
{
name = bottom;
position = "{299, 0}";
},
{
name = top;
position = "{431, 749}";
}
);
layerId = "71BB0B28-5B77-4945-A3C0-334755DB3BD8";
paths = (
{
closed = 1;
nodes = (
"89 -10 OFFCURVE",
"105 5 OFFCURVE",
"110 30 CURVE SMOOTH",
"122 94 LINE",
"159 27 OFFCURVE",
"229 -10 OFFCURVE",
"321 -10 CURVE SMOOTH",
"509 -10 OFFCURVE",
"635 113 OFFCURVE",
"635 298 CURVE SMOOTH",
"635 422 OFFCURVE",
"548 500 OFFCURVE",
"408 500 CURVE SMOOTH",
"319 500 OFFCURVE",
"242 468 OFFCURVE",
"177 401 CURVE",
"232 719 LINE SMOOTH",
"236 743 OFFCURVE",
"223 759 OFFCURVE",
"202 759 CURVE SMOOTH",
"178 759 OFFCURVE",
"163 745 OFFCURVE",
"158 719 CURVE SMOOTH",
"37 30 LINE SMOOTH",
"33 5 OFFCURVE",
"44 -10 OFFCURVE",
"66 -10 CURVE SMOOTH"
);
},
{
closed = 1;
nodes = (
"212 53 OFFCURVE",
"145 112 OFFCURVE",
"145 206 CURVE SMOOTH",
"145 335 OFFCURVE",
"253 437 OFFCURVE",
"391 437 CURVE SMOOTH",
"501 437 OFFCURVE",
"560 386 OFFCURVE",
"560 293 CURVE SMOOTH",
"560 146 OFFCURVE",
"469 53 OFFCURVE",
"324 53 CURVE SMOOTH"
);
}
);
width = 675;
},
{
anchors = (
{
name = bottom;
position = "{303, 0}";
},
{
name = top;
position = "{435, 750}";
}
);
layerId = "D92B54DD-6BE9-4383-803D-42A15BF32189";
paths = (
{
closed = 1;
nodes = (
"111 -10 OFFCURVE",
"141 14 OFFCURVE",
"147 50 CURVE SMOOTH",
"150 70 LINE",
"193 19 OFFCURVE",
"256 -10 OFFCURVE",
"327 -10 CURVE SMOOTH",
"512 -10 OFFCURVE",
"639 116 OFFCURVE",
"639 299 CURVE SMOOTH",
"639 424 OFFCURVE",
"552 500 OFFCURVE",
"410 500 CURVE SMOOTH",
"338 500 OFFCURVE",
"270 473 OFFCURVE",
"213 422 CURVE",
"261 699 LINE SMOOTH",
"267 735 OFFCURVE",
"246 759 OFFCURVE",
"206 759 CURVE SMOOTH",
"165 759 OFFCURVE",
"137 736 OFFCURVE",
"130 699 CURVE SMOOTH",
"16 50 LINE SMOOTH",
"10 13 OFFCURVE",
"30 -10 OFFCURVE",
"70 -10 CURVE SMOOTH"
);
},
{
closed = 1;
nodes = (
"230 94 OFFCURVE",
"178 137 OFFCURVE",
"178 212 CURVE SMOOTH",
"178 321 OFFCURVE",
"257 396 OFFCURVE",
"374 396 CURVE SMOOTH",
"458 396 OFFCURVE",
"505 354 OFFCURVE",
"505 281 CURVE SMOOTH",
"505 170 OFFCURVE",
"431 94 OFFCURVE",
"321 94 CURVE SMOOTH"
);
}
);
width = 674;
}
);
leftKerningGroup = b;
note = b;
rightKerningGroup = b;
unicode = 0062;
},
{
glyphname = c;
lastChange = "2018-07-09 11:12:12 +0000";
layers = (
{
anchors = (
{
name = bottom;
position = "{295, 0}";
},
{
name = top;
position = "{295, 490}";
}
);
layerId = "0B1DFD06-3317-40CA-B510-4969A0718C16";
paths = (
{
closed = 1;
nodes = (
"397 -10 OFFCURVE",
"465 16 OFFCURVE",
"524 70 CURVE SMOOTH",
"535 80 OFFCURVE",
"535 95 OFFCURVE",
"523 105 CURVE",
"514 115 OFFCURVE",
"498 113 OFFCURVE",
"486 100 CURVE SMOOTH",
"448 59 OFFCURVE",
"389 38 OFFCURVE",
"312 38 CURVE SMOOTH",
"179 38 OFFCURVE",
"103 113 OFFCURVE",
"103 246 CURVE SMOOTH",
"103 379 OFFCURVE",
"177 452 OFFCURVE",
"312 452 CURVE SMOOTH",
"393 452 OFFCURVE",
"448 432 OFFCURVE",
"486 390 CURVE SMOOTH",
"497 378 OFFCURVE",
"514 375 OFFCURVE",
"523 384 CURVE",
"535 394 OFFCURVE",
"536 408 OFFCURVE",
"526 420 CURVE SMOOTH",
"481 473 OFFCURVE",
"410 500 OFFCURVE",
"312 500 CURVE SMOOTH",
"156 500 OFFCURVE",
"51 398 OFFCURVE",
"51 246 CURVE SMOOTH",
"51 93 OFFCURVE",
"156 -10 OFFCURVE",
"312 -10 CURVE SMOOTH"
);
}
);
width = 582;
},
{
anchors = (
{
name = bottom;
position = "{327, 0}";
},
{
name = top;
position = "{327, 490}";
}
);
layerId = "258BB4CE-589F-454F-8E39-237B943AA0B4";
paths = (
{
closed = 1;
nodes = (
"416 -10 OFFCURVE",
"489 19 OFFCURVE",
"551 84 CURVE SMOOTH",
"573 107 OFFCURVE",
"568 141 OFFCURVE",
"541 163 CURVE SMOOTH",
"515 184 OFFCURVE",
"485 178 OFFCURVE",
"453 147 CURVE SMOOTH",
"415 111 OFFCURVE",
"371 94 OFFCURVE",
"318 94 CURVE SMOOTH",
"223 94 OFFCURVE",
"168 149 OFFCURVE",
"168 246 CURVE SMOOTH",
"168 341 OFFCURVE",
"223 396 OFFCURVE",
"318 396 CURVE SMOOTH",
"366 396 OFFCURVE",
"410 378 OFFCURVE",
"437 348 CURVE SMOOTH",
"460 323 OFFCURVE",
"499 315 OFFCURVE",
"522 332 CURVE SMOOTH",
"552 353 OFFCURVE",
"558 384 OFFCURVE",
"537 410 CURVE SMOOTH",
"493 467 OFFCURVE",
"413 500 OFFCURVE",
"318 500 CURVE SMOOTH",
"140 500 OFFCURVE",
"36 407 OFFCURVE",
"36 246 CURVE SMOOTH",
"36 84 OFFCURVE",
"140 -10 OFFCURVE",
"318 -10 CURVE SMOOTH"
);
}
);
width = 601;
},
{
anchors = (
{
name = bottom;
position = "{302, 0}";
},
{
name = top;
position = "{302, 490}";
}
);
layerId = "8ED59CAD-D047-43C0-8308-3370007B39AA";
paths = (
{
closed = 1;
nodes = (
"400 -10 OFFCURVE",
"468 16 OFFCURVE",
"533 74 CURVE SMOOTH",
"548 87 OFFCURVE",
"547 107 OFFCURVE",
"530 122 CURVE",
"513 136 OFFCURVE",
"495 130 OFFCURVE",
"478 113 CURVE SMOOTH",
"440 74 OFFCURVE",
"380 53 OFFCURVE",
"313 53 CURVE SMOOTH",
"191 53 OFFCURVE",
"119 124 OFFCURVE",
"119 246 CURVE SMOOTH",
"119 369 OFFCURVE",
"189 437 OFFCURVE",
"313 437 CURVE SMOOTH",
"386 437 OFFCURVE",
"438 417 OFFCURVE",
"473 378 CURVE SMOOTH",
"487 363 OFFCURVE",
"510 358 OFFCURVE",
"523 369 CURVE",
"540 382 OFFCURVE",
"543 401 OFFCURVE",
"530 417 CURVE SMOOTH",
"488 471 OFFCURVE",
"413 500 OFFCURVE",
"313 500 CURVE SMOOTH",
"151 500 OFFCURVE",
"45 399 OFFCURVE",
"45 246 CURVE SMOOTH",
"45 91 OFFCURVE",
"151 -10 OFFCURVE",
"313 -10 CURVE SMOOTH"
);
}
);
width = 588;
},
{
anchors = (
{
name = bottom;
position = "{274, 0}";
},
{
name = top;
position = "{374, 490}";
}
);
layerId = "6D0DA379-F071-4911-97B5-1F20F456FBFD";
paths = (
{
closed = 1;
nodes = (
"359 -10 OFFCURVE",
"430 15 OFFCURVE",
"497 70 CURVE SMOOTH",
"511 81 OFFCURVE",
"513 95 OFFCURVE",
"503 105 CURVE SMOOTH",
"493 115 OFFCURVE",
"478 114 OFFCURVE",
"464 101 CURVE SMOOTH",
"418 59 OFFCURVE",
"356 38 OFFCURVE",
"280 38 CURVE SMOOTH",
"164 38 OFFCURVE",
"103 94 OFFCURVE",
"103 200 CURVE SMOOTH",
"103 350 OFFCURVE",
"204 452 OFFCURVE",
"353 452 CURVE SMOOTH",
"440 452 OFFCURVE",
"484 436 OFFCURVE",
"516 392 CURVE SMOOTH",
"525 379 OFFCURVE",
"541 376 OFFCURVE",
"552 385 CURVE SMOOTH",
"565 395 OFFCURVE",
"569 408 OFFCURVE",
"561 420 CURVE SMOOTH",
"525 473 OFFCURVE",
"456 500 OFFCURVE",
"358 500 CURVE SMOOTH",
"174 500 OFFCURVE",
"50 378 OFFCURVE",
"50 198 CURVE SMOOTH",
"50 72 OFFCURVE",
"138 -10 OFFCURVE",
"274 -10 CURVE SMOOTH"
);
}
);
width = 592;
},
{
anchors = (
{
name = bottom;
position = "{273, 0}";
},
{
name = top;
position = "{355, 490}";
}
);
layerId = "71BB0B28-5B77-4945-A3C0-334755DB3BD8";
paths = (
{
closed = 1;
nodes = (
"379 -10 OFFCURVE",
"464 28 OFFCURVE",
"507 72 CURVE SMOOTH",
"524 90 OFFCURVE",
"530 106 OFFCURVE",
"512 122 CURVE SMOOTH",
"495 137 OFFCURVE",
"476 127 OFFCURVE",
"459 114 CURVE SMOOTH",
"412 77 OFFCURVE",
"370 53 OFFCURVE",
"293 53 CURVE SMOOTH",
"180 53 OFFCURVE",
"119 108 OFFCURVE",
"119 209 CURVE SMOOTH",
"119 337 OFFCURVE",
"210 437 OFFCURVE",
"357 437 CURVE SMOOTH",
"450 437 OFFCURVE",
"485 402 OFFCURVE",
"505 379 CURVE SMOOTH",
"520 361 OFFCURVE",
"535 358 OFFCURVE",
"552 370 CURVE SMOOTH",
"568 381 OFFCURVE",
"575 399 OFFCURVE",
"564 418 CURVE SMOOTH",
"541 458 OFFCURVE",
"463 500 OFFCURVE",
"354 500 CURVE SMOOTH",
"170 500 OFFCURVE",
"45 375 OFFCURVE",
"45 209 CURVE SMOOTH",
"45 64 OFFCURVE",
"149 -10 OFFCURVE",
"281 -10 CURVE SMOOTH"
);
}
);
width = 596;
},
{
anchors = (
{
name = bottom;
position = "{280, 0}";
},
{
name = top;
position = "{359, 490}";
}
);
layerId = "D92B54DD-6BE9-4383-803D-42A15BF32189";
paths = (
{
closed = 1;
nodes = (
"397 -10 OFFCURVE",
"491 27 OFFCURVE",
"532 84 CURVE SMOOTH",
"555 117 OFFCURVE",
"555 143 OFFCURVE",
"531 163 CURVE SMOOTH",
"507 183 OFFCURVE",
"484 179 OFFCURVE",
"440 147 CURVE SMOOTH",
"389 109 OFFCURVE",
"348 94 OFFCURVE",
"296 94 CURVE SMOOTH",
"212 94 OFFCURVE",
"169 136 OFFCURVE",
"169 216 CURVE SMOOTH",
"169 322 OFFCURVE",
"244 396 OFFCURVE",
"352 396 CURVE SMOOTH",
"399 396 OFFCURVE",
"433 381 OFFCURVE",
"459 348 CURVE SMOOTH",
"481 321 OFFCURVE",
"510 316 OFFCURVE",
"542 332 CURVE SMOOTH",
"574 349 OFFCURVE",
"585 378 OFFCURVE",
"570 410 CURVE SMOOTH",
"545 463 OFFCURVE",
"455 500 OFFCURVE",
"349 500 CURVE SMOOTH",
"164 500 OFFCURVE",
"35 386 OFFCURVE",
"35 221 CURVE SMOOTH",
"35 79 OFFCURVE",
"134 -10 OFFCURVE",
"294 -10 CURVE SMOOTH"
);
}
);
width = 609;
}
);
leftKerningGroup = c;
note = c;
rightKerningGroup = c;
unicode = 0063;
},
{
glyphname = d;
lastChange = "2018-07-09 11:12:12 +0000";
layers = (
{
anchors = (
{
name = bottom;
position = "{338, 0}";
},
{
name = center;
position = "{338, 235}";
},
{
name = top;
position = "{338, 749}";
},
{
name = topright;
position = "{655, 470}";
}
);
layerId = "0B1DFD06-3317-40CA-B510-4969A0718C16";
paths = (
{
closed = 1;
nodes = (
"416 -10 OFFCURVE",
"496 28 OFFCURVE",
"544 103 CURVE",
"544 22 LINE SMOOTH",
"544 2 OFFCURVE",
"552 -10 OFFCURVE",
"570 -10 CURVE SMOOTH",
"588 -10 OFFCURVE",
"595 2 OFFCURVE",
"595 22 CURVE SMOOTH",
"595 727 LINE SMOOTH",
"595 747 OFFCURVE",
"588 759 OFFCURVE",
"570 759 CURVE SMOOTH",
"552 759 OFFCURVE",
"544 747 OFFCURVE",
"544 727 CURVE",
"543 389 LINE",
"494 452 OFFCURVE",
"428 500 OFFCURVE",
"320 500 CURVE SMOOTH",
"143 500 OFFCURVE",
"51 384 OFFCURVE",
"51 241 CURVE SMOOTH",
"51 86 OFFCURVE",
"149 -10 OFFCURVE",
"318 -10 CURVE SMOOTH"
);
},
{
closed = 1;
nodes = (
"183 38 OFFCURVE",
"103 101 OFFCURVE",
"103 241 CURVE SMOOTH",
"103 364 OFFCURVE",
"179 452 OFFCURVE",
"320 452 CURVE SMOOTH",
"433 452 OFFCURVE",
"544 379 OFFCURVE",
"544 245 CURVE SMOOTH",
"544 118 OFFCURVE",
"460 38 OFFCURVE",
"318 38 CURVE SMOOTH"
);
}
);
width = 676;
},
{
anchors = (
{
name = bottom;
position = "{313, 0}";
},
{
name = center;
position = "{313, 235}";
},
{
name = top;
position = "{313, 749}";
},
{
name = topright;
position = "{630, 470}";
}
);
layerId = "258BB4CE-589F-454F-8E39-237B943AA0B4";
paths = (
{
closed = 1;
nodes = (
"389 -10 OFFCURVE",
"447 20 OFFCURVE",
"489 70 CURVE",
"489 50 LINE SMOOTH",
"489 12 OFFCURVE",
"516 -10 OFFCURVE",
"555 -10 CURVE SMOOTH",
"594 -10 OFFCURVE",
"620 11 OFFCURVE",
"620 50 CURVE SMOOTH",
"620 699 LINE SMOOTH",
"620 738 OFFCURVE",
"594 759 OFFCURVE",
"555 759 CURVE SMOOTH",
"516 759 OFFCURVE",
"489 737 OFFCURVE",
"489 699 CURVE SMOOTH",
"488 422 LINE",
"442 471 OFFCURVE",
"391 500 OFFCURVE",
"306 500 CURVE SMOOTH",
"139 500 OFFCURVE",
"36 402 OFFCURVE",
"36 245 CURVE SMOOTH",
"36 85 OFFCURVE",
"147 -10 OFFCURVE",
"303 -10 CURVE SMOOTH"
);
},
{
closed = 1;
nodes = (
"226 94 OFFCURVE",
"168 150 OFFCURVE",
"168 245 CURVE SMOOTH",
"168 340 OFFCURVE",
"226 396 OFFCURVE",
"323 396 CURVE SMOOTH",
"427 396 OFFCURVE",
"489 340 OFFCURVE",
"489 245 CURVE SMOOTH",
"489 150 OFFCURVE",
"427 94 OFFCURVE",
"323 94 CURVE SMOOTH"
);
}
);
width = 666;
},
{
anchors = (
{
name = bottom;
position = "{327, 0}";
},
{
name = center;
position = "{327, 235}";
},
{
name = top;
position = "{327, 749}";
},
{
name = topright;
position = "{644, 470}";
}
);
layerId = "8ED59CAD-D047-43C0-8308-3370007B39AA";
paths = (
{
closed = 1;
nodes = (
"405 -10 OFFCURVE",
"478 26 OFFCURVE",
"525 94 CURVE",
"525 30 LINE SMOOTH",
"525 5 OFFCURVE",
"539 -10 OFFCURVE",
"562 -10 CURVE SMOOTH",
"585 -10 OFFCURVE",
"598 5 OFFCURVE",
"598 30 CURVE SMOOTH",
"598 719 LINE SMOOTH",
"598 744 OFFCURVE",
"585 759 OFFCURVE",
"562 759 CURVE SMOOTH",
"538 759 OFFCURVE",
"525 744 OFFCURVE",
"525 719 CURVE",
"524 398 LINE",
"477 456 OFFCURVE",
"415 500 OFFCURVE",
"312 500 CURVE SMOOTH",
"138 500 OFFCURVE",
"43 389 OFFCURVE",
"43 242 CURVE SMOOTH",
"43 86 OFFCURVE",
"145 -10 OFFCURVE",
"310 -10 CURVE SMOOTH"
);
},
{
closed = 1;
nodes = (
"192 53 OFFCURVE",
"117 115 OFFCURVE",
"117 242 CURVE SMOOTH",
"117 357 OFFCURVE",
"189 437 OFFCURVE",
"317 437 CURVE SMOOTH",
"428 437 OFFCURVE",
"525 367 OFFCURVE",
"525 245 CURVE SMOOTH",
"525 127 OFFCURVE",
"446 53 OFFCURVE",
"316 53 CURVE SMOOTH"
);
}
);
width = 667;
},
{
anchors = (
{
name = bottom;
position = "{299, 0}";
},
{
name = center;
position = "{340, 235}";
},
{
name = top;
position = "{431, 749}";
},
{
name = topright;
position = "{699, 470}";
}
);
layerId = "6D0DA379-F071-4911-97B5-1F20F456FBFD";
paths = (
{
closed = 1;
nodes = (
"383 -10 OFFCURVE",
"460 25 OFFCURVE",
"523 103 CURVE",
"509 22 LINE SMOOTH",
"506 4 OFFCURVE",
"512 -10 OFFCURVE",
"530 -10 CURVE SMOOTH",
"546 -10 OFFCURVE",
"556 0 OFFCURVE",
"560 22 CURVE SMOOTH",
"684 727 LINE SMOOTH",
"687 745 OFFCURVE",
"683 759 OFFCURVE",
"664 759 CURVE SMOOTH",
"647 759 OFFCURVE",
"637 748 OFFCURVE",
"633 727 CURVE SMOOTH",
"572 379 LINE",
"523 464 OFFCURVE",
"462 500 OFFCURVE",
"368 500 CURVE SMOOTH",
"185 500 OFFCURVE",
"49 364 OFFCURVE",
"49 194 CURVE SMOOTH",
"49 60 OFFCURVE",
"134 -10 OFFCURVE",
"280 -10 CURVE SMOOTH"
);
},
{
closed = 1;
nodes = (
"162 38 OFFCURVE",
"101 87 OFFCURVE",
"101 196 CURVE SMOOTH",
"101 339 OFFCURVE",
"206 452 OFFCURVE",
"356 452 CURVE SMOOTH",
"471 452 OFFCURVE",
"551 386 OFFCURVE",
"551 275 CURVE SMOOTH",
"551 155 OFFCURVE",
"458 38 OFFCURVE",
"278 38 CURVE SMOOTH"
);
}
);
width = 685;
},
{
anchors = (
{
name = bottom;
position = "{289, 0}";
},
{
name = center;
position = "{330, 235}";
},
{
name = top;
position = "{421, 749}";
},
{
name = topright;
position = "{689, 470}";
}
);
layerId = "71BB0B28-5B77-4945-A3C0-334755DB3BD8";
paths = (
{
closed = 1;
nodes = (
"364 -10 OFFCURVE",
"441 23 OFFCURVE",
"503 94 CURVE",
"492 30 LINE SMOOTH",
"488 7 OFFCURVE",
"498 -10 OFFCURVE",
"522 -10 CURVE SMOOTH",
"545 -10 OFFCURVE",
"560 4 OFFCURVE",
"565 30 CURVE SMOOTH",
"686 719 LINE SMOOTH",
"690 743 OFFCURVE",
"680 759 OFFCURVE",
"657 759 CURVE SMOOTH",
"635 759 OFFCURVE",
"618 746 OFFCURVE",
"613 719 CURVE SMOOTH",
"555 395 LINE",
"510 467 OFFCURVE",
"447 500 OFFCURVE",
"358 500 CURVE SMOOTH",
"175 500 OFFCURVE",
"42 364 OFFCURVE",
"42 198 CURVE SMOOTH",
"42 62 OFFCURVE",
"130 -10 OFFCURVE",
"270 -10 CURVE SMOOTH"
);
},
{
closed = 1;
nodes = (
"175 53 OFFCURVE",
"117 101 OFFCURVE",
"117 202 CURVE SMOOTH",
"117 333 OFFCURVE",
"214 437 OFFCURVE",
"355 437 CURVE SMOOTH",
"461 437 OFFCURVE",
"532 378 OFFCURVE",
"532 274 CURVE SMOOTH",
"532 155 OFFCURVE",
"438 53 OFFCURVE",
"282 53 CURVE SMOOTH"
);
}
);
width = 675;
},
{
anchors = (
{
name = bottom;
position = "{274, 0}";
},
{
name = center;
position = "{315, 235}";
},
{
name = top;
position = "{406, 750}";
},
{
name = topright;
position = "{674, 470}";
}
);
layerId = "D92B54DD-6BE9-4383-803D-42A15BF32189";
paths = (
{
closed = 1;
nodes = (
"349 -10 OFFCURVE",
"406 14 OFFCURVE",
"462 70 CURVE",
"459 50 LINE SMOOTH",
"453 13 OFFCURVE",
"475 -10 OFFCURVE",
"515 -10 CURVE SMOOTH",
"558 -10 OFFCURVE",
"584 16 OFFCURVE",
"590 50 CURVE SMOOTH",
"704 699 LINE SMOOTH",
"710 734 OFFCURVE",
"692 759 OFFCURVE",
"650 759 CURVE SMOOTH",
"609 759 OFFCURVE",
"580 736 OFFCURVE",
"573 699 CURVE SMOOTH",
"523 422 LINE",
"483 475 OFFCURVE",
"428 500 OFFCURVE",
"348 500 CURVE SMOOTH",
"164 500 OFFCURVE",
"36 370 OFFCURVE",
"36 208 CURVE SMOOTH",
"36 68 OFFCURVE",
"131 -10 OFFCURVE",
"271 -10 CURVE SMOOTH"
);
},
{
closed = 1;
nodes = (
"216 94 OFFCURVE",
"168 132 OFFCURVE",
"168 214 CURVE SMOOTH",
"168 312 OFFCURVE",
"237 396 OFFCURVE",
"358 396 CURVE SMOOTH",
"444 396 OFFCURVE",
"496 354 OFFCURVE",
"496 272 CURVE SMOOTH",
"496 171 OFFCURVE",
"417 94 OFFCURVE",
"299 94 CURVE SMOOTH"
);
}
);
width = 675;
}
);
leftKerningGroup = d;
note = d;
rightKerningGroup = d;
unicode = 0064;
},
{
glyphname = e;
lastChange = "2018-07-09 11:12:12 +0000";
layers = (
{
anchors = (
{
name = bottom;
position = "{318, 0}";
},
{
name = ogonek;
position = "{346, 10}";
},
{
name = top;
position = "{318, 490}";
}
);
layerId = "0B1DFD06-3317-40CA-B510-4969A0718C16";
paths = (
{
closed = 1;
nodes = (
"414 -10 OFFCURVE",
"492 19 OFFCURVE",
"543 75 CURVE SMOOTH",
"554 87 OFFCURVE",
"552 100 OFFCURVE",
"539 110 CURVE SMOOTH",
"528 118 OFFCURVE",
"519 116 OFFCURVE",
"503 101 CURVE SMOOTH",
"454 55 OFFCURVE",
"400 38 OFFCURVE",
"317 38 CURVE SMOOTH",
"183 38 OFFCURVE",
"105 107 OFFCURVE",
"105 223 CURVE",
"498 223 LINE SMOOTH",
"547 223 OFFCURVE",
"575 254 OFFCURVE",
"575 306 CURVE SMOOTH",
"575 421 OFFCURVE",
"469 500 OFFCURVE",
"316 500 CURVE SMOOTH",
"153 500 OFFCURVE",
"51 404 OFFCURVE",
"51 250 CURVE SMOOTH",
"51 83 OFFCURVE",
"145 -10 OFFCURVE",
"317 -10 CURVE SMOOTH"
);
},
{
closed = 1;
nodes = (
"106 386 OFFCURVE",
"182 452 OFFCURVE",
"316 452 CURVE SMOOTH",
"436 452 OFFCURVE",
"523 391 OFFCURVE",
"523 307 CURVE SMOOTH",
"523 279 OFFCURVE",
"512 268 OFFCURVE",
"484 268 CURVE SMOOTH",
"106 268 LINE"
);
}
);
width = 626;
},
{
anchors = (
{
name = bottom;
position = "{314, 0}";
},
{
name = ogonek;
position = "{366, 10}";
},
{
name = top;
position = "{314, 490}";
}
);
layerId = "258BB4CE-589F-454F-8E39-237B943AA0B4";
paths = (
{
closed = 1;
nodes = (
"404 -10 OFFCURVE",
"481 13 OFFCURVE",
"537 56 CURVE SMOOTH",
"563 76 OFFCURVE",
"564 107 OFFCURVE",
"540 131 CURVE SMOOTH",
"517 154 OFFCURVE",
"497 152 OFFCURVE",
"457 127 CURVE SMOOTH",
"419 103 OFFCURVE",
"374 91 OFFCURVE",
"319 91 CURVE SMOOTH",
"216 91 OFFCURVE",
"163 130 OFFCURVE",
"163 204 CURVE",
"464 204 LINE SMOOTH",
"539 204 OFFCURVE",
"581 240 OFFCURVE",
"581 304 CURVE SMOOTH",
"581 420 OFFCURVE",
"470 500 OFFCURVE",
"309 500 CURVE SMOOTH",
"136 500 OFFCURVE",
"36 405 OFFCURVE",
"36 241 CURVE SMOOTH",
"36 88 OFFCURVE",
"146 -10 OFFCURVE",
"319 -10 CURVE SMOOTH"
);
},
{
closed = 1;
nodes = (
"165 359 OFFCURVE",
"220 399 OFFCURVE",
"309 399 CURVE SMOOTH",
"399 399 OFFCURVE",
"455 370 OFFCURVE",
"455 324 CURVE SMOOTH",
"455 304 OFFCURVE",
"446 296 OFFCURVE",
"424 296 CURVE SMOOTH",
"165 296 LINE"
);
}
);
width = 617;
},
{
anchors = (
{
name = bottom;
position = "{313, 0}";
},
{
name = ogonek;
position = "{348, 10}";
},
{
name = top;
position = "{313, 490}";
}
);
layerId = "8ED59CAD-D047-43C0-8308-3370007B39AA";
paths = (
{
closed = 1;
nodes = (
"414 -10 OFFCURVE",
"486 15 OFFCURVE",
"540 67 CURVE SMOOTH",
"559 85 OFFCURVE",
"552 101 OFFCURVE",
"538 114 CURVE SMOOTH",
"525 126 OFFCURVE",
"513 124 OFFCURVE",
"490 106 CURVE SMOOTH",
"442 68 OFFCURVE",
"391 53 OFFCURVE",
"315 53 CURVE SMOOTH",
"191 53 OFFCURVE",
"118 115 OFFCURVE",
"118 217 CURVE",
"488 217 LINE SMOOTH",
"543 217 OFFCURVE",
"576 249 OFFCURVE",
"576 305 CURVE SMOOTH",
"576 420 OFFCURVE",
"468 500 OFFCURVE",
"312 500 CURVE SMOOTH",
"145 500 OFFCURVE",
"43 404 OFFCURVE",
"43 247 CURVE SMOOTH",
"43 84 OFFCURVE",
"141 -10 OFFCURVE",
"315 -10 CURVE SMOOTH"
);
},
{
closed = 1;
nodes = (
"120 375 OFFCURVE",
"194 437 OFFCURVE",
"312 437 CURVE SMOOTH",
"424 437 OFFCURVE",
"502 384 OFFCURVE",
"502 311 CURVE SMOOTH",
"502 283 OFFCURVE",
"489 276 OFFCURVE",
"466 276 CURVE SMOOTH",
"120 276 LINE"
);
}
);
width = 619;
},
{
anchors = (
{
name = bottom;
position = "{288, 0}";
},
{
name = ogonek;
position = "{300, 10}";
},
{
name = top;
position = "{368, 490}";
}
);
layerId = "6D0DA379-F071-4911-97B5-1F20F456FBFD";
paths = (
{
closed = 1;
nodes = (
"376 -9 OFFCURVE",
"471 25 OFFCURVE",
"517 76 CURVE SMOOTH",
"531 91 OFFCURVE",
"532 103 OFFCURVE",
"520 111 CURVE SMOOTH",
"509 119 OFFCURVE",
"503 118 OFFCURVE",
"482 102 CURVE SMOOTH",
"421 56 OFFCURVE",
"369 39 OFFCURVE",
"290 39 CURVE SMOOTH",
"156 39 OFFCURVE",
"91 103 OFFCURVE",
"105 223 CURVE",
"498 223 LINE SMOOTH",
"554 223 OFFCURVE",
"592 266 OFFCURVE",
"592 329 CURVE SMOOTH",
"592 430 OFFCURVE",
"497 500 OFFCURVE",
"360 500 CURVE SMOOTH",
"176 500 OFFCURVE",
"51 381 OFFCURVE",
"51 206 CURVE SMOOTH",
"51 70 OFFCURVE",
"134 -9 OFFCURVE",
"278 -9 CURVE SMOOTH"
);
},
{
closed = 1;
nodes = (
"135 385 OFFCURVE",
"223 452 OFFCURVE",
"357 452 CURVE SMOOTH",
"471 452 OFFCURVE",
"540 404 OFFCURVE",
"540 325 CURVE SMOOTH",
"540 289 OFFCURVE",
"523 268 OFFCURVE",
"492 268 CURVE SMOOTH",
"114 268 LINE"
);
}
);
width = 634;
},
{
anchors = (
{
name = bottom;
position = "{280, 0}";
},
{
name = ogonek;
position = "{291, 10}";
},
{
name = top;
position = "{356, 490}";
}
);
layerId = "71BB0B28-5B77-4945-A3C0-334755DB3BD8";
paths = (
{
closed = 1;
nodes = (
"378 -9 OFFCURVE",
"469 23 OFFCURVE",
"514 68 CURVE SMOOTH",
"533 87 OFFCURVE",
"534 101 OFFCURVE",
"520 115 CURVE SMOOTH",
"509 126 OFFCURVE",
"496 124 OFFCURVE",
"470 107 CURVE SMOOTH",
"411 69 OFFCURVE",
"358 54 OFFCURVE",
"292 54 CURVE SMOOTH",
"165 54 OFFCURVE",
"102 112 OFFCURVE",
"118 217 CURVE",
"488 217 LINE SMOOTH",
"551 217 OFFCURVE",
"594 261 OFFCURVE",
"594 328 CURVE SMOOTH",
"594 428 OFFCURVE",
"490 500 OFFCURVE",
"349 500 CURVE SMOOTH",
"168 500 OFFCURVE",
"43 378 OFFCURVE",
"43 203 CURVE SMOOTH",
"43 70 OFFCURVE",
"131 -9 OFFCURVE",
"282 -9 CURVE SMOOTH"
);
},
{
closed = 1;
nodes = (
"149 376 OFFCURVE",
"233 437 OFFCURVE",
"353 437 CURVE SMOOTH",
"455 437 OFFCURVE",
"519 391 OFFCURVE",
"519 320 CURVE SMOOTH",
"519 293 OFFCURVE",
"504 276 OFFCURVE",
"476 276 CURVE SMOOTH",
"130 276 LINE"
);
}
);
width = 628;
},
{
anchors = (
{
name = bottom;
position = "{291, 0}";
},
{
name = ogonek;
position = "{301, 10}";
},
{
name = top;
position = "{358, 490}";
}
);
layerId = "D92B54DD-6BE9-4383-803D-42A15BF32189";
paths = (
{
closed = 1;
nodes = (
"367 -9 OFFCURVE",
"459 17 OFFCURVE",
"508 55 CURVE SMOOTH",
"540 80 OFFCURVE",
"545 105 OFFCURVE",
"524 130 CURVE SMOOTH",
"505 153 OFFCURVE",
"490 152 OFFCURVE",
"441 126 CURVE SMOOTH",
"394 102 OFFCURVE",
"354 92 OFFCURVE",
"299 92 CURVE SMOOTH",
"194 92 OFFCURVE",
"151 127 OFFCURVE",
"160 204 CURVE",
"461 204 LINE SMOOTH",
"545 204 OFFCURVE",
"598 251 OFFCURVE",
"598 327 CURVE SMOOTH",
"598 428 OFFCURVE",
"496 500 OFFCURVE",
"352 500 CURVE SMOOTH",
"168 500 OFFCURVE",
"35 379 OFFCURVE",
"35 211 CURVE SMOOTH",
"35 75 OFFCURVE",
"130 -9 OFFCURVE",
"283 -9 CURVE SMOOTH"
);
},
{
closed = 1;
nodes = (
"191 362 OFFCURVE",
"251 399 OFFCURVE",
"345 399 CURVE SMOOTH",
"425 399 OFFCURVE",
"474 373 OFFCURVE",
"474 330 CURVE SMOOTH",
"474 310 OFFCURVE",
"459 296 OFFCURVE",
"437 296 CURVE SMOOTH",
"178 296 LINE"
);
}
);
width = 626;
}
);
leftKerningGroup = c;
note = e;
rightKerningGroup = c;
unicode = 0065;
},
